<?xml version="1.0" encoding="UTF-8"?>
<!DOCTYPE svg PUBLIC "-//W3C//DTD SVG 1.1//EN" "http://www.w3.org/Graphics/SVG/1.1/DTD/svg11.dtd">
<!-- Creator: CorelDRAW X7 -->
<svg xmlns="http://www.w3.org/2000/svg" xml:space="preserve" width="14.7581mm" height="14.7581mm" version="1.1" style="shape-rendering:geometricPrecision; text-rendering:geometricPrecision; image-rendering:optimizeQuality; fill-rule:evenodd; clip-rule:evenodd"
viewBox="0 0 59391 59391"
 xmlns:xlink="http://www.w3.org/1999/xlink">
 <defs>
  <style type="text/css">
   <![CDATA[
    .fil0 {fill:white}
    .fil4 {fill:#34495E;fill-rule:nonzero}
    .fil2 {fill:#486380;fill-rule:nonzero}
    .fil3 {fill:#607484;fill-rule:nonzero}
    .fil1 {fill:#A8C954;fill-rule:nonzero}
    .fil5 {fill:#F9F9FA;fill-rule:nonzero}
   ]]>
  </style>
 </defs>
 <g id="Camada_x0020_1">
  <metadata id="CorelCorpID_0Corel-Layer"/>
  <g id="_1045927728">
   <circle class="fil0" cx="29695" cy="29696" r="29696"/>
   <g>
    <path class="fil1" d="M55689 29696c0,14356 -11637,25993 -25993,25993 -14356,0 -25993,-11637 -25993,-25993 0,-14356 11637,-25993 25993,-25993 14356,0 25993,11637 25993,25993z"/>
    <path class="fil2" d="M21180 14894c0,0 1805,5415 8125,5415 6319,0 8575,-5415 8575,-5415 0,0 -2256,452 -3611,452 -1354,0 -1805,-1805 -3159,-1805 -1355,0 -1805,1805 -2707,1805 -905,0 -1807,-2709 -2709,-2709 -902,0 -1805,2709 -2257,2709 -452,0 -2257,-452 -2257,-452z"/>
    <path class="fil3" d="M37880 14894c0,0 -2256,452 -3611,452 -1354,0 -1525,-1805 -2877,-1805 -893,0 -1202,397 -1609,932l0 5834c0,0 -226,2 -198,2 6320,2 8295,-5415 8295,-5415z"/>
    <path class="fil4" d="M28829 20151c-10153,575 -13253,17747 -13253,19522 0,1226 339,2128 1148,3358 809,1231 4702,3724 13230,3724l-123 0 70 0c8526,0 11928,-2098 13298,-3724 0,0 131,-136 206,-310 817,-1178 645,-2511 615,-3030 -103,-1773 -3006,-18941 -13567,-19532l-1624 -8z"/>
    <path class="fil3" d="M29886 46620c-8,0 -16,-2 -24,-2 -11,0 -20,2 -31,2l55 0z"/>
    <path class="fil3" d="M30525 20151l-742 0 0 26467c0,0 76,2 151,2 8506,-6 11865,-1983 13231,-3605 0,0 115,-78 190,-252 816,-1176 744,-2469 715,-2989 -102,-1772 -2985,-19032 -13545,-19623z"/>
    <path class="fil5" d="M29402 38497c-313,-12 -650,-42 -1015,-89 -367,-47 -708,-127 -1025,-235 -317,-107 -583,-241 -800,-404 -216,-160 -323,-363 -323,-603 0,-178 62,-341 189,-484 125,-144 283,-216 475,-216 120,0 252,30 395,90 145,61 316,131 514,208 196,77 424,149 682,216 258,66 561,105 908,115l0 -4097c-396,-133 -779,-276 -1150,-433 -371,-156 -708,-353 -1007,-592 -300,-241 -539,-538 -718,-890 -181,-354 -270,-800 -270,-1339 0,-946 280,-1694 845,-2239 563,-546 1329,-859 2300,-945l0 -880c0,-131 44,-242 136,-331 88,-91 199,-135 330,-135 134,0 245,44 334,135 89,89 134,200 134,331l0 880c264,26 548,58 856,100 305,44 588,110 852,208 264,95 484,214 656,359 175,143 262,323 262,539 0,179 -63,339 -190,476 -125,139 -301,207 -530,207 -132,0 -258,-20 -378,-62 -120,-43 -250,-91 -396,-145 -144,-54 -305,-107 -485,-160 -179,-56 -395,-94 -647,-117l0 3864c383,132 764,276 1143,431 377,157 711,355 1005,595 294,240 534,537 720,898 186,359 280,803 280,1329 0,492 -80,930 -234,1313 -157,384 -375,720 -657,1007 -281,288 -615,522 -997,701 -383,179 -804,299 -1260,361l0 897c0,132 -43,245 -134,334 -89,89 -200,135 -332,135 -133,0 -244,-46 -332,-135 -90,-91 -136,-202 -136,-334l0 -864zm-613 -7244c97,49 197,93 298,134 101,42 206,88 315,135l0 -3540c-228,36 -440,90 -638,161 -198,71 -373,174 -522,306 -150,132 -269,293 -359,485 -91,193 -135,425 -135,700 0,252 36,472 107,657 74,186 159,341 262,468 101,125 213,228 332,305 120,78 233,141 340,189zm3184 3974c0,-516 -113,-894 -342,-1135 -228,-237 -456,-412 -684,-519 -95,-48 -194,-94 -295,-135 -103,-42 -209,-81 -316,-117l0 3720c1091,-180 1637,-785 1637,-1814z"/>
   </g>
  </g>
 </g>
</svg>
