<?xml version="1.0" encoding="UTF-8"?>
<!DOCTYPE svg PUBLIC "-//W3C//DTD SVG 1.1//EN" "http://www.w3.org/Graphics/SVG/1.1/DTD/svg11.dtd">
<!-- Creator: CorelDRAW X7 -->
<svg xmlns="http://www.w3.org/2000/svg" xml:space="preserve" width="14.7581mm" height="14.7581mm" version="1.1" style="shape-rendering:geometricPrecision; text-rendering:geometricPrecision; image-rendering:optimizeQuality; fill-rule:evenodd; clip-rule:evenodd"
viewBox="0 0 256587 256587"
 xmlns:xlink="http://www.w3.org/1999/xlink">
 <defs>
  <style type="text/css">
   <![CDATA[
    .fil0 {fill:white}
    .fil1 {fill:#664B3A;fill-rule:nonzero}
    .fil4 {fill:#E6A52E;fill-rule:nonzero}
    .fil3 {fill:#EAEBEC;fill-rule:nonzero}
    .fil2 {fill:white;fill-rule:nonzero}
   ]]>
  </style>
 </defs>
 <g id="Camada_x0020_1">
  <metadata id="CorelCorpID_0Corel-Layer"/>
  <g id="_821214736">
   <circle class="fil0" cx="128293" cy="128294" r="128294"/>
   <g>
    <path class="fil1" d="M240592 128294c0,62019 -50277,112298 -112298,112298 -62018,0 -112297,-50279 -112297,-112298 0,-62020 50279,-112297 112297,-112297 62021,0 112298,50277 112298,112297z"/>
    <path class="fil2" d="M130296 70061c15505,-12 31109,925 31356,2813 24,191 41,384 66,576 -113,-5432 -3309,-10110 -7927,-12391 -1759,-4799 -6403,-8226 -11857,-8226 -200,0 -402,7 -600,16 -2310,-2573 -5676,-4197 -9427,-4197 -3816,0 -7236,1685 -9548,4336 -647,-101 -1309,-155 -1986,-155 -5130,0 -9546,3039 -11516,7398 -5705,1786 -9857,7014 -9983,13224 24,-195 41,-388 66,-581 247,-1888 15851,-2825 31356,-2813z"/>
    <path class="fil3" d="M155480 195802l-2 0c-727,-6098 -1692,-10206 -2587,-16323 -897,-6114 -2686,-24297 834,-38600 4602,-18692 8843,-34100 8650,-53143 -47,-4746 -90,-9580 -657,-14286 -25,-192 -42,-385 -66,-576 -247,-1888 -15851,-2825 -31356,-2813 -15505,-12 -31109,925 -31356,2813 -25,193 -42,386 -66,581 -567,4705 -612,9536 -659,14281 -193,19043 4049,34451 8651,53143 3519,14303 1728,32486 835,38600 -896,6117 -1863,10225 -2588,16323l-3 0c-141,1667 -311,4144 -311,4285 0,80 3,515 5,649 0,2 0,5 0,5 10,435 35,843 80,1222 661,5720 14410,6431 24499,6431 207,0 401,-1 607,-3 102,0 201,2 302,2l4 0 304 -2c203,2 400,3 607,3 10089,0 23840,-711 24497,-6431 45,-377 69,-787 80,-1222 0,0 0,-3 0,-5 5,-134 5,-569 5,-649 0,-141 -170,-2618 -309,-4285zm-3610 2762l0 6c-9,379 -28,735 -68,1064 -556,4979 -12187,5596 -20721,5596 -175,0 -340,-2 -512,-2 -54,0 -106,0 -160,0 -51,0 -105,0 -159,0 -172,0 -335,2 -512,2 -8534,0 -20163,-617 -20721,-5596 -37,-329 -58,-685 -68,-1064 0,0 0,-2 0,-6 -4,-118 -5,-493 -5,-563 1,-123 146,-2279 264,-3733l2 0c613,-5304 1876,-8882 2635,-14206 757,-5324 2789,-21709 -191,-34161 -2239,-9369 -6321,-25954 -7838,-39763 -1114,-10173 -1100,-20233 -872,-22037 205,-1631 14428,-2448 27465,-2448 13038,0 27263,817 27468,2448 228,1804 115,13051 -1000,23222 -1514,13810 -5469,29209 -7712,38580 -2977,12450 -948,28835 -188,34161 756,5322 2019,8900 2634,14206l2 0c118,1452 262,3608 262,3731 0,70 0,445 -5,563z"/>
    <path class="fil4" d="M151611 194270c-615,-5306 -1878,-8884 -2634,-14206 -760,-5326 -2789,-21711 188,-34161 2243,-9371 6198,-24770 7712,-38580 1115,-10171 1228,-21418 1000,-23222 -205,-1631 -14430,-2448 -27468,-2448 -13037,0 -27262,817 -27465,2448 -228,1804 -242,11864 872,22037 1517,13809 5595,30394 7838,39763 2980,12452 948,28837 188,34161 -756,5324 -2019,8900 -2634,14206 -120,1454 -263,3610 -264,3733 0,70 1,445 5,563 0,4 0,6 0,6 10,379 31,735 68,1064 558,4979 12187,5596 20721,5596 175,0 340,-2 512,-2 54,0 106,0 159,0 52,0 106,0 160,0 172,0 337,2 512,2 8534,0 20163,-617 20721,-5596 37,-329 59,-685 68,-1064l0 -6c5,-118 5,-493 5,-563 0,-123 -144,-2279 -264,-3733 0,2 0,2 0,2z"/>
   </g>
  </g>
 </g>
</svg>
