<?xml version="1.0" encoding="UTF-8"?>
<!DOCTYPE svg PUBLIC "-//W3C//DTD SVG 1.1//EN" "http://www.w3.org/Graphics/SVG/1.1/DTD/svg11.dtd">
<!-- Creator: CorelDRAW X7 -->
<svg xmlns="http://www.w3.org/2000/svg" xml:space="preserve" width="14.7581mm" height="14.7581mm" version="1.1" style="shape-rendering:geometricPrecision; text-rendering:geometricPrecision; image-rendering:optimizeQuality; fill-rule:evenodd; clip-rule:evenodd"
viewBox="0 0 22042 22042"
 xmlns:xlink="http://www.w3.org/1999/xlink">
 <defs>
  <style type="text/css">
   <![CDATA[
    .fil0 {fill:white}
    .fil2 {fill:#FEFEFE;fill-rule:nonzero}
    .fil4 {fill:#F37562;fill-rule:nonzero}
    .fil3 {fill:#E7E9ED;fill-rule:nonzero}
    .fil1 {fill:#415466;fill-rule:nonzero}
   ]]>
  </style>
 </defs>
 <g id="Camada_x0020_1">
  <metadata id="CorelCorpID_0Corel-Layer"/>
  <g id="_1045661008">
   <circle class="fil0" cx="11021" cy="11021" r="11021"/>
   <g>
    <path class="fil1" d="M11021 1374c5328,0 9647,4319 9647,9647 0,5328 -4319,9647 -9647,9647 -5328,0 -9647,-4319 -9647,-9647 0,-5328 4319,-9647 9647,-9647z"/>
    <path class="fil2" d="M11021 7006c2218,0 4016,1797 4016,4015 0,2218 -1798,4016 -4016,4016 -2218,0 -4015,-1798 -4015,-4016 0,-2218 1797,-4015 4015,-4015z"/>
    <path class="fil3" d="M11021 8728c1267,0 2293,1027 2293,2293 0,1267 -1026,2293 -2293,2293 -1266,0 -2293,-1026 -2293,-2293 0,-1266 1027,-2293 2293,-2293z"/>
    <path class="fil2" d="M6458 9459l-4 -1902c0,-111 -88,-199 -199,-199 -111,0 -199,88 -199,199l0 1439 -413 0 0 -1439c0,-111 -88,-199 -199,-199 -111,0 -199,88 -199,199l0 1439 -410 0 0 -1439c0,-111 -88,-199 -199,-199 -111,0 -199,88 -199,199l0 1902 612 915 -95 1401 1003 0 -96 -1401 597 -915z"/>
    <path class="fil4" d="M4801 13981c-31,378 267,704 650,704 383,0 682,-326 651,-704l-149 -2209 -1003 0 -149 2209z"/>
    <path class="fil2" d="M16959 10271c383,-230 647,-770 647,-1393 0,-839 -479,-1516 -1064,-1516 -586,0 -1065,677 -1065,1516 0,631 272,1171 659,1401l-96 1496 1022 0 -103 -1504z"/>
    <path class="fil4" d="M16036 11772l-138 2151c-30,379 268,704 651,704 383,0 682,-325 651,-704l-138 -2151 -1026 0z"/>
   </g>
  </g>
 </g>
</svg>
