<?xml version="1.0" encoding="UTF-8"?>
<!DOCTYPE svg PUBLIC "-//W3C//DTD SVG 1.1//EN" "http://www.w3.org/Graphics/SVG/1.1/DTD/svg11.dtd">
<!-- Creator: CorelDRAW X7 -->
<svg xmlns="http://www.w3.org/2000/svg" xml:space="preserve" width="14.7581mm" height="14.7581mm" version="1.1" style="shape-rendering:geometricPrecision; text-rendering:geometricPrecision; image-rendering:optimizeQuality; fill-rule:evenodd; clip-rule:evenodd"
viewBox="0 0 11516 11516"
 xmlns:xlink="http://www.w3.org/1999/xlink">
 <defs>
  <style type="text/css">
   <![CDATA[
    .fil0 {fill:white}
    .fil5 {fill:#591F1C;fill-rule:nonzero}
    .fil3 {fill:#662621;fill-rule:nonzero}
    .fil6 {fill:#7C4529;fill-rule:nonzero}
    .fil4 {fill:#935733;fill-rule:nonzero}
    .fil2 {fill:#E04332;fill-rule:nonzero}
    .fil7 {fill:#E8A89E;fill-rule:nonzero}
    .fil1 {fill:#F86E51;fill-rule:nonzero}
   ]]>
  </style>
 </defs>
 <g id="Camada_x0020_1">
  <metadata id="CorelCorpID_0Corel-Layer"/>
  <g id="_1045919760">
   <circle class="fil0" cx="5758" cy="5758" r="5758"/>
   <g>
    <path class="fil1" d="M10798 5758c0,2783 -2257,5040 -5040,5040 -2784,0 -5040,-2257 -5040,-5040 0,-2784 2256,-5040 5040,-5040 2783,0 5040,2256 5040,5040z"/>
    <path class="fil2" d="M10784 5384l-2605 -2605 -5615 5489 2479 2479c234,33 472,51 715,51 2783,0 5040,-2257 5040,-5040 0,-126 -5,-250 -14,-374z"/>
    <path class="fil3" d="M7998 2958c-911,-967 -2693,-798 -2865,600 -192,1564 -944,1996 -2113,2459 -1253,497 -914,2780 1580,2640 3251,-184 6129,-2798 3398,-5699z"/>
    <path class="fil4" d="M4380 8917c-1439,0 -2131,-787 -2286,-1491 -157,-713 186,-1389 833,-1645 1096,-435 1775,-804 1954,-2254 80,-651 477,-1139 1090,-1340 755,-247 1644,-7 2212,596 1369,1454 1282,2698 968,3485 -291,728 -895,1368 -1747,1849 -806,456 -1796,738 -2790,794 -80,4 -158,6 -234,6zm2199 -6316c-154,0 -306,23 -450,70 -423,139 -687,465 -743,918 -98,796 -340,1365 -762,1791 -375,378 -856,615 -1510,874 -481,190 -609,671 -523,1063 121,546 715,1158 1994,1085 1907,-107 3590,-1063 4093,-2323 372,-932 72,-1951 -865,-2947 -320,-339 -785,-531 -1234,-531z"/>
    <path class="fil5" d="M7998 2958c-614,-652 -1623,-787 -2268,-379l0 5914c2724,-643 4676,-2977 2268,-5535z"/>
    <path class="fil6" d="M8183 2783c-568,-603 -1457,-843 -2212,-596 -85,28 -165,62 -241,100l0 610c110,-98 243,-175 399,-226 144,-47 296,-70 450,-70 449,0 914,192 1234,531 937,996 1237,2015 865,2947 -399,1000 -1541,1808 -2948,2152l0 522c600,-136 1173,-352 1674,-636 852,-481 1456,-1121 1747,-1849 314,-787 401,-2031 -968,-3485z"/>
    <path class="fil7" d="M7448 4351c0,356 -289,645 -645,645 -356,0 -645,-289 -645,-645 0,-356 289,-645 645,-645 356,0 645,289 645,645z"/>
   </g>
  </g>
 </g>
</svg>
