<?xml version="1.0" encoding="UTF-8"?>
<!DOCTYPE svg PUBLIC "-//W3C//DTD SVG 1.1//EN" "http://www.w3.org/Graphics/SVG/1.1/DTD/svg11.dtd">
<!-- Creator: CorelDRAW X7 -->
<svg xmlns="http://www.w3.org/2000/svg" xml:space="preserve" width="14.7581mm" height="14.7581mm" version="1.1" style="shape-rendering:geometricPrecision; text-rendering:geometricPrecision; image-rendering:optimizeQuality; fill-rule:evenodd; clip-rule:evenodd"
viewBox="0 0 6710 6710"
 xmlns:xlink="http://www.w3.org/1999/xlink">
 <defs>
  <style type="text/css">
   <![CDATA[
    .fil0 {fill:white}
    .fil3 {fill:#FEFEFE;fill-rule:nonzero}
    .fil6 {fill:#FFC831;fill-rule:nonzero}
    .fil5 {fill:#F8AEA2;fill-rule:nonzero}
    .fil1 {fill:#EF465B;fill-rule:nonzero}
    .fil7 {fill:#EAA43E;fill-rule:nonzero}
    .fil4 {fill:#D2D3D4;fill-rule:nonzero}
    .fil2 {fill:#963133;fill-rule:nonzero}
   ]]>
  </style>
 </defs>
 <g id="Camada_x0020_1">
  <metadata id="CorelCorpID_0Corel-Layer"/>
  <g id="_1045928592">
   <circle class="fil0" cx="3355" cy="3355" r="3355"/>
   <g>
    <path class="fil1" d="M3355 418c1622,0 2936,1315 2936,2937 0,1622 -1314,2936 -2936,2936 -1622,0 -2937,-1314 -2937,-2936 0,-1622 1315,-2937 2937,-2937z"/>
    <path class="fil2" d="M2964 5037l1117 1164c1271,-324 2210,-1475 2210,-2846 0,-137 -9,-272 -27,-404l-1278 -1277 -33 49 -497 0 -30 -29 -18 29 -106 0 0 172 -295 481 300 299 -443 652 -282 -283 -1047 166 781 805 0 119 -9 13 9 10 0 869 -352 11z"/>
    <path class="fil3" d="M4561 2325c0,667 -540,1207 -1206,1207 -666,0 -1206,-540 -1206,-1207l2412 0z"/>
    <path class="fil4" d="M4561 2325l-1200 0 0 1207c664,-4 1200,-543 1200,-1207z"/>
    <polygon class="fil5" points="3725,3051 3637,3006 4303,1674 4986,1674 4986,1773 4364,1773 "/>
    <path class="fil6" d="M4492 2727l-2275 0c157,445 568,770 1059,802l0 1371 -261 0c-43,0 -78,35 -78,78l0 0c0,43 35,78 78,78l679 0c44,0 79,-35 79,-78 0,-43 -35,-78 -79,-78l-261 0 0 -1371c491,-32 902,-357 1059,-802z"/>
    <path class="fil7" d="M4492 2727l-1131 0 0 2329 333 0c43,0 79,-35 79,-78 0,-43 -36,-78 -79,-78l-261 0 0 -1371c491,-32 902,-357 1059,-802z"/>
   </g>
  </g>
 </g>
</svg>
