<?xml version="1.0" encoding="UTF-8"?>
<!DOCTYPE svg PUBLIC "-//W3C//DTD SVG 1.1//EN" "http://www.w3.org/Graphics/SVG/1.1/DTD/svg11.dtd">
<!-- Creator: CorelDRAW X7 -->
<svg xmlns="http://www.w3.org/2000/svg" xml:space="preserve" width="16.8809mm" height="16.8809mm" version="1.1" style="shape-rendering:geometricPrecision; text-rendering:geometricPrecision; image-rendering:optimizeQuality; fill-rule:evenodd; clip-rule:evenodd"
viewBox="0 0 8494 8494"
 xmlns:xlink="http://www.w3.org/1999/xlink">
 <defs>
  <style type="text/css">
   <![CDATA[
    .fil0 {fill:white}
    .fil2 {fill:white;fill-rule:nonzero}
    .fil3 {fill:black;fill-opacity:0.368627}
    .fil1 {fill:url(#id0)}
   ]]>
  </style>
  <linearGradient id="id0" gradientUnits="userSpaceOnUse" x1="6392.57" y1="2101.32" x2="2101.27" y2="6392.62">
   <stop offset="0" style="stop-opacity:1; stop-color:#FFB800"/>
   <stop offset="1" style="stop-opacity:1; stop-color:#FF6600"/>
  </linearGradient>
 </defs>
 <g id="Camada_x0020_1">
  <metadata id="CorelCorpID_0Corel-Layer"/>
  <g id="_938771520">
   <circle class="fil0" cx="4247" cy="4247" r="4247"/>
   <circle class="fil1" cx="4247" cy="4247" r="3576"/>
   <g>
    <g>
     <path class="fil2" d="M5138 4630c246,-246 369,-569 369,-891 0,-323 -123,-645 -369,-892 -246,-246 -569,-369 -891,-369 -323,0 -645,123 -891,369 -246,247 -369,569 -369,892 0,322 123,645 369,891 246,246 568,369 891,369 322,0 645,-123 891,-369zm-600 1182l448 448 -590 589 -1630 -1630c-409,-408 -613,-944 -613,-1480 0,-536 204,-1072 613,-1481 409,-409 945,-614 1481,-614 536,0 1072,205 1481,614 409,409 613,945 613,1481 0,536 -204,1072 -613,1480 -335,335 -754,533 -1190,593z"/>
    </g>
    <path class="fil3" d="M4257 3009c-402,0 -727,326 -727,727 0,402 325,728 727,728 402,0 727,-326 727,-728 0,-401 -325,-727 -727,-727z"/>
    <circle class="fil0" cx="4722" cy="3301" r="330"/>
   </g>
  </g>
 </g>
</svg>
