<?xml version="1.0" encoding="UTF-8"?>
<!DOCTYPE svg PUBLIC "-//W3C//DTD SVG 1.1//EN" "http://www.w3.org/Graphics/SVG/1.1/DTD/svg11.dtd">
<!-- Creator: CorelDRAW X7 -->
<svg xmlns="http://www.w3.org/2000/svg" xml:space="preserve" width="42.9565mm" height="8.2961mm" version="1.1" style="shape-rendering:geometricPrecision; text-rendering:geometricPrecision; image-rendering:optimizeQuality; fill-rule:evenodd; clip-rule:evenodd"
viewBox="0 0 68191 13170"
 xmlns:xlink="http://www.w3.org/1999/xlink">
 <defs>
  <style type="text/css">
   <![CDATA[
    .fil1 {fill:white}
    .fil2 {fill:#FEFEFE;fill-rule:nonzero}
    .fil0 {fill:white;fill-rule:nonzero}
   ]]>
  </style>
 </defs>
 <g id="Camada_x0020_1">
  <metadata id="CorelCorpID_0Corel-Layer"/>
  <g id="_937739248">
   <path class="fil0" d="M7450 7630c615,-614 922,-1419 922,-2224 0,-805 -307,-1610 -922,-2224 -614,-614 -1419,-922 -2224,-922 -805,0 -1610,308 -2224,922 -614,614 -921,1419 -921,2224 0,805 307,1610 921,2224 614,614 1419,921 2224,921 805,0 1610,-307 2224,-921zm-1496 2952l1116 1116 -1471 1472 -4068 -4069c-1021,-1020 -1531,-2358 -1531,-3695 0,-1338 510,-2675 1531,-3696 1020,-1020 2358,-1530 3695,-1530 1338,0 2675,510 3696,1530 1020,1021 1531,2358 1531,3696 0,1337 -511,2675 -1531,3695 -835,835 -1882,1329 -2968,1481z"/>
   <g>
    <path class="fil1" d="M40942 3398c2032,0 3680,1648 3680,3680 0,2032 -1648,3680 -3680,3680 -2033,0 -3680,-1648 -3680,-3680 0,-2032 1647,-3680 3680,-3680zm0 1667c1111,0 2012,901 2012,2013 0,1111 -901,2013 -2012,2013 -1112,0 -2013,-902 -2013,-2013 0,-1112 901,-2013 2013,-2013z"/>
    <polygon class="fil2" points="38935,7078 38935,12433 37262,12433 37262,7078 "/>
   </g>
   <path class="fil0" d="M45484 7213c0,-535 92,-1033 275,-1493 183,-458 443,-859 777,-1202 716,-730 1652,-1094 2807,-1094 976,0 1760,324 2352,970 582,624 873,1408 873,2352 0,361 -28,610 -82,741 -460,129 -1392,193 -2800,193l-2420 0c119,490 396,873 831,1145 436,272 1002,409 1699,409 730,0 1354,-130 1878,-392 138,-68 239,-132 309,-193 -9,193 -21,390 -35,592l-75 1072c-350,240 -913,404 -1692,496 -228,28 -449,42 -660,42 -1164,0 -2126,-341 -2889,-1019 -765,-683 -1148,-1556 -1148,-2619zm5253 -866c-188,-986 -723,-1479 -1608,-1479 -697,0 -1227,300 -1589,901 -110,183 -194,385 -253,606 110,4 244,9 406,14l507 0c171,5 333,7 488,7l392 0c235,0 465,-2 688,-7l565 -21c151,-5 287,-12 404,-21z"/>
   <path class="fil0" d="M53249 7213c0,-535 91,-1033 274,-1493 183,-458 444,-859 777,-1202 716,-730 1652,-1094 2807,-1094 977,0 1761,324 2352,970 582,624 873,1408 873,2352 0,361 -28,610 -82,741 -460,129 -1392,193 -2800,193l-2420 0c120,490 397,873 831,1145 437,272 1002,409 1699,409 730,0 1355,-130 1878,-392 139,-68 239,-132 310,-193 -9,193 -21,390 -35,592l-75 1072c-350,240 -914,404 -1693,496 -227,28 -448,42 -659,42 -1164,0 -2127,-341 -2890,-1019 -765,-683 -1147,-1556 -1147,-2619zm5253 -866c-188,-986 -723,-1479 -1608,-1479 -697,0 -1228,300 -1589,901 -111,183 -195,385 -254,606 111,4 244,9 406,14l507 0c172,5 334,7 489,7l391 0c235,0 465,-2 688,-7l566 -21c150,-5 286,-12 404,-21z"/>
   <path class="fil0" d="M62614 9839c0,394 16,697 49,908l-1732 0 0 -3761 0 -6073 1683 0 0 6025 3143 -3377 2042 0 -2709 2854 1547 2112c335,531 587,920 758,1169l453 638c139,179 251,317 343,413l-1087 0c-401,0 -749,36 -1037,104l-2146 -3136 -1307 1389 0 735z"/>
   <path class="fil1" d="M12332 10102c-404,-486 -606,-1155 -606,-2002l0 -2730c0,-918 -19,-1443 -59,-1577 -37,-136 -65,-223 -84,-258 211,18 429,26 659,26l571 0c152,0 352,-5 598,-19l0 3981c0,943 256,1492 770,1643 157,47 326,68 509,68 540,0 977,-198 1308,-592l0 -5081 1704 0 0 6306c0,404 19,697 56,880 -1480,0 -4500,446 -5426,-645z"/>
   <path class="fil0" d="M19209 1512c366,-573 749,-1078 1148,-1512l1478 1162c-197,244 -380,481 -549,716 0,0 -178,249 -530,748l-1547 -1114zm1807 8466c0,394 10,650 28,769l-1746 0 0 -7186 1718 0 0 6417z"/>
   <path class="fil0" d="M28107 10081c-514,514 -1317,770 -2413,770 -1063,0 -1932,-324 -2605,-970 -683,-655 -1026,-1528 -1026,-2612 0,-1105 338,-2014 1012,-2725 713,-746 1671,-1120 2866,-1120 849,0 1558,186 2133,557l-277 1760 -47 -7c-220,-265 -450,-439 -695,-521 -394,-139 -788,-207 -1183,-207 -394,0 -704,50 -927,151 -225,101 -417,241 -579,420 -320,366 -481,852 -481,1457 0,1073 373,1775 1114,2103 256,111 529,167 815,167 286,0 537,-26 751,-75 211,-52 406,-120 580,-207 370,-185 624,-396 755,-640l50 21 157 1678z"/>
   <path class="fil0" d="M30865 9839c0,394 16,697 49,908l-1732 0 0 -9834 1683 0 0 6025 3143 -3377 2042 0 -2709 2854 1547 2112c336,531 587,920 758,1169l453 638c139,179 251,317 343,413l-1087 0c-401,0 -749,36 -1037,104l-2146 -3136 -1307 1389 0 735z"/>
  </g>
 </g>
</svg>
