<?xml version="1.0" encoding="UTF-8"?>
<!DOCTYPE svg PUBLIC "-//W3C//DTD SVG 1.1//EN" "http://www.w3.org/Graphics/SVG/1.1/DTD/svg11.dtd">
<!-- Creator: CorelDRAW X7 -->
<svg xmlns="http://www.w3.org/2000/svg" xml:space="preserve" width="30.418mm" height="30.418mm" version="1.1" style="shape-rendering:geometricPrecision; text-rendering:geometricPrecision; image-rendering:optimizeQuality; fill-rule:evenodd; clip-rule:evenodd"
viewBox="0 0 27074 27074"
 xmlns:xlink="http://www.w3.org/1999/xlink">
 <defs>
  <style type="text/css">
   <![CDATA[
    .fil0 {fill:#FBFBFB}
    .fil3 {fill:#363435;fill-rule:nonzero}
    .fil1 {fill:#FFB800;fill-rule:nonzero}
    .fil2 {fill:#ECECEC;fill-rule:nonzero}
   ]]>
  </style>
 </defs>
 <g id="Camada_x0020_1">
  <metadata id="CorelCorpID_0Corel-Layer"/>
  <g id="_854743856">
   <circle class="fil0" cx="13537" cy="13537" r="13537"/>
   <g>
    <path class="fil1" d="M13652 17318c0,-1208 979,-2187 2186,-2187 259,0 507,46 738,128 840,-1550 1475,-3065 1475,-4101 0,-3062 -2483,-5544 -5545,-5544 -3062,0 -5544,2482 -5544,5544 0,3062 5544,10302 5544,10302 0,0 819,-1069 1826,-2558 -418,-399 -680,-961 -680,-1584z"/>
    <path class="fil2" d="M16576 15259c-231,-82 -479,-128 -738,-128 -1207,0 -2186,979 -2186,2187 0,623 262,1185 680,1584 393,373 923,602 1506,602 1208,0 2186,-979 2186,-2186 0,-949 -604,-1756 -1448,-2059z"/>
    <path class="fil2" d="M15623 11158c0,1722 -1395,3117 -3117,3117 -1721,0 -3116,-1395 -3116,-3117 0,-1721 1395,-3116 3116,-3116 1722,0 3117,1395 3117,3116z"/>
    <path class="fil3" d="M15952 11158c0,-1900 -1546,-3445 -3446,-3445 -1900,0 -3445,1546 -3445,3445 0,1900 1545,3446 3445,3446 1900,0 3446,-1546 3446,-3446zm-3446 2788c-1537,0 -2788,-1250 -2788,-2788 0,-1537 1251,-2788 2788,-2788 1538,0 2788,1251 2788,2788 0,1538 -1250,2788 -2788,2788z"/>
    <path class="fil3" d="M9581 8247c78,0 157,-28 220,-85 742,-671 1703,-1041 2705,-1041 560,0 1102,113 1611,334 167,73 361,-3 433,-170 73,-166 -4,-360 -170,-432 -592,-258 -1223,-389 -1874,-389 -1165,0 -2282,429 -3146,1210 -135,122 -145,330 -24,464 65,72 155,109 245,109z"/>
    <path class="fil3" d="M8791 8840c-161,-84 -359,-22 -444,139 -350,667 -535,1421 -535,2179 0,182 147,329 328,329 182,0 329,-147 329,-329 0,-652 159,-1300 460,-1874 85,-160 23,-359 -138,-444z"/>
    <path class="fil3" d="M20344 21227l-2456 -2456c293,-410 465,-912 465,-1453 0,-956 -535,-1788 -1322,-2214 895,-1704 1348,-3030 1348,-3946 0,-3238 -2634,-5873 -5873,-5873 -3238,0 -5873,2635 -5873,5873 0,3138 5383,10203 5612,10502 62,81 159,129 261,129 103,0 199,-48 261,-129 8,-10 728,-952 1637,-2279 407,284 901,451 1434,451 609,0 1168,-217 1603,-578l2439 2438c64,65 148,97 232,97 84,0 168,-32 232,-97 129,-128 129,-336 0,-465zm-7838 -315c-465,-628 -1486,-2036 -2497,-3634 -1778,-2815 -2718,-4931 -2718,-6120 0,-2876 2339,-5215 5215,-5215 2876,0 5216,2339 5216,5215 0,821 -441,2069 -1310,3711 -185,-43 -377,-66 -574,-66 -1387,0 -2515,1128 -2515,2515 0,615 222,1178 590,1616 -594,870 -1111,1580 -1407,1978zm3332 -1737c-1024,0 -1857,-833 -1857,-1857 0,-1025 833,-1858 1857,-1858 1024,0 1858,833 1858,1858 0,1024 -834,1857 -1858,1857z"/>
   </g>
  </g>
 </g>
</svg>
