<?xml version="1.0" encoding="UTF-8"?>
<!DOCTYPE svg PUBLIC "-//W3C//DTD SVG 1.1//EN" "http://www.w3.org/Graphics/SVG/1.1/DTD/svg11.dtd">
<!-- Creator: CorelDRAW X7 -->
<svg xmlns="http://www.w3.org/2000/svg" xml:space="preserve" width="30.418mm" height="30.418mm" version="1.1" style="shape-rendering:geometricPrecision; text-rendering:geometricPrecision; image-rendering:optimizeQuality; fill-rule:evenodd; clip-rule:evenodd"
viewBox="0 0 35245 35245"
 xmlns:xlink="http://www.w3.org/1999/xlink">
 <defs>
  <style type="text/css">
   <![CDATA[
    .fil6 {fill:#363435}
    .fil0 {fill:#FBFBFB}
    .fil5 {fill:#373435;fill-rule:nonzero}
    .fil2 {fill:#FFD176;fill-rule:nonzero}
    .fil1 {fill:#F9BAAA;fill-rule:nonzero}
    .fil3 {fill:#EDF1F1;fill-rule:nonzero}
    .fil4 {fill:#363435;fill-rule:nonzero}
   ]]>
  </style>
 </defs>
 <g id="Camada_x0020_1">
  <metadata id="CorelCorpID_0Corel-Layer"/>
  <g id="_938341552">
   <circle class="fil0" cx="17622" cy="17622" r="17622"/>
   <path class="fil1" d="M14923 19214l7063 0c1019,0 1846,826 1846,1845l0 3198c0,1020 -827,1846 -1846,1846l-4076 0 -2917 1815 0 -1815 -70 0c-1019,0 -1846,-826 -1846,-1845l0 -3199c0,-1019 827,-1845 1846,-1845z"/>
   <path class="fil2" d="M17457 14195l7683 0c1109,0 2008,899 2008,2007l0 3479c0,1109 -899,2008 -2008,2008l-4433 0 -3174 2504 0 -2504 -76 0c-1109,0 -2007,-899 -2007,-2008l0 -3479c0,-1108 898,-2007 2007,-2007z"/>
   <path class="fil3" d="M19976 7327l-9418 0c-1359,0 -2461,1102 -2461,2461l0 4264c0,1359 1102,2461 2461,2461l5435 0 3889 3070 0 -3070 94 0c1359,0 2461,-1102 2461,-2461l0 -4264c0,-1359 -1102,-2461 -2461,-2461z"/>
   <path class="fil4" d="M10756 10561l2270 0c248,0 448,-201 448,-448 0,-248 -200,-448 -448,-448l-2270 0c-248,0 -448,200 -448,448 0,247 200,448 448,448z"/>
   <path class="fil4" d="M10756 12353l1882 0c247,0 448,-200 448,-448 0,-247 -201,-448 -448,-448l-1882 0c-248,0 -448,201 -448,448 0,248 200,448 448,448z"/>
   <path class="fil4" d="M14250 12353l2756 0c248,0 449,-200 449,-448 0,-247 -201,-448 -449,-448l-2756 0c-248,0 -448,201 -448,448 0,248 200,448 448,448z"/>
   <path class="fil4" d="M17455 13698c0,-248 -201,-449 -449,-449l-6250 0c-248,0 -448,201 -448,449 0,247 200,448 448,448l6250 0c248,0 449,-201 449,-448z"/>
   <path class="fil4" d="M14834 10561l1400 0c247,0 447,-201 447,-448 0,-248 -200,-448 -447,-448l-1400 0c-248,0 -448,200 -448,448 0,247 200,448 448,448z"/>
   <path class="fil4" d="M24558 17327l-3025 0c-248,0 -448,201 -448,448 0,248 200,448 448,448l3025 0c247,0 448,-200 448,-448 0,-247 -201,-448 -448,-448z"/>
   <path class="fil4" d="M24558 19150l-1972 0c-247,0 -448,200 -448,448 0,247 201,448 448,448l1972 0c247,0 448,-201 448,-448 0,-248 -201,-448 -448,-448z"/>
   <path class="fil4" d="M26700 19681c0,860 -700,1560 -1560,1560l-4433 0c-101,0 -199,34 -278,96l-2447 1932 0 -1580c0,-248 -201,-448 -449,-448l-76 0c-860,0 -1559,-700 -1559,-1560l0 -2672 3707 2926c80,63 178,96 277,96 67,0 134,-15 196,-45 154,-75 253,-232 253,-403l0 -2643c1241,-152 2242,-1088 2493,-2297l2316 0c860,0 1560,699 1560,1559l0 3479zm896 16l0 -3511c-9,-1346 -1107,-2439 -2456,-2439l-2255 0 0 -3959c0,-1604 -1305,-2909 -2909,-2909l-9418 0c-1604,0 -2909,1305 -2909,2909l0 4264c0,1604 1305,2909 2909,2909l4444 0 0 1805 -79 0c-1265,0 -2294,1029 -2294,2293l0 3199c0,1136 830,2081 1916,2262l0 1398c0,162 88,312 230,391 68,38 143,57 218,57 82,0 164,-23 237,-68l2808 -1747 3948 0c1265,0 2294,-1029 2294,-2294l0 -2120 860 0c1349,0 2447,-1093 2456,-2440zm-4212 4560c0,771 -627,1398 -1398,1398l-4076 0c-83,0 -165,23 -236,68l-2233 1388 0 -1008c0,-247 -201,-448 -448,-448l-70 0c-771,0 -1398,-627 -1398,-1398l0 -3198c0,-770 627,-1397 1398,-1397l79 0 0 19c0,1228 905,2248 2083,2428l0 2084c0,172 98,328 253,403 62,30 129,45 195,45 99,0 197,-33 278,-96l3051 -2408 2522 0 0 2120 0 0zm-14839 -10205l0 -4264c0,-1110 903,-2013 2013,-2013l9418 0c1110,0 2013,903 2013,2013l0 4264c0,1110 -903,2013 -2013,2013l-94 0c-247,0 -448,201 -448,448l0 2145 -3164 -2497c-79,-62 -177,-96 -277,-96l-5435 0c-1110,0 -2013,-903 -2013,-2013z"/>
   <path class="fil5" d="M18341 10715c-28,233 -240,399 -473,371 -233,-29 -399,-241 -370,-474 11,-89 22,-178 49,-291 30,-122 74,-242 148,-357 76,-118 180,-225 304,-314 114,-81 248,-147 392,-191 135,-40 286,-61 437,-64 153,-2 305,15 442,49l22 6c142,38 273,94 386,170l23 16c118,83 216,186 290,309 75,124 121,263 142,406 20,138 17,286 -5,429 -21,137 -60,267 -113,387 -54,122 -124,239 -209,344 -8,10 -17,21 -26,30 -116,139 -239,242 -348,335l-24 18 -62 54 0 0 0 1c-47,42 -84,78 -108,107 -16,18 -26,31 -28,36l-1 1 1 1 -2 15 -4 25c-1,20 -2,43 -2,67 -3,233 -196,420 -430,416 -234,-3 -420,-196 -417,-430 1,-44 2,-89 6,-138 1,-14 2,-28 3,-43 10,-81 31,-167 72,-258l1 1c38,-86 89,-165 153,-241 57,-67 121,-131 195,-196l1 1 76 -65 22 -20c84,-71 179,-151 243,-225l15 -20c39,-48 71,-102 96,-158 26,-59 44,-118 53,-175 9,-58 10,-119 2,-176 -6,-38 -15,-71 -29,-94 -10,-17 -26,-33 -46,-47l-8 -6c-36,-23 -80,-42 -132,-56l-14 -3c-70,-18 -148,-27 -223,-26l-2 0c-69,1 -140,11 -205,31 -55,16 -104,40 -143,68 -36,25 -64,53 -82,81 -17,28 -29,62 -38,98 -11,45 -21,120 -30,195z"/>
   <circle class="fil6" cx="18692" cy="13745" r="502"/>
  </g>
 </g>
</svg>
