<?xml version="1.0" encoding="UTF-8"?>
<!DOCTYPE svg PUBLIC "-//W3C//DTD SVG 1.1//EN" "http://www.w3.org/Graphics/SVG/1.1/DTD/svg11.dtd">
<!-- Creator: CorelDRAW X7 -->
<svg xmlns="http://www.w3.org/2000/svg" xml:space="preserve" width="30.4181mm" height="30.418mm" version="1.1" style="shape-rendering:geometricPrecision; text-rendering:geometricPrecision; image-rendering:optimizeQuality; fill-rule:evenodd; clip-rule:evenodd"
viewBox="0 0 50319 50319"
 xmlns:xlink="http://www.w3.org/1999/xlink">
 <defs>
  <style type="text/css">
   <![CDATA[
    .fil7 {fill:#363435}
    .fil0 {fill:#FBFBFB}
    .fil3 {fill:#FEFEFE;fill-rule:nonzero}
    .fil1 {fill:#F68F3E;fill-rule:nonzero}
    .fil2 {fill:#F26F45;fill-rule:nonzero}
    .fil6 {fill:#363435;fill-rule:nonzero}
    .fil5 {fill:#999999;fill-rule:nonzero}
    .fil4 {fill:#B3B3B3;fill-rule:nonzero}
   ]]>
  </style>
 </defs>
 <g id="Camada_x0020_1">
  <metadata id="CorelCorpID_0Corel-Layer"/>
  <g id="_938346928">
   <circle class="fil0" cx="25160" cy="25160" r="25160"/>
   <polygon class="fil1" points="10564,14697 10564,35106 14697,35106 14697,40014 19735,35106 28647,35106 28647,14697 "/>
   <polygon class="fil2" points="10564,14697 10564,35106 14697,35106 14697,40014 19735,35106 19864,35106 19864,14697 "/>
   <path class="fil3" d="M25031 18346l-10851 0c-267,0 -484,217 -484,484l0 1550c0,268 217,485 484,485l10851 0c267,0 484,-217 484,-485l0 -1550c0,-267 -217,-484 -484,-484z"/>
   <path class="fil3" d="M25031 23513l-10851 0c-267,0 -484,217 -484,484l0 1550c0,268 217,484 484,484l10851 0c267,0 484,-216 484,-484l0 -1550c0,-267 -217,-484 -484,-484z"/>
   <path class="fil3" d="M25031 28679l-10851 0c-267,0 -484,217 -484,485l0 1550c0,267 217,484 484,484l10851 0c267,0 484,-217 484,-484l0 -1550c0,-268 -217,-485 -484,-485z"/>
   <path class="fil4" d="M39756 20251c0,-5493 -4800,-9946 -10721,-9946 -5921,0 -10721,4453 -10721,9946 0,5493 4800,9946 10721,9946 975,0 1920,-121 2818,-348l5061 1898 -1688 -3375c2741,-1802 4530,-4768 4530,-8121z"/>
   <path class="fil5" d="M29035 30197l0 -19892c-5921,0 -10721,4453 -10721,9946 0,5493 4800,9946 10721,9946z"/>
   <path class="fil3" d="M37818 20736c-267,0 -484,-217 -484,-485 0,-1141 -276,-2238 -821,-3259 -125,-236 -36,-530 200,-656 236,-126 530,-36 655,200 620,1164 935,2414 935,3715 0,268 -217,485 -485,485z"/>
   <path class="fil3" d="M35364 15188c-120,0 -240,-44 -333,-133 -1584,-1501 -3713,-2328 -5996,-2328 -268,0 -485,-217 -485,-484 0,-268 217,-485 485,-485 2532,0 4898,922 6662,2594 194,184 202,491 18,685 -95,100 -223,151 -351,151z"/>
   <path class="fil6" d="M32023 29396c-92,-35 -193,-40 -289,-17 -877,222 -1785,334 -2699,334 -112,0 -230,-2 -372,-7l0 0 0 0c-1196,-39 -2361,-268 -3463,-680 -244,-91 -487,-193 -725,-302 -1687,-778 -3109,-1969 -4114,-3448 0,0 0,0 -1,0 0,0 0,-1 0,-1 0,0 0,0 0,0 -316,-465 -589,-958 -813,-1466 0,0 0,-1 0,-1 0,-2 -1,-3 -2,-5 0,0 0,0 0,-1 -478,-1089 -729,-2243 -745,-3428 0,0 0,0 0,0l0 0 -1 -45c0,-26 -1,-52 -1,-78 0,-447 35,-900 104,-1347l0 0c218,-1415 767,-2735 1630,-3922 1908,-2625 5087,-4192 8503,-4192 5644,0 10236,4244 10236,9461 0,3057 -1611,5941 -4311,7716 -205,135 -277,402 -167,621l1136 2272 -3906 -1464zm-7854 252c125,56 251,110 377,162l0 419 -9881 0 0 -581 9504 0zm-6333 -9752l-3171 0 0 -581 3211 0c-18,194 -32,387 -40,581zm955 4585c94,197 194,391 301,582l-4427 0 0 -582 4126 0zm944 10140c-127,0 -248,49 -338,137l-4216 4108 0 -3760c0,-268 -216,-485 -484,-485l-3649 0 0 -19440 8193 0c-587,984 -1002,2060 -1223,3165l-3838 0c-267,0 -484,217 -484,484l0 1550c0,268 217,485 484,485l3669 0c57,906 237,1792 540,2648l-4209 0c-267,0 -484,217 -484,484l0 1550c0,268 217,484 484,484l5528 0c737,1029 1660,1925 2724,2648l-8252 0c-267,0 -484,217 -484,485l0 1550c0,267 217,484 484,484l10851 0c267,0 484,-217 484,-484l0 -558c856,263 1743,429 2648,493l0 3972 -8428 0zm16113 -6088c2758,-1970 4392,-5035 4392,-8282 0,-5751 -5027,-10430 -11205,-10430 -3638,0 -7033,1638 -9137,4392l-9334 0c-268,0 -485,216 -485,484l0 20409c0,267 217,484 485,484l3649 0 0 4424c0,195 116,370 296,446 61,26 125,38 188,38 124,0 246,-47 338,-137l4897 -4771 8715 0c268,0 485,-217 485,-484l0 -4426c910,-7 1814,-116 2691,-325l4921 1846c55,20 113,30 170,30 135,0 266,-56 360,-160 133,-148 162,-362 73,-540l-1499 -2998z"/>
   <path class="fil7" d="M29035 20880l6520 0c-3608,-2083 -9570,-2004 -13041,0 2174,0 4347,0 6521,0zm-2552 750c879,0 1626,564 1899,1349 185,-128 410,-203 653,-203 242,0 467,75 652,203 274,-785 1021,-1349 1900,-1349 1110,0 2010,900 2010,2010 0,1110 -900,2010 -2010,2010 -1111,0 -2011,-900 -2011,-2010 0,-46 2,-91 5,-136 -126,-164 -324,-270 -546,-270 -223,0 -421,106 -546,270 2,45 4,90 4,136 0,1110 -900,2010 -2010,2010 -1110,0 -2010,-900 -2010,-2010 0,-1110 900,-2010 2010,-2010zm1406 2010c0,-777 -630,-1406 -1406,-1406 -777,0 -1406,629 -1406,1406 0,777 629,1406 1406,1406 776,0 1406,-629 1406,-1406zm1146 -5343l3687 0 -1104 -3417 -3333 500 -1833 -500 -1104 3417 3687 0zm1145 5343c0,-777 630,-1406 1407,-1406 776,0 1406,629 1406,1406 0,777 -630,1406 -1406,1406 -777,0 -1407,-629 -1407,-1406z"/>
  </g>
 </g>
</svg>
