<?xml version="1.0" encoding="UTF-8"?>
<!DOCTYPE svg PUBLIC "-//W3C//DTD SVG 1.1//EN" "http://www.w3.org/Graphics/SVG/1.1/DTD/svg11.dtd">
<!-- Creator: CorelDRAW X7 -->
<svg xmlns="http://www.w3.org/2000/svg" xml:space="preserve" width="30.418mm" height="30.418mm" version="1.1" style="shape-rendering:geometricPrecision; text-rendering:geometricPrecision; image-rendering:optimizeQuality; fill-rule:evenodd; clip-rule:evenodd"
viewBox="0 0 97795 97795"
 xmlns:xlink="http://www.w3.org/1999/xlink">
 <defs>
  <style type="text/css">
   <![CDATA[
    .fil0 {fill:#FBFBFB}
    .fil3 {fill:#FFD176;fill-rule:nonzero}
    .fil1 {fill:#5FC7D4;fill-rule:nonzero}
    .fil2 {fill:#363435;fill-rule:nonzero}
   ]]>
  </style>
 </defs>
 <g id="Camada_x0020_1">
  <metadata id="CorelCorpID_0Corel-Layer"/>
  <g id="_938047104">
   <circle class="fil0" cx="48898" cy="48897" r="48898"/>
   <path class="fil1" d="M32580 38685c3318,0 6016,-2699 6016,-6017 0,-3317 -2698,-6016 -6016,-6016 -3317,0 -6016,2698 -6016,6016 0,3318 2699,6017 6016,6017z"/>
   <path class="fil2" d="M32580 37613c1363,0 2599,-555 3494,-1450l51 -47c864,-891 1398,-2108 1398,-3448 0,-1364 -554,-2601 -1447,-3496l-2 2c-895,-895 -2131,-1450 -3494,-1450 -1364,0 -2601,554 -3496,1448l2 2c-895,894 -1450,2131 -1450,3494 0,1363 555,2600 1450,3495 895,895 2131,1450 3494,1450zm5010 66c-1283,1283 -3056,2079 -5010,2079 -1954,0 -3726,-796 -5010,-2079 -1283,-1283 -2079,-3057 -2079,-5011 0,-1954 796,-3727 2079,-5010l2 2 2 -2c1284,-1283 3055,-2079 5006,-2079 1954,0 3727,796 5010,2079l-2 2 2 2c1282,1284 2078,3055 2078,5006 0,1922 -771,3670 -2020,4948l-58 63z"/>
   <path class="fil1" d="M46325 32172c-650,0 -1270,246 -1744,692l-2326 2189c-459,432 -1319,1122 -1839,1476l-4680 3180 -7007 0c-1184,0 -1798,348 -2283,955 -1556,1945 -3325,4082 -4799,6092l-2067 2818c-1233,1682 -22,4052 2052,4052 809,0 1577,-389 2055,-1041l2100 -2864 -436 4881 -3574 16973c-352,1672 931,3238 2629,3238 1261,0 2365,-896 2625,-2132l3344 -15884 872 0 477 5361c57,645 86,1776 62,2423l-282 7446c-57,1521 1163,2786 2684,2786 1449,0 2627,-1135 2681,-2583l282 -7446c33,-871 -2,-2233 -79,-3102l-715 -8017c-1,-22 -6,-43 -8,-64l777 -8680 6152 -4181c1717,-1167 3285,-2749 4793,-4168 1680,-1581 540,-4400 -1746,-4400z"/>
   <path class="fil2" d="M46325 33244c-196,0 -381,35 -544,99 -167,66 -326,168 -467,300l-2326 2189c-247,233 -601,534 -959,822 -346,277 -715,555 -1014,758l-4680 3181c-184,124 -393,184 -599,184l0 4 -7007 0c-436,0 -744,54 -965,152l1 2c-193,87 -347,222 -486,395 -704,881 -909,1134 -1086,1354 -1249,1548 -2557,3169 -3684,4704l-2066 2818c-197,269 -286,568 -286,860 0,239 58,474 163,682 105,208 260,393 450,533 231,169 525,272 862,272 238,0 468,-56 670,-158 204,-103 385,-255 523,-442l2099 -2864c349,-476 1019,-580 1495,-231 332,243 483,641 426,1021l-431 4815c-3,43 -9,84 -18,125l2 1 -3574 16973c-22,106 -33,220 -33,339 0,381 135,737 361,1014 227,280 547,485 915,562l4 1 0 -1c100,21 213,32 335,32 380,0 736,-133 1013,-359 281,-228 487,-548 565,-918l3344 -15884c105,-505 551,-852 1047,-852l0 -3 871 0c593,0 1073,481 1073,1073l0 3 469 5266 0 1 4 -1c26,304 49,776 61,1277 12,467 13,936 1,1275l-282 7446 0 9 -1 56 4 0c0,435 171,831 450,1120 280,290 668,478 1098,493l9 1 56 1 0 -4c440,0 836,-170 1123,-446 289,-279 475,-667 490,-1102l282 -7446c16,-418 15,-957 2,-1492 -14,-538 -41,-1072 -77,-1480l-710 -7967 0 0 -9 -64c-13,-100 -13,-197 1,-293l771 -8620c30,-341 218,-631 483,-804l6135 -4169c1362,-926 2678,-2179 3941,-3382l714 -678 4 -4c319,-301 462,-678 462,-1046 0,-202 -37,-397 -106,-570 -70,-177 -176,-344 -312,-489 -251,-267 -616,-444 -1057,-444zm-1331 -1886c427,-170 878,-259 1331,-259 1076,0 1978,446 2615,1123 317,336 567,736 739,1168 173,435 266,898 266,1357 0,923 -352,1862 -1141,2604l-710 674c-1314,1252 -2684,2557 -4217,3599l-5733 3896 -722 8064 714 8006c40,457 70,1038 85,1613 14,582 15,1166 -2,1618l-282 7446c-37,1013 -470,1918 -1144,2568 -677,651 -1596,1050 -2605,1050l0 -5 -20 0 -78 -1 -42 -1c-1008,-37 -1914,-472 -2564,-1147 -652,-676 -1054,-1597 -1054,-2602l4 0 0 -20 2 -77 0 -43 282 -7445c11,-306 10,-729 -1,-1150 -9,-386 -31,-805 -61,-1143l4 -1 -101 -1134 -2481 11783c-182,866 -660,1613 -1310,2141 -654,531 -1482,845 -2362,845 -260,0 -522,-28 -779,-83l0 -1c-860,-182 -1607,-657 -2134,-1306 -531,-653 -847,-1480 -847,-2363 0,-246 27,-505 84,-775l3564 -16928 90 -1001c-314,365 -696,663 -1118,877 -503,254 -1064,393 -1634,393 -814,0 -1540,-262 -2126,-692 -465,-341 -840,-789 -1096,-1295 -257,-507 -398,-1072 -398,-1645 0,-722 219,-1462 706,-2124l2066 -2818c1152,-1571 2477,-3213 3742,-4780l1086 -1346c347,-433 744,-777 1273,-1015l1 2 4 -2c501,-225 1093,-346 1839,-346l6686 0 4402 -2992c221,-150 542,-394 871,-658 315,-253 623,-514 834,-713l2326 -2189c333,-313 723,-560 1146,-727z"/>
   <path class="fil3" d="M64953 36827c3317,0 6017,-2699 6017,-6017 0,-3317 -2699,-6017 -6017,-6017 -3317,0 -6015,2700 -6015,6017 0,3318 2698,6017 6015,6017z"/>
   <path class="fil2" d="M64953 35754c1363,0 2600,-554 3495,-1449l53 -49c863,-888 1397,-2105 1397,-3446 0,-1363 -555,-2599 -1450,-3494 -895,-895 -2132,-1450 -3495,-1450 -1365,0 -2601,553 -3493,1445 -894,896 -1449,2134 -1449,3499 0,1366 555,2604 1449,3499 892,892 2128,1445 3493,1445zm5011 66c-1284,1284 -3057,2080 -5011,2080 -1949,0 -3724,-797 -5009,-2083 -1283,-1284 -2078,-3055 -2078,-5007 0,-1951 796,-3722 2078,-5006 1286,-1286 3060,-2083 5009,-2083 1954,0 3728,796 5011,2079 1284,1283 2079,3056 2079,5010 0,1917 -770,3664 -2018,4944 -19,23 -39,44 -61,66z"/>
   <path class="fil3" d="M74108 50727c478,652 1246,1041 2055,1041 544,0 1064,-171 1504,-493 548,-403 907,-994 1010,-1666 104,-673 -60,-1345 -462,-1894l-2067 -2817c-471,-642 -1256,-1666 -1749,-2282l-3050 -3810c-485,-607 -1029,-955 -1989,-955l-7562 0 -4680 -3181c-559,-379 -1289,-957 -1568,-1220l-737 -694c-474,-445 -1094,-692 -1745,-692 -699,0 -1375,292 -1854,801 -466,496 -712,1142 -691,1822 21,680 305,1311 800,1778l737 692c503,474 1447,1216 2196,1725l6152 4181 777 8679c-3,22 -7,43 -9,64l-714 8017c-105,1176 143,2822 590,3915l2134 5220c414,1015 1390,1670 2486,1670 348,0 689,-67 1014,-200 664,-271 1183,-785 1460,-1446 277,-662 281,-1391 9,-2055l-2134 -5221c-124,-304 -241,-1079 -212,-1406l478 -5361 871 0 1273 6044c236,1118 932,2070 1909,2612 564,312 1207,477 1860,477 466,0 926,-82 1367,-243l2811 -1031c1389,-509 2106,-2054 1596,-3444 -386,-1053 -1399,-1761 -2520,-1761 -315,0 -626,56 -924,165l-1198 439 -1150 -5453 -472 -5280c122,162 235,314 331,445l2067 2818z"/>
   <g>
    <path class="fil2" d="M74971 50094c138,188 319,339 523,443 202,102 431,158 670,158 159,0 313,-24 455,-71l36 -11 -1684 -519zm-441 2353c-501,-254 -945,-625 -1285,-1088l-130 -178 125 1390 883 4196 38 -14c210,-78 425,-136 640,-174l1 3c231,-41 450,-62 652,-62 780,0 1527,249 2147,683 619,432 1109,1048 1379,1782 356,973 284,1999 -120,2870 -404,873 -1142,1593 -2113,1948l-2811 1031 -1 -2 -4 2c-284,104 -570,181 -854,232l0 -3c-305,54 -598,81 -877,81 -403,0 -817,-54 -1228,-159 -403,-103 -792,-258 -1151,-456 -626,-347 -1162,-825 -1576,-1392 -414,-566 -711,-1225 -861,-1936l-409 -1943 -94 1043 -4 91c-6,80 12,262 41,460l0 0 0 4c29,197 66,374 95,448l-3 1 2134 5220c189,462 283,950 281,1434 -3,494 -101,982 -291,1437 -192,456 -471,867 -819,1213 -350,346 -765,623 -1227,811l-1 -3c-236,96 -469,168 -693,212 -241,47 -484,71 -722,71 -762,0 -1486,-230 -2094,-639 -603,-405 -1090,-990 -1380,-1700l-2134 -5221c-260,-636 -459,-1408 -575,-2171 -114,-763 -152,-1557 -91,-2238l710 -7963 3 -54 -722 -8053 -5732 -3896c-422,-286 -868,-614 -1253,-917 -410,-321 -797,-648 -1077,-912l-737 -693c-349,-328 -627,-720 -821,-1151 -191,-426 -300,-890 -314,-1371l0 -4c-14,-462 59,-913 210,-1332l20 -59c166,-436 419,-842 750,-1194 341,-363 753,-650 1200,-842 449,-194 938,-298 1433,-298 454,0 906,89 1333,259 422,167 812,413 1145,726l737 694c115,108 358,308 648,534 290,225 579,442 786,582l4402 2991 7241 0c626,0 1142,119 1598,341l64 31c462,237 826,572 1161,990l3003 3752 47 54c252,315 577,732 897,1150 323,422 643,846 880,1170l2067 2817c283,386 485,821 597,1281 112,459 135,935 64,1404 -72,471 -239,920 -486,1327 -245,405 -567,759 -953,1043 -299,218 -624,389 -966,505l-45 16c-361,119 -741,181 -1124,181 -571,0 -1131,-139 -1634,-393zm2505 -2035c163,-119 295,-263 392,-422 94,-157 161,-340 191,-540 31,-204 23,-402 -21,-583 -44,-181 -127,-358 -245,-519l-2067 -2818c-233,-318 -545,-730 -855,-1136 -312,-406 -625,-809 -864,-1108l-47 -62 -3003 -3751c-151,-189 -302,-333 -473,-422l-33 -17c-158,-72 -366,-110 -650,-110l-7562 0c-262,0 -502,-94 -688,-250l-4591 -3120c-323,-219 -644,-455 -903,-657 -321,-249 -621,-501 -799,-668l-737 -693c-140,-132 -299,-234 -467,-300 -162,-65 -348,-99 -545,-99 -203,0 -404,43 -587,122 -184,79 -351,194 -488,339 -134,143 -238,310 -306,490l-15 37c-58,168 -86,348 -81,529 6,198 51,391 130,567 76,169 190,328 335,464l737 693c223,210 560,493 934,787 399,312 802,612 1128,833l6152 4181c276,188 437,483 464,792l1 0 777 8678c8,86 5,169 -7,251l3 1 -3 23 -8 44 -708 7947c-44,494 -10,1112 83,1736 94,628 245,1228 431,1684l2134 5221c124,303 334,555 594,729 257,172 569,270 904,270 109,0 214,-10 311,-28 113,-23 214,-52 301,-88l1 0 -1 -4c201,-81 379,-199 523,-342 145,-144 265,-322 350,-526 86,-206 131,-416 132,-616 0,-209 -40,-421 -122,-622l-2134 -5221 -1 -1 -4 1c-92,-229 -178,-592 -229,-938l-1 0c-51,-346 -78,-716 -56,-962l12 -97 469 -5264c48,-557 516,-977 1064,-976l0 -5 871 0c544,0 994,406 1064,931l1256 5968c85,407 256,784 492,1108 236,322 539,593 889,787 204,113 421,199 641,256 216,55 451,83 700,83 187,0 356,-13 505,-40l4 -1 -1 -3c172,-30 336,-74 490,-130l0 -2 2811 -1030c418,-152 735,-462 907,-835 174,-375 206,-818 54,-1235 -117,-318 -328,-585 -592,-769 -262,-183 -583,-289 -924,-289 -111,0 -205,8 -280,21l-4 1 0 3c-93,16 -184,41 -271,73l-1199 439c-554,204 -1170,-82 -1374,-637 -23,-65 -41,-131 -51,-197l-1139 -5406c-14,-63 -21,-125 -23,-187l-466 -5219c-51,-587 384,-1105 971,-1156 383,-33 736,140 950,427l1 0 331 446 4 5 0 -1 2067 2817 2064 318z"/>
   </g>
   <path class="fil2" d="M51906 28327c71,19 143,28 215,28 389,0 743,-263 843,-657 280,-1104 983,-2780 1574,-3056 436,-203 625,-721 421,-1157 -146,-314 -455,-499 -779,-503l-21 0c-120,1 -242,28 -357,82 -1576,735 -2381,3632 -2526,4205 -119,467 163,940 630,1058z"/>
   <path class="fil2" d="M47886 26041c-436,-203 -954,-15 -1158,421 -203,436 -14,954 421,1158 589,275 1293,1951 1575,3056 100,393 454,656 843,656 71,0 143,-9 215,-27 466,-118 748,-592 630,-1058 -145,-573 -950,-3471 -2526,-4206z"/>
  </g>
 </g>
</svg>
