<?xml version="1.0" encoding="UTF-8"?>
<!DOCTYPE svg PUBLIC "-//W3C//DTD SVG 1.1//EN" "http://www.w3.org/Graphics/SVG/1.1/DTD/svg11.dtd">
<!-- Creator: CorelDRAW X7 -->
<svg xmlns="http://www.w3.org/2000/svg" xml:space="preserve" width="9.671mm" height="10.5775mm" version="1.1" style="shape-rendering:geometricPrecision; text-rendering:geometricPrecision; image-rendering:optimizeQuality; fill-rule:evenodd; clip-rule:evenodd"
viewBox="0 0 1737 1900"
 xmlns:xlink="http://www.w3.org/1999/xlink">
 <defs>
  <style type="text/css">
   <![CDATA[
    .fil0 {fill:white;fill-rule:nonzero}
   ]]>
  </style>
 </defs>
 <g id="Camada_x0020_1">
  <metadata id="CorelCorpID_0Corel-Layer"/>
  <g id="_938378288">
   <g>
    <path class="fil0" d="M354 377c280,-254 700,-258 984,-26l-225 8c-29,1 -52,26 -51,55 2,28 25,50 53,50l2 0 346 -13c28,-1 50,-24 50,-52l0 -6 -13 -342c-1,-30 -25,-52 -54,-51 -29,1 -51,25 -50,54l8 215c-141,-115 -314,-182 -500,-191 -229,-12 -450,67 -621,221 -234,212 -333,535 -259,842 6,24 27,40 51,40 4,0 8,0 13,-1 28,-7 45,-36 38,-63 -65,-270 22,-554 228,-740z"/>
    <path class="fil0" d="M1713 758c-7,-27 -36,-45 -64,-38 -28,7 -45,35 -38,63 66,270 -22,554 -228,740 -144,131 -326,195 -507,195 -172,0 -345,-58 -484,-174l229 -21c28,-2 50,-27 47,-57 -3,-29 -28,-50 -57,-47l-345 31c-29,3 -50,28 -47,57l31 345c2,27 25,48 52,48 1,0 3,0 4,-1 29,-2 50,-28 48,-57l-19 -209c141,114 314,180 498,189 15,1 29,1 44,1 213,0 417,-78 576,-222 235,-213 334,-535 260,-843z"/>
   </g>
   <path class="fil0" d="M868 866c-69,0 -126,56 -126,126 0,70 57,126 126,126 70,0 127,-56 127,-126 0,-70 -57,-126 -127,-126zm338 -127l-102 0c-14,0 -28,-11 -33,-24l-26 -78c-4,-13 -19,-24 -33,-24l-287 0c-14,0 -29,11 -33,24l-26 78c-5,13 -20,24 -33,24l-102 0c-46,0 -84,38 -84,85l0 379c0,46 38,84 84,84l675 0c46,0 84,-38 84,-84l0 -379c0,-47 -38,-85 -84,-85zm-338 464c-116,0 -210,-95 -210,-211 0,-116 94,-211 210,-211 117,0 211,95 211,211 0,116 -94,211 -211,211zm308 -321c-16,0 -29,-13 -29,-29 0,-16 13,-30 29,-30 16,0 30,14 30,30 0,16 -14,29 -30,29z"/>
  </g>
 </g>
</svg>
