<?xml version="1.0" encoding="UTF-8"?>
<!DOCTYPE svg PUBLIC "-//W3C//DTD SVG 1.1//EN" "http://www.w3.org/Graphics/SVG/1.1/DTD/svg11.dtd">
<!-- Creator: CorelDRAW X7 -->
<svg xmlns="http://www.w3.org/2000/svg" xml:space="preserve" width="4.2334mm" height="4.2334mm" version="1.1" style="shape-rendering:geometricPrecision; text-rendering:geometricPrecision; image-rendering:optimizeQuality; fill-rule:evenodd; clip-rule:evenodd"
viewBox="0 0 442 442"
 xmlns:xlink="http://www.w3.org/1999/xlink">
 <defs>
  <style type="text/css">
   <![CDATA[
    .fil0 {fill:#A9ABAE;fill-rule:nonzero}
   ]]>
  </style>
 </defs>
 <g id="Camada_x0020_1">
  <metadata id="CorelCorpID_0Corel-Layer"/>
  <path class="fil0" d="M218 0c-122,2 -220,102 -218,224 2,122 102,219 224,218 122,-2 219,-102 218,-224 -2,-122 -102,-220 -224,-218zm-1 355l-1 0c-19,0 -32,-14 -31,-33 0,-18 14,-31 32,-31l1 0c19,1 32,14 32,33 -1,18 -14,31 -33,31zm79 -157c-4,7 -14,15 -26,24l-14 9c-7,6 -12,12 -13,17 -1,4 -2,5 -2,14l0 2 -52 0 0 -5c1,-17 1,-28 9,-37 12,-13 37,-30 38,-31 4,-2 7,-5 9,-9 6,-7 8,-13 8,-19 0,-8 -2,-15 -7,-22 -4,-6 -13,-9 -25,-9 -13,0 -21,3 -26,11 -5,9 -8,17 -8,26l0 2 -53 0 0 -2c2,-32 13,-56 35,-69 13,-9 30,-14 50,-14 25,0 47,7 64,19 17,12 26,31 26,55 0,14 -4,27 -13,38z"/>
 </g>
</svg>
