<?xml version="1.0" encoding="UTF-8"?>
<!DOCTYPE svg PUBLIC "-//W3C//DTD SVG 1.1//EN" "http://www.w3.org/Graphics/SVG/1.1/DTD/svg11.dtd">
<!-- Creator: CorelDRAW X7 -->
<svg xmlns="http://www.w3.org/2000/svg" xml:space="preserve" width="5.1098mm" height="3.5554mm" version="1.1" style="shape-rendering:geometricPrecision; text-rendering:geometricPrecision; image-rendering:optimizeQuality; fill-rule:evenodd; clip-rule:evenodd"
viewBox="0 0 1707 1188"
 xmlns:xlink="http://www.w3.org/1999/xlink">
 <defs>
  <style type="text/css">
   <![CDATA[
    .fil0 {fill:white}
   ]]>
  </style>
 </defs>
 <g id="Camada_x0020_1">
  <metadata id="CorelCorpID_0Corel-Layer"/>
  <path class="fil0" d="M511 853l685 0 0 172 -685 0 0 -172zm-329 335l1342 0c101,0 183,-82 183,-183l0 -823c0,-100 -82,-182 -183,-182l-1342 0c-100,0 -182,82 -182,182l0 823c0,101 82,183 182,183zm586 -506l0 -171 171 0 0 171 -171 0zm257 0l0 -171 171 0 0 171 -171 0zm256 0l0 -171 172 0 0 171 -172 0zm-856 0l-171 0 0 -171 171 0 0 171zm86 0l0 -171 171 0 0 171 -171 0zm514 -254l0 -171 171 0 0 171 -171 0zm256 0l0 -171 172 0 0 171 -172 0zm-599 0l-171 0 0 -171 171 0 0 171zm86 0l0 -171 171 0 0 171 -171 0zm-343 0l-171 0 0 -171 171 0 0 171z"/>
 </g>
</svg>
