<?xml version="1.0" encoding="UTF-8"?>
<!DOCTYPE svg PUBLIC "-//W3C//DTD SVG 1.1//EN" "http://www.w3.org/Graphics/SVG/1.1/DTD/svg11.dtd">
<!-- Creator: CorelDRAW X7 -->
<svg xmlns="http://www.w3.org/2000/svg" xml:space="preserve" width="5.0536mm" height="4.3657mm" version="1.1" style="shape-rendering:geometricPrecision; text-rendering:geometricPrecision; image-rendering:optimizeQuality; fill-rule:evenodd; clip-rule:evenodd"
viewBox="0 0 1369 1183"
 xmlns:xlink="http://www.w3.org/1999/xlink">
 <defs>
  <style type="text/css">
   <![CDATA[
    .fil0 {fill:white}
   ]]>
  </style>
 </defs>
 <g id="Camada_x0020_1">
  <metadata id="CorelCorpID_0Corel-Layer"/>
  <path class="fil0" d="M129 1183l1111 0c71,0 129,-58 129,-129l0 -782c0,-71 -58,-129 -129,-129l-599 0 -143 -143 -287 4 -177 181c-21,23 -34,54 -34,87l0 782c0,71 58,129 129,129zm556 -266c134,0 243,-109 243,-243 0,-135 -109,-244 -243,-244 -135,0 -244,109 -244,244 0,134 109,243 244,243zm0 108c193,0 351,-157 351,-351 0,-194 -158,-351 -351,-351 -194,0 -352,157 -352,351 0,194 158,351 352,351z"/>
 </g>
</svg>
