<?xml version="1.0" encoding="UTF-8"?>
<!DOCTYPE svg PUBLIC "-//W3C//DTD SVG 1.1//EN" "http://www.w3.org/Graphics/SVG/1.1/DTD/svg11.dtd">
<!-- Creator: CorelDRAW X7 -->
<svg xmlns="http://www.w3.org/2000/svg" xml:space="preserve" width="5.6059mm" height="4.7295mm" version="1.1" style="shape-rendering:geometricPrecision; text-rendering:geometricPrecision; image-rendering:optimizeQuality; fill-rule:evenodd; clip-rule:evenodd"
viewBox="0 0 1244 1050"
 xmlns:xlink="http://www.w3.org/1999/xlink">
 <defs>
  <style type="text/css">
   <![CDATA[
    .fil0 {fill:white}
   ]]>
  </style>
 </defs>
 <g id="Camada_x0020_1">
  <metadata id="CorelCorpID_0Corel-Layer"/>
  <path class="fil0" d="M316 275l169 0 0 90 -121 0 -48 0c-15,0 -27,13 -27,28l0 269c0,15 12,28 27,28l79 0 0 -161 90 0 0 201c0,28 -22,50 -49,50l-120 0c-64,0 -117,-53 -117,-118l0 -269c0,-65 53,-118 117,-118zm-44 775l701 0c149,0 271,-122 271,-272l0 -506c0,-150 -122,-272 -271,-272l-701 0c-150,0 -272,122 -272,272l0 506c0,150 122,272 272,272zm518 -780l87 0 168 0 0 86 -168 0 0 143 112 0 0 86 -112 0 0 193 -87 0 0 -193 0 -86 0 -143 0 -86zm-195 0l86 0 0 508 -86 0 0 -508z"/>
 </g>
</svg>
