<?xml version="1.0" encoding="UTF-8"?>
<!DOCTYPE svg PUBLIC "-//W3C//DTD SVG 1.1//EN" "http://www.w3.org/Graphics/SVG/1.1/DTD/svg11.dtd">
<!-- Creator: CorelDRAW X7 -->
<svg xmlns="http://www.w3.org/2000/svg" xml:space="preserve" width="6.4557mm" height="5.1647mm" version="1.1" style="shape-rendering:geometricPrecision; text-rendering:geometricPrecision; image-rendering:optimizeQuality; fill-rule:evenodd; clip-rule:evenodd"
viewBox="0 0 1114 891"
 xmlns:xlink="http://www.w3.org/1999/xlink">
 <defs>
  <style type="text/css">
   <![CDATA[
    .fil0 {fill:#FFB800;fill-rule:nonzero}
   ]]>
  </style>
 </defs>
 <g id="Camada_x0020_1">
  <metadata id="CorelCorpID_0Corel-Layer"/>
  <path class="fil0" d="M557 334c-92,0 -167,75 -167,167 0,93 75,167 167,167 92,0 167,-74 167,-167 0,-92 -75,-167 -167,-167zm445 -167l-133 0c-19,0 -38,-14 -44,-32l-35 -103c-6,-18 -25,-32 -44,-32l-378 0c-19,0 -39,14 -44,32l-35 103c-6,18 -26,32 -44,32l-134 0c-61,0 -111,50 -111,111l0 502c0,61 50,111 111,111l891 0c62,0 112,-50 112,-111l0 -502c0,-61 -50,-111 -112,-111zm-445 613c-154,0 -279,-125 -279,-279 0,-154 125,-278 279,-278 154,0 278,124 278,278 0,154 -124,279 -278,279zm406 -424c-21,0 -39,-17 -39,-39 0,-21 18,-39 39,-39 22,0 39,18 39,39 0,22 -17,39 -39,39z"/>
 </g>
</svg>
