<?xml version="1.0" encoding="UTF-8"?>
<!DOCTYPE svg PUBLIC "-//W3C//DTD SVG 1.1//EN" "http://www.w3.org/Graphics/SVG/1.1/DTD/svg11.dtd">
<!-- Creator: CorelDRAW X7 -->
<svg xmlns="http://www.w3.org/2000/svg" xml:space="preserve" width="4.0635mm" height="4.0633mm" version="1.1" style="shape-rendering:geometricPrecision; text-rendering:geometricPrecision; image-rendering:optimizeQuality; fill-rule:evenodd; clip-rule:evenodd"
viewBox="0 0 446 446"
 xmlns:xlink="http://www.w3.org/1999/xlink">
 <defs>
  <style type="text/css">
   <![CDATA[
    .fil0 {fill:#FFB800;fill-rule:nonzero}
   ]]>
  </style>
 </defs>
 <g id="Camada_x0020_1">
  <metadata id="CorelCorpID_0Corel-Layer"/>
  <path class="fil0" d="M443 88l-42 42 -84 -85 -32 32 84 85 -207 207 -84 -85 -32 32 84 85 -21 20 0 0c-2,4 -6,6 -10,7l-79 18c-1,0 -2,0 -4,0 -4,0 -8,-1 -11,-5 -4,-3 -6,-9 -5,-15l18 -78c1,-5 4,-8 7,-11l0 0 333 -333c5,-5 13,-5 18,0l67 66c5,5 5,13 0,18z"/>
 </g>
</svg>
