<?xml version="1.0" encoding="UTF-8"?>
<!DOCTYPE svg PUBLIC "-//W3C//DTD SVG 1.1//EN" "http://www.w3.org/Graphics/SVG/1.1/DTD/svg11.dtd">
<!-- Creator: CorelDRAW X7 -->
<svg xmlns="http://www.w3.org/2000/svg" xml:space="preserve" width="5.0802mm" height="4.4457mm" version="1.1" style="shape-rendering:geometricPrecision; text-rendering:geometricPrecision; image-rendering:optimizeQuality; fill-rule:evenodd; clip-rule:evenodd"
viewBox="0 0 636 556"
 xmlns:xlink="http://www.w3.org/1999/xlink">
 <defs>
  <style type="text/css">
   <![CDATA[
    .fil0 {fill:white}
   ]]>
  </style>
 </defs>
 <g id="Camada_x0020_1">
  <metadata id="CorelCorpID_0Corel-Layer"/>
  <path class="fil0" d="M0 65l0 280c0,36 29,65 65,65l94 0 0 146 132 -146 279 0c36,0 66,-29 66,-65l0 -280c0,-36 -30,-65 -66,-65l-505 0c-36,0 -65,29 -65,65zm331 81l-185 0c-8,0 -14,-6 -14,-13 0,-8 6,-14 14,-14l185 0c7,0 13,6 13,14 0,7 -6,13 -13,13zm172 53c7,0 13,6 13,13 0,7 -6,13 -13,13l-357 0c-8,0 -14,-6 -14,-13 0,-7 6,-13 14,-13l357 0zm-357 79l357 0c7,0 13,6 13,14 0,7 -6,13 -13,13l-357 0c-8,0 -14,-6 -14,-13 0,-8 6,-14 14,-14z"/>
 </g>
</svg>
