<?xml version="1.0" encoding="UTF-8"?>
<!DOCTYPE svg PUBLIC "-//W3C//DTD SVG 1.1//EN" "http://www.w3.org/Graphics/SVG/1.1/DTD/svg11.dtd">
<!-- Creator: CorelDRAW X7 -->
<svg xmlns="http://www.w3.org/2000/svg" xml:space="preserve" width="3.2262mm" height="4.064mm" version="1.1" style="shape-rendering:geometricPrecision; text-rendering:geometricPrecision; image-rendering:optimizeQuality; fill-rule:evenodd; clip-rule:evenodd"
viewBox="0 0 237 299"
 xmlns:xlink="http://www.w3.org/1999/xlink">
 <defs>
  <style type="text/css">
   <![CDATA[
    .fil0 {fill:white;fill-rule:nonzero}
   ]]>
  </style>
 </defs>
 <g id="Camada_x0020_1">
  <metadata id="CorelCorpID_0Corel-Layer"/>
  <path class="fil0" d="M237 229l0 0c0,13 -10,13 -23,13l-191 0c-12,0 -23,0 -23,-13l0 -3c0,-9 5,-17 13,-21l8 -64c0,-47 33,-87 78,-96l0 -25c0,-11 9,-20 20,-20 11,0 20,9 20,20l0 25c44,9 77,49 77,96l8 64c8,4 13,12 13,21l0 3zm-118 70c-20,0 -35,-16 -35,-35l70 0c0,19 -16,35 -35,35z"/>
 </g>
</svg>
