<?xml version="1.0" encoding="UTF-8"?>
<!DOCTYPE svg PUBLIC "-//W3C//DTD SVG 1.1//EN" "http://www.w3.org/Graphics/SVG/1.1/DTD/svg11.dtd">
<!-- Creator: CorelDRAW X7 -->
<svg xmlns="http://www.w3.org/2000/svg" xml:space="preserve" width="4.318mm" height="4.3182mm" version="1.1" style="shape-rendering:geometricPrecision; text-rendering:geometricPrecision; image-rendering:optimizeQuality; fill-rule:evenodd; clip-rule:evenodd"
viewBox="0 0 366 366"
 xmlns:xlink="http://www.w3.org/1999/xlink">
 <defs>
  <style type="text/css">
   <![CDATA[
    .fil0 {fill:#FFB800}
   ]]>
  </style>
 </defs>
 <g id="Camada_x0020_1">
  <metadata id="CorelCorpID_0Corel-Layer"/>
  <path class="fil0" d="M147 0l-4 50c-9,2 -18,6 -26,11l-38 -33 -51 51 33 38c-5,8 -9,17 -12,26l-49 4 0 73 49 3c3,9 7,18 12,27l-33 37 51 51 38 -32c8,4 17,8 26,11l4 49 73 0 3 -49c9,-3 18,-7 27,-11l37 32 51 -51 -32 -37c4,-9 8,-18 11,-27l49 -3 0 -73 -49 -4c-3,-9 -7,-18 -11,-26l32 -38 -51 -51 -37 33c-9,-5 -18,-9 -27,-11l-3 -50 -73 0zm102 183c0,36 -30,66 -66,66 -36,0 -65,-30 -65,-66 0,-36 29,-65 65,-65 36,0 66,29 66,65z"/>
 </g>
</svg>
