<?xml version="1.0" encoding="UTF-8"?>
<!DOCTYPE svg PUBLIC "-//W3C//DTD SVG 1.1//EN" "http://www.w3.org/Graphics/SVG/1.1/DTD/svg11.dtd">
<!-- Creator: CorelDRAW X7 -->
<svg xmlns="http://www.w3.org/2000/svg" xml:space="preserve" width="3.9689mm" height="3.2778mm" version="1.1" style="shape-rendering:geometricPrecision; text-rendering:geometricPrecision; image-rendering:optimizeQuality; fill-rule:evenodd; clip-rule:evenodd"
viewBox="0 0 294 242"
 xmlns:xlink="http://www.w3.org/1999/xlink">
 <defs>
  <style type="text/css">
   <![CDATA[
    .fil0 {fill:rgb(255, 184, 0);fill-opacity:1}
   ]]>
  </style>
 </defs>
 <g id="Camada_x0020_1">
  <metadata id="CorelCorpID_0Corel-Layer"/>
  <path class="fil0" d="M147 135l147 0c-82,-47 -216,-45 -294,0 49,0 98,0 147,0zm-58 17c20,0 37,13 43,30 4,-3 9,-4 15,-4 5,0 10,1 14,4 7,-17 23,-30 43,-30 25,0 46,20 46,45 0,25 -21,45 -46,45 -25,0 -45,-20 -45,-45 0,-1 0,-2 0,-3 -3,-4 -7,-6 -12,-6 -5,0 -10,2 -12,6 0,1 0,2 0,3 0,25 -21,45 -46,45 -25,0 -45,-20 -45,-45 0,-25 20,-45 45,-45zm32 45c0,-17 -14,-31 -32,-31 -17,0 -31,14 -31,31 0,18 14,32 31,32 18,0 32,-14 32,-32zm26 -120l83 0 -25 -77 -75 11 -41 -11 -25 77 83 0zm26 120c0,-17 14,-31 31,-31 18,0 32,14 32,31 0,18 -14,32 -32,32 -17,0 -31,-14 -31,-32z"/>
 </g>
</svg>
