<?xml version="1.0" encoding="UTF-8"?>
<!DOCTYPE svg PUBLIC "-//W3C//DTD SVG 1.1//EN" "http://www.w3.org/Graphics/SVG/1.1/DTD/svg11.dtd">
<!-- Creator: CorelDRAW X7 -->
<svg xmlns="http://www.w3.org/2000/svg" xml:space="preserve" width="3.9572mm" height="3.9572mm" version="1.1" style="shape-rendering:geometricPrecision; text-rendering:geometricPrecision; image-rendering:optimizeQuality; fill-rule:evenodd; clip-rule:evenodd"
viewBox="0 0 266 266"
 xmlns:xlink="http://www.w3.org/1999/xlink">
 <defs>
  <style type="text/css">
   <![CDATA[
    .fil0 {fill:white;fill-rule:nonzero}
   ]]>
  </style>
 </defs>
 <g id="Camada_x0020_1">
  <metadata id="CorelCorpID_0Corel-Layer"/>
  <path class="fil0" d="M227 39c25,25 39,58 39,94 0,35 -14,69 -39,94 -25,25 -59,39 -94,39 -36,0 -69,-14 -94,-39 -25,-25 -39,-59 -39,-94 0,-36 14,-69 39,-94 25,-25 58,-39 94,-39 35,0 69,14 94,39zm-12 176c16,-16 27,-37 32,-59 -4,5 -7,7 -9,-4 -2,-19 -20,-7 -31,-14 -11,8 -37,-15 -32,11 7,11 36,-16 21,9 -9,17 -34,54 -31,74 1,28 -29,6 -39,-4 -7,-19 -2,-52 -20,-61 -20,-1 -36,-2 -44,-24 -4,-16 5,-39 22,-42 24,-16 33,18 56,18 7,-7 26,-10 27,-18 -14,-3 19,-12 -1,-18 -11,1 -18,12 -12,20 -22,5 -23,-31 -44,-20 -1,19 -34,6 -12,3 8,-4 -12,-14 -1,-12 5,0 23,-7 18,-11 11,-6 19,15 29,0 7,-12 -3,-15 -12,-9 -5,-5 9,-17 21,-23 5,-2 8,-3 11,-2 7,7 18,8 19,-1 -16,-7 -33,-11 -50,-11 -26,0 -50,8 -70,23 6,2 9,5 4,9 -4,12 -21,28 -35,26 -7,12 -12,26 -14,41 12,4 14,12 12,15 -6,5 -10,12 -12,21 4,24 15,45 33,63 22,22 51,34 82,34 31,0 60,-12 82,-34z"/>
 </g>
</svg>
