<?xml version="1.0" encoding="UTF-8"?>
<!DOCTYPE svg PUBLIC "-//W3C//DTD SVG 1.1//EN" "http://www.w3.org/Graphics/SVG/1.1/DTD/svg11.dtd">
<!-- Creator: CorelDRAW X7 -->
<svg xmlns="http://www.w3.org/2000/svg" xml:space="preserve" width="5.0802mm" height="4.4457mm" version="1.1" style="shape-rendering:geometricPrecision; text-rendering:geometricPrecision; image-rendering:optimizeQuality; fill-rule:evenodd; clip-rule:evenodd"
viewBox="0 0 643 562"
 xmlns:xlink="http://www.w3.org/1999/xlink">
 <defs>
  <style type="text/css">
   <![CDATA[
    .fil0 {fill:#FFB800}
   ]]>
  </style>
 </defs>
 <g id="Camada_x0020_1">
  <metadata id="CorelCorpID_0Corel-Layer"/>
  <path class="fil0" d="M643 349l0 -283c0,-36 -30,-66 -66,-66l-511 0c-36,0 -66,30 -66,66l0 283c0,37 30,66 66,66l95 0 0 147 134 -147 282 0c36,0 66,-29 66,-66zm-496 -148l362 0c7,0 13,6 13,13 0,8 -6,14 -13,14l-362 0c-7,0 -13,-6 -13,-14 0,-7 6,-13 13,-13zm0 80l362 0c7,0 13,6 13,14 0,7 -6,13 -13,13l-362 0c-7,0 -13,-6 -13,-13 0,-8 6,-14 13,-14zm0 -160l188 0c7,0 13,6 13,13 0,8 -6,14 -13,14l-188 0c-7,0 -13,-6 -13,-14 0,-7 6,-13 13,-13z"/>
 </g>
</svg>
