<?xml version="1.0" encoding="UTF-8"?>
<!DOCTYPE svg PUBLIC "-//W3C//DTD SVG 1.1//EN" "http://www.w3.org/Graphics/SVG/1.1/DTD/svg11.dtd">
<!-- Creator: CorelDRAW X7 -->
<svg xmlns="http://www.w3.org/2000/svg" xml:space="preserve" width="5.0536mm" height="4.3657mm" version="1.1" style="shape-rendering:geometricPrecision; text-rendering:geometricPrecision; image-rendering:optimizeQuality; fill-rule:evenodd; clip-rule:evenodd"
viewBox="0 0 676 584"
 xmlns:xlink="http://www.w3.org/1999/xlink">
 <defs>
  <style type="text/css">
   <![CDATA[
    .fil0 {fill:#7E8389}
   ]]>
  </style>
 </defs>
 <g id="Camada_x0020_1">
  <metadata id="CorelCorpID_0Corel-Layer"/>
  <path class="fil0" d="M64 584l549 0c35,0 63,-28 63,-63l0 -386c0,-36 -28,-64 -63,-64l-296 0 -71 -71 -142 2 -87 89c-11,12 -17,27 -17,44l0 386c0,35 29,63 64,63zm274 -131c67,0 121,-54 121,-120 0,-67 -54,-121 -121,-121 -66,0 -120,54 -120,121 0,66 54,120 120,120zm0 53c96,0 174,-77 174,-173 0,-96 -78,-174 -174,-174 -96,0 -173,78 -173,174 0,96 77,173 173,173z"/>
 </g>
</svg>
