<?xml version="1.0" encoding="UTF-8"?>
<!DOCTYPE svg PUBLIC "-//W3C//DTD SVG 1.1//EN" "http://www.w3.org/Graphics/SVG/1.1/DTD/svg11.dtd">
<!-- Creator: CorelDRAW X7 -->
<svg xmlns="http://www.w3.org/2000/svg" xml:space="preserve" width="5.0382mm" height="5.0382mm" version="1.1" style="shape-rendering:geometricPrecision; text-rendering:geometricPrecision; image-rendering:optimizeQuality; fill-rule:evenodd; clip-rule:evenodd"
viewBox="0 0 789 789"
 xmlns:xlink="http://www.w3.org/1999/xlink">
 <defs>
  <style type="text/css">
   <![CDATA[
    .fil0 {fill:#7E8389}
   ]]>
  </style>
 </defs>
 <g id="Camada_x0020_1">
  <metadata id="CorelCorpID_0Corel-Layer"/>
  <path class="fil0" d="M395 789c217,0 394,-177 394,-394 0,-218 -177,-395 -394,-395 -218,0 -395,177 -395,395 0,217 177,394 395,394zm0 -175c91,0 170,-57 203,-137l-407 0c33,80 112,137 204,137zm-142 -257c34,0 62,-28 62,-63 0,-34 -28,-62 -62,-62 -34,0 -62,28 -62,62 0,35 28,63 62,63zm280 0c34,0 62,-28 62,-63 0,-34 -28,-62 -62,-62 -35,0 -62,28 -62,62 0,35 27,63 62,63zm-138 362c179,0 324,-145 324,-324 0,-180 -145,-325 -324,-325 -180,0 -325,145 -325,325 0,179 145,324 325,324z"/>
 </g>
</svg>
