<?xml version="1.0" encoding="UTF-8"?>
<!DOCTYPE svg PUBLIC "-//W3C//DTD SVG 1.1//EN" "http://www.w3.org/Graphics/SVG/1.1/DTD/svg11.dtd">
<!-- Creator: CorelDRAW X7 -->
<svg xmlns="http://www.w3.org/2000/svg" xml:space="preserve" width="5.4187mm" height="5.4188mm" version="1.1" style="shape-rendering:geometricPrecision; text-rendering:geometricPrecision; image-rendering:optimizeQuality; fill-rule:evenodd; clip-rule:evenodd"
viewBox="0 0 1079 1079"
 xmlns:xlink="http://www.w3.org/1999/xlink">
 <defs>
  <style type="text/css">
   <![CDATA[
    .fil0 {fill:#FFB800;fill-rule:nonzero}
   ]]>
  </style>
 </defs>
 <g id="Camada_x0020_1">
  <metadata id="CorelCorpID_0Corel-Layer"/>
  <path class="fil0" d="M739 0c-188,0 -339,152 -339,340 0,40 8,79 19,119l-419 420 0 200 200 0 0 -120 120 0 0 -120 120 0 179 -180c36,12 76,20 120,20 188,0 340,-152 340,-339 0,-188 -152,-340 -340,-340zm100 360c-68,0 -120,-52 -120,-120 0,-68 52,-120 120,-120 68,0 120,52 120,120 0,68 -52,120 -120,120z"/>
 </g>
</svg>
