<?xml version="1.0" encoding="UTF-8"?>
<!DOCTYPE svg PUBLIC "-//W3C//DTD SVG 1.1//EN" "http://www.w3.org/Graphics/SVG/1.1/DTD/svg11.dtd">
<!-- Creator: CorelDRAW X7 -->
<svg xmlns="http://www.w3.org/2000/svg" xml:space="preserve" width="4.3016mm" height="5.4186mm" version="1.1" style="shape-rendering:geometricPrecision; text-rendering:geometricPrecision; image-rendering:optimizeQuality; fill-rule:evenodd; clip-rule:evenodd"
viewBox="0 0 752 948"
 xmlns:xlink="http://www.w3.org/1999/xlink">
 <defs>
  <style type="text/css">
   <![CDATA[
    .fil0 {fill:#FFB800;fill-rule:nonzero}
   ]]>
  </style>
 </defs>
 <g id="Camada_x0020_1">
  <metadata id="CorelCorpID_0Corel-Layer"/>
  <path class="fil0" d="M752 725l0 0c0,41 -33,44 -74,44l-604 0c-41,0 -74,-3 -74,-44l0 -7c0,-30 17,-55 42,-67l24 -204c0,-150 106,-275 246,-304l0 -79c0,-35 29,-64 64,-64 35,0 64,29 64,64l0 79c141,29 246,154 246,304l24 204c25,12 42,37 42,67l0 7zm-376 223c-61,0 -111,-50 -111,-112l222 0c0,62 -49,112 -111,112z"/>
 </g>
</svg>
