<?xml version="1.0" encoding="UTF-8"?>
<!DOCTYPE svg PUBLIC "-//W3C//DTD SVG 1.1//EN" "http://www.w3.org/Graphics/SVG/1.1/DTD/svg11.dtd">
<!-- Creator: CorelDRAW X7 -->
<svg xmlns="http://www.w3.org/2000/svg" xml:space="preserve" width="6.4348mm" height="4.4228mm" version="1.1" style="shape-rendering:geometricPrecision; text-rendering:geometricPrecision; image-rendering:optimizeQuality; fill-rule:evenodd; clip-rule:evenodd"
viewBox="0 0 1865 1282"
 xmlns:xlink="http://www.w3.org/1999/xlink">
 <defs>
  <style type="text/css">
   <![CDATA[
    .fil0 {fill:#FFB800;fill-rule:nonzero}
   ]]>
  </style>
 </defs>
 <g id="Camada_x0020_1">
  <metadata id="CorelCorpID_0Corel-Layer"/>
  <path class="fil0" d="M263 895c0,-35 8,-66 26,-94 17,-28 40,-50 69,-65l214 -98c19,-12 34,-25 46,-40 -25,-37 -45,-77 -58,-122 -13,-44 -20,-90 -20,-138 0,-33 3,-64 10,-94 7,-30 15,-58 24,-85 -34,-25 -73,-38 -115,-38 -65,0 -121,27 -166,81 -45,54 -68,118 -68,193 0,54 12,103 35,146 23,44 54,77 92,100l-320 147c-21,10 -32,29 -32,58l0 251c0,17 5,32 14,45 10,12 23,18 38,18l211 0 0 -265zm1235 0c0,-35 -13,-58 -40,-69l-274 -133 -116 -55c25,-15 48,-35 68,-59 20,-24 37,-52 50,-82 10,-24 18,-49 25,-76 7,-26 10,-54 10,-83 0,-16 -1,-31 -3,-45 -2,-14 -5,-29 -8,-45 -18,-73 -52,-133 -103,-179 -51,-46 -110,-69 -177,-69 -68,0 -127,23 -177,68 -50,45 -83,102 -101,172 -9,34 -14,67 -14,98 0,58 12,113 37,167 29,58 69,103 119,136l-110 52 -283 130c-29,13 -43,37 -43,72l0 312c0,21 6,39 19,53 12,14 28,22 47,22l1011 0c17,0 32,-8 44,-22 13,-14 19,-32 19,-53l0 -312zm367 -49c0,-27 -11,-46 -32,-58l-315 -150c37,-23 66,-56 88,-98 23,-43 34,-91 34,-145 0,-75 -23,-139 -68,-193 -45,-54 -101,-81 -166,-81 -23,0 -45,4 -65,12 -20,7 -39,17 -56,29 21,57 31,116 31,176 0,94 -25,180 -75,257 10,9 19,18 28,26 8,7 17,14 27,20l205 95c29,15 52,37 69,65 18,28 26,59 26,94l0 265 217 0c15,0 28,-6 37,-18 10,-13 15,-28 15,-45l0 -251z"/>
 </g>
</svg>
