<?xml version="1.0" encoding="UTF-8"?>
<!DOCTYPE svg PUBLIC "-//W3C//DTD SVG 1.1//EN" "http://www.w3.org/Graphics/SVG/1.1/DTD/svg11.dtd">
<!-- Creator: CorelDRAW X7 -->
<svg xmlns="http://www.w3.org/2000/svg" xml:space="preserve" width="5.4188mm" height="5.4188mm" version="1.1" style="shape-rendering:geometricPrecision; text-rendering:geometricPrecision; image-rendering:optimizeQuality; fill-rule:evenodd; clip-rule:evenodd"
viewBox="0 0 1515 1515"
 xmlns:xlink="http://www.w3.org/1999/xlink">
 <defs>
  <style type="text/css">
   <![CDATA[
    .fil0 {fill:#FFB800;fill-rule:nonzero}
   ]]>
  </style>
 </defs>
 <g id="Camada_x0020_1">
  <metadata id="CorelCorpID_0Corel-Layer"/>
  <path class="fil0" d="M747 0c-418,6 -752,349 -747,768 6,418 349,752 767,747 419,-6 753,-350 748,-768 -6,-418 -350,-753 -768,-747zm-2 1218l-4 0c-65,-2 -110,-49 -108,-113 2,-62 48,-107 110,-107l4 0c66,2 111,49 109,114 -1,63 -47,106 -111,106zm271 -537c-15,21 -49,48 -91,81l-46 31c-25,20 -40,39 -46,57 -5,14 -7,18 -7,47l0 8 -177 0 1 -15c2,-61 3,-98 29,-127 40,-47 128,-104 131,-106 13,-10 24,-21 32,-32 18,-26 26,-46 26,-66 0,-27 -8,-52 -24,-75 -15,-22 -45,-33 -87,-33 -42,0 -71,14 -88,41 -18,28 -27,58 -27,88l0 8 -182 0 0 -8c5,-112 45,-192 118,-239 47,-30 104,-45 172,-45 88,0 162,22 220,64 60,43 90,107 90,190 0,47 -15,91 -44,131z"/>
 </g>
</svg>
