<?xml version="1.0" encoding="UTF-8"?>
<!DOCTYPE svg PUBLIC "-//W3C//DTD SVG 1.1//EN" "http://www.w3.org/Graphics/SVG/1.1/DTD/svg11.dtd">
<!-- Creator: CorelDRAW X7 -->
<svg xmlns="http://www.w3.org/2000/svg" xml:space="preserve" width="42.4658mm" height="26.4143mm" version="1.1" style="shape-rendering:geometricPrecision; text-rendering:geometricPrecision; image-rendering:optimizeQuality; fill-rule:evenodd; clip-rule:evenodd"
viewBox="0 0 107539 66891"
 xmlns:xlink="http://www.w3.org/1999/xlink">
 <defs>
  <style type="text/css">
   <![CDATA[
    .fil0 {fill:#CBCBCB}
   ]]>
  </style>
 </defs>
 <g id="Camada_x0020_1">
  <metadata id="CorelCorpID_0Corel-Layer"/>
  <g id="_1180772256">
   <g>
    <path class="fil0" d="M20603 61783l0 921c0,507 -414,921 -921,921l-5304 0c-507,0 -921,-414 -921,-921l0 -921 7146 0zm11782 -3323l-30710 0 0 -51872 30710 0 0 51872zm-11893 -53742l-6924 0 0 -1396 6924 0 0 1396zm7872 -4718l-22668 0c-3133,0 -5696,2563 -5696,5696l0 53043c0,4484 3668,8152 8152,8152l17755 0c4485,0 8153,-3668 8153,-8152l0 -53043c0,-3133 -2563,-5696 -5696,-5696zm-2987 4160c0,431 -350,781 -782,781 -431,0 -781,-350 -781,-781 0,-432 350,-782 781,-782 432,0 782,350 782,782z"/>
    <path class="fil0" d="M94083 61783l0 921c0,507 -415,921 -921,921l-5305 0c-507,0 -921,-414 -921,-921l0 -921 7147 0zm11781 -3323l-30709 0 0 -51872 30709 0 0 51872zm-11893 -53742l-6924 0 0 -1396 6924 0 0 1396zm7873 -4718l-22669 0c-3133,0 -5696,2563 -5696,5696l0 53043c0,4484 3669,8152 8153,8152l17755 0c4484,0 8152,-3668 8152,-8152l0 -53043c0,-3133 -2563,-5696 -5695,-5696zm-2987 4160c0,431 -350,781 -782,781 -432,0 -782,-350 -782,-781 0,-432 350,-782 782,-782 432,0 782,350 782,782z"/>
   </g>
   <g>
    <circle class="fil0" cx="43216" cy="33769" r="1256"/>
    <circle class="fil0" cx="50252" cy="33769" r="1256"/>
    <circle class="fil0" cx="57287" cy="33769" r="1256"/>
    <circle class="fil0" cx="64323" cy="33769" r="1256"/>
   </g>
  </g>
 </g>
</svg>
