<?xml version="1.0" encoding="UTF-8"?>
<!DOCTYPE svg PUBLIC "-//W3C//DTD SVG 1.1//EN" "http://www.w3.org/Graphics/SVG/1.1/DTD/svg11.dtd">
<!-- Creator: CorelDRAW X7 -->
<svg xmlns="http://www.w3.org/2000/svg" xml:space="preserve" width="29.5936mm" height="29.5936mm" version="1.1" style="shape-rendering:geometricPrecision; text-rendering:geometricPrecision; image-rendering:optimizeQuality; fill-rule:evenodd; clip-rule:evenodd"
viewBox="0 0 129870 129870"
 xmlns:xlink="http://www.w3.org/1999/xlink">
 <defs>
  <style type="text/css">
   <![CDATA[
    .fil1 {fill:#F8B517;fill-rule:nonzero}
    .fil2 {fill:#FBD303;fill-rule:nonzero}
    .fil3 {fill:white;fill-rule:nonzero}
    .fil0 {fill:#E6E6E6;fill-rule:nonzero;fill-opacity:0.501961}
   ]]>
  </style>
 </defs>
 <g id="Camada_x0020_1">
  <metadata id="CorelCorpID_0Corel-Layer"/>
  <g id="_1053213264">
   <path class="fil0" d="M129870 64935c0,35862 -29073,64935 -64935,64935 -35862,0 -64935,-29073 -64935,-64935 0,-35862 29073,-64935 64935,-64935 35862,0 64935,29073 64935,64935z"/>
   <path class="fil1" d="M70382 20839l-44097 0c-5448,0 -9942,4409 -9942,9942l0 29744c0,5447 4409,9943 9942,9943l3200 0 7176 9339 7177 -9339 26457 0c5448,0 9944,-4409 9944,-9943l0 -29744c87,-5533 -4409,-9942 -9857,-9942z"/>
   <path class="fil2" d="M107043 53522l-44096 0c-5448,0 -9944,4409 -9944,9942l0 29744c0,5448 4410,9944 9944,9944l3198 0 7177 9338 7177 -9338 26458 0c5447,0 9943,-4409 9943,-9944l0 -29744c86,-5533 -4410,-9942 -9857,-9942z"/>
   <path class="fil3" d="M74791 79807c0,3247 -2632,5879 -5879,5879 -3247,0 -5880,-2632 -5880,-5879 0,-3247 2633,-5880 5880,-5880 3247,0 5879,2633 5879,5880z"/>
   <path class="fil3" d="M90875 79807c0,3247 -2632,5879 -5880,5879 -3247,0 -5879,-2632 -5879,-5879 0,-3247 2632,-5880 5879,-5880 3248,0 5880,2633 5880,5880z"/>
   <path class="fil3" d="M106957 79807c0,3247 -2632,5879 -5880,5879 -3247,0 -5879,-2632 -5879,-5879 0,-3247 2632,-5880 5879,-5880 3248,0 5880,2633 5880,5880z"/>
  </g>
 </g>
</svg>
