<?xml version="1.0" encoding="UTF-8"?>
<!DOCTYPE svg PUBLIC "-//W3C//DTD SVG 1.1//EN" "http://www.w3.org/Graphics/SVG/1.1/DTD/svg11.dtd">
<!-- Creator: CorelDRAW X7 -->
<svg xmlns="http://www.w3.org/2000/svg" xml:space="preserve" width="5.5568mm" height="5.5568mm" version="1.1" style="shape-rendering:geometricPrecision; text-rendering:geometricPrecision; image-rendering:optimizeQuality; fill-rule:evenodd; clip-rule:evenodd"
viewBox="0 0 43633 43633"
 xmlns:xlink="http://www.w3.org/1999/xlink">
 <defs>
  <style type="text/css">
   <![CDATA[
    .fil0 {fill:#FEFEFE}
    .fil1 {fill:#999999}
    .fil2 {fill:white}
   ]]>
  </style>
 </defs>
 <g id="Camada_x0020_1">
  <metadata id="CorelCorpID_0Corel-Layer"/>
  <g id="_1053242000">
   <g>
    <path class="fil0" d="M21816 0c12049,0 21817,9767 21817,21816 0,12049 -9768,21817 -21817,21817 -12049,0 -21816,-9768 -21816,-21817 0,-12049 9767,-21816 21816,-21816z"/>
   </g>
   <circle class="fil1" cx="21816" cy="21816" r="18542"/>
   <path class="fil2" d="M21816 22814l10594 0c-5862,-3384 -15548,-3255 -21187,0 3531,0 7062,0 10593,0zm-4146 1219c1428,0 2642,916 3086,2192 301,-209 666,-331 1060,-331 395,0 760,122 1060,331 445,-1276 1659,-2192 3086,-2192 1804,0 3267,1462 3267,3266 0,1803 -1463,3266 -3267,3266 -1803,0 -3265,-1463 -3265,-3266 0,-75 2,-149 7,-222 -204,-266 -526,-438 -888,-438 -362,0 -683,172 -887,438 5,73 7,147 7,222 0,1803 -1462,3266 -3266,3266 -1804,0 -3266,-1463 -3266,-3266 0,-1804 1462,-3266 3266,-3266zm2285 3266c0,-1262 -1023,-2284 -2285,-2284 -1261,0 -2285,1022 -2285,2284 0,1262 1024,2285 2285,2285 1262,0 2285,-1023 2285,-2285zm1861 -8682l5991 0 -1794 -5550 -5415 812 -2979 -812 -1793 5550 5990 0zm1862 8682c0,-1262 1022,-2284 2284,-2284 1262,0 2285,1022 2285,2284 0,1262 -1023,2285 -2285,2285 -1262,0 -2284,-1023 -2284,-2285z"/>
  </g>
 </g>
</svg>
