<?xml version="1.0" encoding="UTF-8"?>
<!DOCTYPE svg PUBLIC "-//W3C//DTD SVG 1.1//EN" "http://www.w3.org/Graphics/SVG/1.1/DTD/svg11.dtd">
<!-- Creator: CorelDRAW X7 -->
<svg xmlns="http://www.w3.org/2000/svg" xml:space="preserve" width="5.402mm" height="5.4012mm" version="1.1" style="shape-rendering:geometricPrecision; text-rendering:geometricPrecision; image-rendering:optimizeQuality; fill-rule:evenodd; clip-rule:evenodd"
viewBox="0 0 5326 5325"
 xmlns:xlink="http://www.w3.org/1999/xlink">
 <defs>
  <style type="text/css">
   <![CDATA[
    .fil0 {fill:white;fill-rule:nonzero}
   ]]>
  </style>
 </defs>
 <g id="Camada_x0020_1">
  <metadata id="CorelCorpID_0Corel-Layer"/>
  <g id="_1180781344">
   <path class="fil0" d="M5202 4602l-1130 -1130 -80 79 -122 -122c627,-841 559,-2037 -205,-2801 -838,-837 -2197,-837 -3036,0 -419,420 -629,969 -629,1518l0 1c0,549 210,1098 629,1517 764,764 1959,832 2800,205l123 122 -79 80 1130 1130c165,165 434,165 599,0 165,-165 165,-434 0,-599zm-1952 -1353c-608,609 -1596,609 -2206,0 -608,-608 -608,-1596 0,-2205 609,-609 1597,-609 2206,0 610,609 610,1597 0,2205z"/>
  </g>
 </g>
</svg>
