<?xml version="1.0" encoding="UTF-8"?>
<!DOCTYPE svg PUBLIC "-//W3C//DTD SVG 1.1//EN" "http://www.w3.org/Graphics/SVG/1.1/DTD/svg11.dtd">
<!-- Creator: CorelDRAW X7 -->
<svg xmlns="http://www.w3.org/2000/svg" xml:space="preserve" width="5.4187mm" height="5.4184mm" version="1.1" style="shape-rendering:geometricPrecision; text-rendering:geometricPrecision; image-rendering:optimizeQuality; fill-rule:evenodd; clip-rule:evenodd"
viewBox="0 0 3628 3628"
 xmlns:xlink="http://www.w3.org/1999/xlink">
 <defs>
  <style type="text/css">
   <![CDATA[
    .fil0 {fill:white;fill-rule:nonzero}
   ]]>
  </style>
 </defs>
 <g id="Camada_x0020_1">
  <metadata id="CorelCorpID_0Corel-Layer"/>
  <g id="_1053263952">
   <path class="fil0" d="M3584 196c-30,-30 -66,-45 -107,-45 -41,0 -76,15 -106,45l-307 305c-169,-159 -362,-283 -579,-370 -217,-87 -441,-131 -671,-131 -433,0 -811,131 -1134,393 -322,262 -535,605 -637,1027l0 16c0,21 7,38 22,53 15,15 33,23 53,23l470 0c35,0 58,-18 71,-55 66,-157 108,-249 125,-276 111,-180 257,-320 440,-423 182,-102 379,-153 590,-153 317,0 591,108 825,323l-326 326c-30,30 -45,66 -45,107 0,41 15,76 45,106 30,30 65,45 106,45l1058 0c41,0 77,-15 107,-45 29,-30 44,-65 44,-106l0 -1059c0,-41 -14,-76 -44,-106z"/>
   <path class="fil0" d="M3494 2116l-454 0c-34,0 -58,19 -71,55 -66,157 -107,249 -125,276 -110,180 -257,321 -439,423 -183,102 -380,154 -591,154 -152,0 -300,-29 -442,-85 -141,-57 -268,-137 -380,-241l324 -324c30,-30 45,-65 45,-106 0,-41 -15,-77 -45,-107 -30,-30 -66,-45 -106,-45l-1059 0c-41,0 -76,15 -106,45 -30,30 -45,66 -45,107l0 1058c0,41 15,76 45,106 30,30 65,45 106,45 41,0 77,-15 107,-45l304 -305c169,161 361,285 575,371 215,87 438,130 668,130 431,0 808,-131 1129,-393 321,-262 532,-604 633,-1026 2,-3 2,-9 2,-17 0,-20 -7,-38 -22,-53 -15,-15 -33,-23 -53,-23z"/>
  </g>
 </g>
</svg>
