<?xml version="1.0" encoding="UTF-8"?>
<!DOCTYPE svg PUBLIC "-//W3C//DTD SVG 1.1//EN" "http://www.w3.org/Graphics/SVG/1.1/DTD/svg11.dtd">
<!-- Creator: CorelDRAW X7 -->
<svg xmlns="http://www.w3.org/2000/svg" xml:space="preserve" width="5.402mm" height="5.4012mm" version="1.1" style="shape-rendering:geometricPrecision; text-rendering:geometricPrecision; image-rendering:optimizeQuality; fill-rule:evenodd; clip-rule:evenodd"
viewBox="0 0 1908 1908"
 xmlns:xlink="http://www.w3.org/1999/xlink">
 <defs>
  <style type="text/css">
   <![CDATA[
    .fil0 {fill:#4D4D4D;fill-rule:nonzero}
   ]]>
  </style>
 </defs>
 <g id="Camada_x0020_1">
  <metadata id="CorelCorpID_0Corel-Layer"/>
  <g id="_1180750144">
   <path class="fil0" d="M1864 1649l-405 -405 -29 28 -44 -44c225,-301 201,-729 -73,-1003 -300,-300 -787,-300 -1088,0 -150,150 -225,347 -225,544l0 0c0,197 75,394 225,544 274,274 702,298 1004,73l44 44 -29 28 405 405c59,59 155,59 215,0 59,-59 59,-155 0,-214zm-700 -485c-218,218 -571,218 -790,0 -218,-218 -218,-572 0,-790 218,-218 572,-218 790,0 219,218 219,572 0,790z"/>
  </g>
 </g>
</svg>
