<?xml version="1.0" encoding="UTF-8"?>
<!DOCTYPE svg PUBLIC "-//W3C//DTD SVG 1.1//EN" "http://www.w3.org/Graphics/SVG/1.1/DTD/svg11.dtd">
<!-- Creator: CorelDRAW X7 -->
<svg xmlns="http://www.w3.org/2000/svg" xml:space="preserve" width="4.4981mm" height="4.3548mm" version="1.1" style="shape-rendering:geometricPrecision; text-rendering:geometricPrecision; image-rendering:optimizeQuality; fill-rule:evenodd; clip-rule:evenodd"
viewBox="0 0 909 880"
 xmlns:xlink="http://www.w3.org/1999/xlink">
 <defs>
  <style type="text/css">
   <![CDATA[
    .fil0 {fill:gray;fill-rule:nonzero}
   ]]>
  </style>
 </defs>
 <g id="Camada_x0020_1">
  <metadata id="CorelCorpID_0Corel-Layer"/>
  <path class="fil0" d="M898 429c16,-18 15,-45 -4,-62l-406 -355c-19,-16 -48,-16 -66,1l-408 373c-9,9 -14,20 -14,32l0 1c0,11 4,21 12,29l10 11c17,18 45,20 62,5l30 -28 0 400c0,24 20,44 44,44l159 0c25,0 45,-20 45,-44l0 -280 202 0 0 280c0,24 18,44 42,44l168 0c25,0 45,-20 45,-44l0 -394c0,0 8,7 19,16 10,10 32,2 48,-16l12 -13z"/>
 </g>
</svg>
