<?xml version="1.0" encoding="UTF-8"?>
<!DOCTYPE svg PUBLIC "-//W3C//DTD SVG 1.1//EN" "http://www.w3.org/Graphics/SVG/1.1/DTD/svg11.dtd">
<!-- Creator: CorelDRAW X7 -->
<svg xmlns="http://www.w3.org/2000/svg" xml:space="preserve" width="3.414mm" height="3.414mm" version="1.1" style="shape-rendering:geometricPrecision; text-rendering:geometricPrecision; image-rendering:optimizeQuality; fill-rule:evenodd; clip-rule:evenodd"
viewBox="0 0 428 428"
 xmlns:xlink="http://www.w3.org/1999/xlink">
 <defs>
  <style type="text/css">
   <![CDATA[
    .fil0 {fill:white;fill-rule:nonzero}
   ]]>
  </style>
 </defs>
 <g id="Camada_x0020_1">
  <metadata id="CorelCorpID_0Corel-Layer"/>
  <path class="fil0" d="M370 0l-312 0c-32,0 -58,26 -58,58l0 312c0,32 26,58 58,58l154 0 0 -153 -40 0c-5,0 -9,-4 -9,-9l0 -50c0,-5 4,-9 9,-9l40 0 0 -48c0,-55 34,-85 83,-85l40 0c6,0 10,4 10,9l0 42c0,5 -4,9 -10,9l-24 0c-27,0 -32,13 -32,32l0 41 58 0c6,0 10,5 10,10l-6 50c-1,4 -5,8 -9,8l-53 0 0 153 91 0c32,0 58,-26 58,-58l0 -312c0,-32 -26,-58 -58,-58z"/>
 </g>
</svg>
