<?xml version="1.0" encoding="UTF-8"?>
<!DOCTYPE svg PUBLIC "-//W3C//DTD SVG 1.1//EN" "http://www.w3.org/Graphics/SVG/1.1/DTD/svg11.dtd">
<!-- Creator: CorelDRAW X7 -->
<svg xmlns="http://www.w3.org/2000/svg" xml:space="preserve" width="4.6749mm" height="4.6749mm" version="1.1" style="shape-rendering:geometricPrecision; text-rendering:geometricPrecision; image-rendering:optimizeQuality; fill-rule:evenodd; clip-rule:evenodd"
viewBox="0 0 742 742"
 xmlns:xlink="http://www.w3.org/1999/xlink">
 <defs>
  <style type="text/css">
   <![CDATA[
    .fil0 {fill:white;fill-rule:nonzero}
   ]]>
  </style>
 </defs>
 <g id="Camada_x0020_1">
  <metadata id="CorelCorpID_0Corel-Layer"/>
  <path class="fil0" d="M512 259c0,66 -42,106 -73,136 -10,10 -27,27 -29,33l0 76 -40 0 -40 0 0 -76c0,-39 28,-66 53,-90 30,-29 49,-50 49,-79 0,-34 -27,-61 -61,-61 -34,0 -61,27 -61,61l-40 0 -40 0c0,-78 63,-141 141,-141 78,0 141,63 141,141zm-102 325c0,22 -18,40 -40,40 -22,0 -40,-18 -40,-40 0,-22 18,-40 40,-40 22,0 40,18 40,40zm272 -213c0,171 -140,311 -311,311 -2,0 -4,0 -6,0 -169,-3 -305,-142 -305,-311 0,-6 0,-13 1,-19 10,-161 142,-289 304,-292 2,0 4,0 6,0 170,0 309,138 311,308 0,1 0,2 0,3zm-311 371c205,0 371,-166 371,-371 0,-205 -166,-371 -371,-371 -205,0 -371,166 -371,371 0,205 166,371 371,371z"/>
 </g>
</svg>
