<?xml version="1.0" encoding="UTF-8"?>
<!DOCTYPE svg PUBLIC "-//W3C//DTD SVG 1.1//EN" "http://www.w3.org/Graphics/SVG/1.1/DTD/svg11.dtd">
<!-- Creator: CorelDRAW X7 -->
<svg xmlns="http://www.w3.org/2000/svg" xml:space="preserve" width="4.4874mm" height="4.4873mm" version="1.1" style="shape-rendering:geometricPrecision; text-rendering:geometricPrecision; image-rendering:optimizeQuality; fill-rule:evenodd; clip-rule:evenodd"
viewBox="0 0 601 601"
 xmlns:xlink="http://www.w3.org/1999/xlink">
 <defs>
  <style type="text/css">
   <![CDATA[
    .fil0 {fill:white;fill-rule:nonzero}
   ]]>
  </style>
 </defs>
 <g id="Camada_x0020_1">
  <metadata id="CorelCorpID_0Corel-Layer"/>
  <path class="fil0" d="M596 119l-56 55 -114 -113 -43 43 114 114 -279 278 -113 -113 -44 43 114 113 -28 28 0 0c-3,5 -8,8 -14,10l-106 23c-2,1 -3,1 -5,1 -6,0 -11,-2 -16,-7 -5,-5 -7,-13 -5,-20l23 -106c1,-6 5,-11 10,-14l0 -1 448 -448c7,-7 17,-7 24,0l90 90c6,6 6,17 0,24z"/>
 </g>
</svg>
