<?xml version="1.0" encoding="UTF-8"?>
<!DOCTYPE svg PUBLIC "-//W3C//DTD SVG 1.1//EN" "http://www.w3.org/Graphics/SVG/1.1/DTD/svg11.dtd">
<!-- Creator: CorelDRAW X7 -->
<svg xmlns="http://www.w3.org/2000/svg" xml:space="preserve" width="10.7875mm" height="10.7876mm" version="1.1" style="shape-rendering:geometricPrecision; text-rendering:geometricPrecision; image-rendering:optimizeQuality; fill-rule:evenodd; clip-rule:evenodd"
viewBox="0 0 3232 3232"
 xmlns:xlink="http://www.w3.org/1999/xlink">
 <defs>
  <style type="text/css">
   <![CDATA[
    .fil2 {fill:#121149;fill-rule:nonzero}
    .fil3 {fill:#940030;fill-rule:nonzero}
    .fil4 {fill:#C2001B;fill-rule:nonzero}
    .fil1 {fill:#FF0F27;fill-rule:nonzero}
    .fil0 {fill:#FF6161;fill-rule:nonzero}
    .fil5 {fill:#FFEDB5;fill-rule:nonzero}
    .fil6 {fill:white;fill-rule:nonzero}
   ]]>
  </style>
 </defs>
 <g id="Camada_x0020_1">
  <metadata id="CorelCorpID_0Corel-Layer"/>
  <g id="_772879728">
   <path class="fil0" d="M1616 0c-892,0 -1616,724 -1616,1616 0,812 599,1485 1380,1599l1834 -1843c-118,-777 -788,-1372 -1598,-1372z"/>
   <path class="fil1" d="M2759 2759c378,-378 529,-896 455,-1387l-676 -675 -1838 1838 680 680c488,72 1003,-80 1379,-456z"/>
   <path class="fil2" d="M1618 2914l-136 -1369 1436 69c0,717 -583,1300 -1300,1300z"/>
   <path class="fil3" d="M1618 314c717,0 1300,583 1300,1300l-1436 0 136 -1300z"/>
   <path class="fil3" d="M1618 1614l0 1300c-716,0 -1299,-583 -1299,-1300l649 -206 650 206z"/>
   <path class="fil4" d="M1618 314l0 1300 -1299 0c0,-717 583,-1300 1299,-1300z"/>
   <path class="fil3" d="M1618 2703l-114 -1147 1203 58c0,600 -488,1089 -1089,1089z"/>
   <path class="fil4" d="M1618 525c601,0 1089,488 1089,1089l-1203 0 114 -1089z"/>
   <path class="fil4" d="M1618 1614l0 1089c-600,0 -1089,-489 -1089,-1089l545 -172 544 172z"/>
   <path class="fil1" d="M1618 525l0 1089 -1089 0c0,-601 489,-1089 1089,-1089z"/>
   <path class="fil5" d="M1618 796c196,0 426,229 426,426 0,300 -359,415 -359,591 0,71 -70,267 -70,267l-140 0 0 -267c0,-136 99,-232 187,-316 103,-100 171,-173 171,-275 0,-119 -96,-215 -215,-215 -118,0 -214,96 -214,215l-141 0c-68,-258 159,-426 355,-426z"/>
   <path class="fil6" d="M2114 1222c0,229 -149,372 -257,477 -36,35 -96,92 -101,115l0 266 -141 0 0 -267c0,-176 358,-291 358,-591 0,-197 -159,-355 -355,-355 -196,0 -355,158 -355,355l-140 0c0,-274 222,-496 495,-496 274,0 496,222 496,496z"/>
   <path class="fil6" d="M1756 2361c0,78 -63,140 -141,140 -77,0 -140,-62 -140,-140 0,-78 63,-141 140,-141 78,0 141,63 141,141z"/>
  </g>
 </g>
</svg>
