<?xml version="1.0" encoding="UTF-8"?>
<!DOCTYPE svg PUBLIC "-//W3C//DTD SVG 1.1//EN" "http://www.w3.org/Graphics/SVG/1.1/DTD/svg11.dtd">
<!-- Creator: CorelDRAW X7 -->
<svg xmlns="http://www.w3.org/2000/svg" xml:space="preserve" width="5.8116mm" height="5.8115mm" version="1.1" style="shape-rendering:geometricPrecision; text-rendering:geometricPrecision; image-rendering:optimizeQuality; fill-rule:evenodd; clip-rule:evenodd"
viewBox="0 0 850 850"
 xmlns:xlink="http://www.w3.org/1999/xlink">
 <defs>
  <style type="text/css">
   <![CDATA[
    .fil0 {fill:black;fill-rule:nonzero}
   ]]>
  </style>
 </defs>
 <g id="Camada_x0020_1">
  <metadata id="CorelCorpID_0Corel-Layer"/>
  <path class="fil0" d="M725 124c80,81 125,187 125,301 0,113 -45,220 -125,300 -80,80 -187,125 -300,125 -114,0 -220,-45 -301,-125 -80,-80 -124,-187 -124,-300 0,-114 44,-220 124,-301 81,-80 187,-124 301,-124 113,0 220,44 300,124zm-37 564c52,-53 87,-118 101,-189 -11,17 -22,23 -28,-14 -7,-60 -62,-22 -97,-43 -37,25 -119,-48 -105,34 22,37 116,-50 69,28 -30,55 -110,175 -99,238 1,91 -93,19 -126,-11 -22,-61 -7,-167 -65,-196 -62,-3 -115,-8 -139,-78 -14,-49 15,-123 69,-135 78,-49 105,57 178,59 23,-23 85,-31 90,-57 -48,-9 61,-41 -5,-59 -36,4 -59,38 -40,66 -70,16 -72,-101 -139,-64 -2,58 -110,19 -37,7 24,-11 -41,-43 -6,-37 18,-1 76,-21 60,-35 33,-20 60,48 92,-2 23,-38 -10,-45 -38,-26 -17,-18 28,-57 68,-74 13,-6 26,-9 35,-8 20,23 57,27 59,-3 -49,-23 -104,-36 -160,-36 -81,0 -158,26 -222,73 17,8 27,18 10,31 -12,38 -64,89 -110,82 -24,41 -39,86 -46,133 38,13 47,38 39,46 -20,17 -32,41 -38,68 12,76 48,146 104,202 70,70 164,108 263,108 99,0 192,-38 263,-108z"/>
 </g>
</svg>
