<?xml version="1.0" encoding="UTF-8"?>
<!DOCTYPE svg PUBLIC "-//W3C//DTD SVG 1.1//EN" "http://www.w3.org/Graphics/SVG/1.1/DTD/svg11.dtd">
<!-- Creator: CorelDRAW X7 -->
<svg xmlns="http://www.w3.org/2000/svg" xml:space="preserve" width="5.4577mm" height="4.6589mm" version="1.1" style="shape-rendering:geometricPrecision; text-rendering:geometricPrecision; image-rendering:optimizeQuality; fill-rule:evenodd; clip-rule:evenodd"
viewBox="0 0 701 598"
 xmlns:xlink="http://www.w3.org/1999/xlink">
 <defs>
  <style type="text/css">
   <![CDATA[
    .fil0 {fill:black;fill-rule:nonzero}
   ]]>
  </style>
 </defs>
 <g id="Camada_x0020_1">
  <metadata id="CorelCorpID_0Corel-Layer"/>
  <path class="fil0" d="M554 478l0 0c-29,-38 -69,-57 -98,-70 -5,-3 -12,-6 -17,-9 35,-32 57,-83 57,-138 0,-80 -46,-148 -108,-168 15,-54 57,-93 106,-93 62,0 112,63 112,140 0,59 -28,108 -69,130l4 20c32,37 160,40 160,188l-147 0zm-554 0c0,-151 132,-151 161,-190l4 -18c-42,-21 -71,-71 -71,-130 0,-77 51,-140 113,-140 49,0 90,39 106,93 -62,20 -108,88 -108,168 0,55 21,106 57,138 -6,3 -12,6 -18,9 -28,13 -68,32 -97,70l-147 0zm352 120l0 0 -209 0c0,-150 132,-150 162,-189l3 -18c-41,-21 -70,-71 -70,-130 0,-78 50,-140 112,-140 62,0 113,62 113,140 0,58 -29,108 -69,129l4 21c32,37 159,39 159,187l-205 0z"/>
 </g>
</svg>
