<?xml version="1.0" encoding="UTF-8"?>
<!DOCTYPE svg PUBLIC "-//W3C//DTD SVG 1.1//EN" "http://www.w3.org/Graphics/SVG/1.1/DTD/svg11.dtd">
<!-- Creator: CorelDRAW X7 -->
<svg xmlns="http://www.w3.org/2000/svg" xml:space="preserve" width="6.7765mm" height="5.5965mm" version="1.1" style="shape-rendering:geometricPrecision; text-rendering:geometricPrecision; image-rendering:optimizeQuality; fill-rule:evenodd; clip-rule:evenodd"
viewBox="0 0 1016 839"
 xmlns:xlink="http://www.w3.org/1999/xlink">
 <defs>
  <style type="text/css">
   <![CDATA[
    .fil0 {fill:black}
   ]]>
  </style>
 </defs>
 <g id="Camada_x0020_1">
  <metadata id="CorelCorpID_0Corel-Layer"/>
  <path class="fil0" d="M508 467l508 0c-281,-162 -746,-156 -1016,0 169,0 339,0 508,0zm-199 59c69,0 127,44 148,105 15,-10 32,-16 51,-16 19,0 37,6 51,16 21,-61 79,-105 148,-105 86,0 157,70 157,157 0,86 -71,156 -157,156 -87,0 -157,-70 -157,-156 0,-4 0,-8 1,-11 -10,-13 -26,-21 -43,-21 -17,0 -33,8 -42,21 0,3 0,7 0,11 0,86 -70,156 -157,156 -86,0 -156,-70 -156,-156 0,-87 70,-157 156,-157zm110 157c0,-61 -49,-110 -110,-110 -60,0 -109,49 -109,110 0,60 49,109 109,109 61,0 110,-49 110,-109zm89 -417l287 0 -86 -266 -259 39 -143 -39 -86 266 287 0zm89 417c0,-61 49,-110 110,-110 60,0 110,49 110,110 0,60 -50,109 -110,109 -61,0 -110,-49 -110,-109z"/>
 </g>
</svg>
