<?xml version="1.0" encoding="UTF-8"?>
<!DOCTYPE svg PUBLIC "-//W3C//DTD SVG 1.1//EN" "http://www.w3.org/Graphics/SVG/1.1/DTD/svg11.dtd">
<!-- Creator: CorelDRAW X7 -->
<svg xmlns="http://www.w3.org/2000/svg" xml:space="preserve" width="17.2778mm" height="17.2778mm" version="1.1" style="shape-rendering:geometricPrecision; text-rendering:geometricPrecision; image-rendering:optimizeQuality; fill-rule:evenodd; clip-rule:evenodd"
viewBox="0 0 7608 7608"
 xmlns:xlink="http://www.w3.org/1999/xlink">
 <defs>
  <style type="text/css">
   <![CDATA[
    .fil0 {fill:white}
    .fil1 {fill:#E6E6E6;fill-rule:nonzero}
    .fil2 {fill:black;fill-rule:nonzero;fill-opacity:0.501961}
   ]]>
  </style>
 </defs>
 <g id="Camada_x0020_1">
  <metadata id="CorelCorpID_0Corel-Layer"/>
  <g id="_999284704">
   <circle class="fil0" cx="3804" cy="3804" r="3804"/>
   <circle class="fil1" cx="3819" cy="3830" r="3330"/>
   <path class="fil2" d="M4726 2930c242,241 375,563 375,904 0,342 -133,663 -375,905 -242,242 -563,375 -905,375 -341,0 -663,-133 -904,-375 -242,-242 -375,-563 -375,-905 0,-341 133,-663 375,-904 241,-242 563,-375 904,-375 342,0 663,133 905,375zm-113 1696c158,-158 262,-354 306,-567 -34,49 -66,68 -86,-43 -21,-181 -187,-66 -291,-130 -110,74 -358,-144 -315,102 64,111 349,-149 207,86 -90,164 -331,527 -300,716 4,274 -280,57 -378,-34 -66,-182 -22,-501 -195,-590 -187,-8 -347,-25 -420,-234 -43,-150 47,-372 207,-407 235,-147 318,173 538,179 69,-72 255,-94 270,-174 -144,-26 183,-122 -14,-176 -108,12 -178,112 -120,197 -211,49 -218,-305 -420,-193 -5,176 -331,57 -113,21 75,-32 -122,-127 -15,-110 52,-3 228,-64 180,-106 98,-61 181,146 277,-5 69,-115 -30,-137 -116,-78 -49,-55 86,-173 205,-224 40,-17 78,-27 107,-24 60,70 172,82 177,-8 -148,-72 -313,-109 -483,-109 -244,0 -476,77 -668,221 52,23 81,53 32,90 -39,115 -196,270 -333,248 -72,123 -119,259 -139,401 115,38 142,114 117,139 -59,51 -95,124 -113,203 37,230 145,441 313,609 211,211 492,328 791,328 299,0 581,-117 792,-328z"/>
  </g>
 </g>
</svg>
