<?xml version="1.0" encoding="UTF-8"?>
<!DOCTYPE svg PUBLIC "-//W3C//DTD SVG 1.1//EN" "http://www.w3.org/Graphics/SVG/1.1/DTD/svg11.dtd">
<!-- Creator: CorelDRAW X7 -->
<svg xmlns="http://www.w3.org/2000/svg" xml:space="preserve" width="17.6517mm" height="17.6516mm" version="1.1" style="shape-rendering:geometricPrecision; text-rendering:geometricPrecision; image-rendering:optimizeQuality; fill-rule:evenodd; clip-rule:evenodd"
viewBox="0 0 9179 9179"
 xmlns:xlink="http://www.w3.org/1999/xlink">
 <defs>
  <style type="text/css">
   <![CDATA[
    .fil0 {fill:white}
    .fil2 {fill:black;fill-rule:nonzero;fill-opacity:0.501961}
    .fil1 {fill:url(#id0)}
   ]]>
  </style>
  <linearGradient id="id0" gradientUnits="userSpaceOnUse" x1="6944.02" y1="2227.41" x2="2229.65" y2="6941.78">
   <stop offset="0" style="stop-opacity:1; stop-color:#FFB800"/>
   <stop offset="1" style="stop-opacity:1; stop-color:#FF6600"/>
  </linearGradient>
 </defs>
 <g id="Camada_x0020_1">
  <metadata id="CorelCorpID_0Corel-Layer"/>
  <g id="_1026327888">
   <circle class="fil0" cx="4569" cy="4554" r="4493"/>
   <circle class="fil0" cx="4590" cy="4590" r="4590"/>
   <path class="fil1" d="M4587 656c2170,0 3928,1759 3928,3929 0,2169 -1758,3928 -3928,3928 -2170,0 -3929,-1759 -3929,-3928 0,-2170 1759,-3929 3929,-3929z"/>
   <path class="fil2" d="M5414 5313l0 0c-117,-153 -279,-229 -396,-284 -22,-10 -48,-22 -71,-34 145,-131 233,-337 233,-560 0,-325 -186,-598 -438,-678 62,-221 231,-379 429,-379 251,0 456,255 456,568 0,236 -116,439 -280,525l15 82c130,152 647,161 647,760l-595 0zm-2243 0c0,-609 534,-609 653,-768l13 -72c-166,-85 -284,-288 -284,-527 0,-313 204,-568 456,-568 198,0 366,158 429,378 -252,81 -439,354 -439,679 0,224 88,429 233,560 -23,12 -49,24 -71,34 -117,55 -279,131 -395,284l-595 0zm1425 488l0 0 -844 0c0,-608 534,-608 653,-767l13 -73c-166,-84 -284,-288 -284,-526 0,-314 204,-568 456,-568 251,0 455,254 455,568 0,236 -115,438 -280,524l16 83c130,151 647,161 647,759l-832 0z"/>
  </g>
 </g>
</svg>
