<?xml version="1.0" encoding="UTF-8"?>
<!DOCTYPE svg PUBLIC "-//W3C//DTD SVG 1.1//EN" "http://www.w3.org/Graphics/SVG/1.1/DTD/svg11.dtd">
<!-- Creator: CorelDRAW X7 -->
<svg xmlns="http://www.w3.org/2000/svg" xml:space="preserve" width="17.6517mm" height="17.6516mm" version="1.1" style="shape-rendering:geometricPrecision; text-rendering:geometricPrecision; image-rendering:optimizeQuality; fill-rule:evenodd; clip-rule:evenodd"
viewBox="0 0 13676 13676"
 xmlns:xlink="http://www.w3.org/1999/xlink">
 <defs>
  <style type="text/css">
   <![CDATA[
    .fil0 {fill:white}
    .fil2 {fill:black;fill-opacity:0.501961}
    .fil1 {fill:url(#id0)}
   ]]>
  </style>
  <linearGradient id="id0" gradientUnits="userSpaceOnUse" x1="10345.6" y1="3318.53" x2="3321.86" y2="10342.3">
   <stop offset="0" style="stop-opacity:1; stop-color:#FFB800"/>
   <stop offset="1" style="stop-opacity:1; stop-color:#FF6600"/>
  </linearGradient>
 </defs>
 <g id="Camada_x0020_1">
  <metadata id="CorelCorpID_0Corel-Layer"/>
  <g id="_772879536">
   <circle class="fil0" cx="6808" cy="6785" r="6693"/>
   <circle class="fil0" cx="6838" cy="6838" r="6838"/>
   <path class="fil1" d="M6834 977c-3233,0 -5853,2621 -5853,5853 0,3233 2620,5854 5853,5854 3232,0 5853,-2621 5853,-5854 0,-3232 -2621,-5853 -5853,-5853l0 0z"/>
   <path class="fil2" d="M6838 7086l2625 0c-1452,-839 -3853,-807 -5250,0 875,0 1750,0 2625,0zm-1027 301c354,0 654,227 764,544 75,-52 165,-82 263,-82 98,0 188,30 263,82 110,-317 411,-544 765,-544 447,0 809,363 809,810 0,447 -362,809 -809,809 -447,0 -810,-362 -810,-809 0,-19 1,-37 2,-55 -51,-66 -130,-109 -220,-109 -90,0 -169,43 -220,109 1,18 2,36 2,55 0,447 -362,809 -809,809 -447,0 -810,-362 -810,-809 0,-447 363,-810 810,-810zm566 810c0,-313 -254,-566 -566,-566 -313,0 -566,253 -566,566 0,312 253,566 566,566 312,0 566,-254 566,-566zm461 -2151l1485 0 -445 -1376 -1342 201 -738 -201 -444 1376 1484 0zm461 2151c0,-313 254,-566 567,-566 312,0 566,253 566,566 0,312 -254,566 -566,566 -313,0 -567,-254 -567,-566z"/>
  </g>
 </g>
</svg>
