<?xml version="1.0" encoding="UTF-8"?>
<!DOCTYPE svg PUBLIC "-//W3C//DTD SVG 1.1//EN" "http://www.w3.org/Graphics/SVG/1.1/DTD/svg11.dtd">
<!-- Creator: CorelDRAW X7 -->
<svg xmlns="http://www.w3.org/2000/svg" xml:space="preserve" width="14.7581mm" height="14.7581mm" version="1.1" style="shape-rendering:geometricPrecision; text-rendering:geometricPrecision; image-rendering:optimizeQuality; fill-rule:evenodd; clip-rule:evenodd"
viewBox="0 0 4915 4915"
 xmlns:xlink="http://www.w3.org/1999/xlink">
 <defs>
  <style type="text/css">
   <![CDATA[
    .fil1 {fill:#82CAC9}
    .fil0 {fill:white}
    .fil5 {fill:#BB483E;fill-rule:nonzero}
    .fil3 {fill:#C54B42;fill-rule:nonzero}
    .fil4 {fill:#D05045;fill-rule:nonzero}
    .fil2 {fill:#DB5449;fill-rule:nonzero}
    .fil8 {fill:#E2574C;fill-rule:nonzero}
    .fil6 {fill:#EB6258;fill-rule:nonzero}
    .fil10 {fill:#DBDBDC;fill-rule:nonzero}
    .fil9 {fill:#E4E4E4;fill-rule:nonzero}
    .fil7 {fill:#F3F3F3;fill-rule:nonzero}
    .fil11 {fill:black;fill-opacity:0.101961}
   ]]>
  </style>
 </defs>
 <g id="Camada_x0020_1">
  <metadata id="CorelCorpID_0Corel-Layer"/>
  <g id="_930668656">
   <circle class="fil0" cx="2458" cy="2458" r="2458"/>
   <circle class="fil1" cx="2467" cy="2474" r="2151"/>
   <g>
    <polygon class="fil2" points="1112,1797 2467,2474 3822,1797 3822,3242 2467,3919 1112,3242 "/>
    <polygon class="fil3" points="1112,1932 1112,2355 2463,3016 3822,2352 3822,1932 2467,2596 "/>
    <polygon class="fil4" points="2467,3919 2467,2474 1203,1842 1112,1842 1112,3242 "/>
    <polygon class="fil5" points="1112,1932 1112,2355 2463,3016 2467,3014 2467,2594 2467,2596 "/>
    <polygon class="fil6" points="1022,1750 2467,1029 3912,1750 3912,1844 2467,2565 1022,1847 "/>
    <path class="fil7" d="M3296 1257c-48,-85 -149,-137 -269,-137 -273,0 -465,255 -560,417 -95,-162 -289,-415 -560,-415 -174,0 -298,106 -298,251 0,257 282,424 849,424 567,0 867,-214 867,-422 0,-41 -9,-81 -29,-118zm-1330 278c-63,-43 -86,-90 -86,-122 0,-38 36,-68 88,-68 122,0 219,161 273,271 -142,-11 -225,-49 -275,-81zm1002 0c-49,32 -133,70 -275,81 52,-110 149,-271 273,-271 52,0 88,30 88,68 0,32 -22,79 -86,122z"/>
    <polygon class="fil8" points="1022,1752 2467,2459 3912,1752 3912,2219 2463,2926 1022,2219 "/>
    <polygon class="fil7" points="3009,2255 3009,2203 2467,1910 1925,2203 1925,2255 1564,2097 1564,2025 2449,1558 2467,1567 2485,1558 3370,2023 3370,2095 "/>
    <polygon class="fil9" points="3009,2203 3009,3646 3370,3466 3370,2023 "/>
    <polygon class="fil10" points="1564,3468 1925,3648 1925,2206 1564,2023 "/>
   </g>
   <path class="fil11" d="M4618 2457l-706 -705 0 92 0 375 -90 44 0 89 0 890 -1355 677 -542 -271 -361 -180 -452 -226 1386 1383c1174,-16 2120,-973 2120,-2151 0,-6 0,-11 0,-17z"/>
  </g>
 </g>
</svg>
