<?xml version="1.0" encoding="UTF-8"?>
<!DOCTYPE svg PUBLIC "-//W3C//DTD SVG 1.1//EN" "http://www.w3.org/Graphics/SVG/1.1/DTD/svg11.dtd">
<!-- Creator: CorelDRAW X7 -->
<svg xmlns="http://www.w3.org/2000/svg" xml:space="preserve" width="14.7581mm" height="14.7581mm" version="1.1" style="shape-rendering:geometricPrecision; text-rendering:geometricPrecision; image-rendering:optimizeQuality; fill-rule:evenodd; clip-rule:evenodd"
viewBox="0 0 6174 6174"
 xmlns:xlink="http://www.w3.org/1999/xlink">
 <defs>
  <style type="text/css">
   <![CDATA[
    .fil0 {fill:white}
    .fil1 {fill:#FAC02F;fill-rule:nonzero}
    .fil2 {fill:#EB9C36;fill-rule:nonzero}
    .fil4 {fill:#26B2C1;fill-rule:nonzero}
    .fil7 {fill:#288ABB;fill-rule:nonzero}
    .fil6 {fill:#2D8997;fill-rule:nonzero}
    .fil3 {fill:#3D6077;fill-rule:nonzero}
    .fil5 {fill:#354F5F;fill-rule:nonzero}
    .fil8 {fill:#2D3F4B;fill-rule:nonzero}
   ]]>
  </style>
 </defs>
 <g id="Camada_x0020_1">
  <metadata id="CorelCorpID_0Corel-Layer"/>
  <g id="_765683664">
   <circle class="fil0" cx="3087" cy="3087" r="3087"/>
   <circle class="fil0" cx="3099" cy="3108" r="2702"/>
   <g>
    <path class="fil1" d="M3099 408c-1491,0 -2700,1209 -2700,2700 0,1491 1209,2699 2700,2699 1491,0 2699,-1208 2699,-2699 0,-1491 -1208,-2700 -2699,-2700l0 0z"/>
    <path class="fil2" d="M3099 5807c1292,0 2372,-908 2636,-2122l0 0c-9,-10 -2086,-2086 -2096,-2096 -135,-143 -327,-233 -540,-233 -412,0 -745,333 -745,745 0,18 0,919 0,919l0 242 -514 0c-41,0 -74,33 -74,73 0,28 16,51 39,64 7,12 17,22 29,29 7,12 17,22 29,29l3 4 0 129c0,277 91,532 243,740 -5,12 -8,26 -8,40 0,37 19,69 47,88 8,12 833,837 844,844 4,6 8,10 12,15l0 488 9 0c7,0 14,0 20,0 22,1 44,2 66,2l0 0z"/>
    <path class="fil3" d="M3844 2101c0,-412 -334,-745 -745,-745 -412,0 -745,333 -745,745 0,18 0,53 0,53l0 1436c0,411 333,745 745,745 411,0 745,-334 745,-745l0 -1436c0,0 0,-35 0,-53l0 0z"/>
    <path class="fil4" d="M2354 3020l0 570c0,379 284,692 650,739l0 459 189 0 0 -459c367,-47 650,-360 650,-739l0 -570 -1489 0 0 0z"/>
    <path class="fil5" d="M3099 1356l0 1664 745 0 0 -866c0,0 0,-35 0,-53 0,-412 -334,-745 -745,-745l0 0zm745 2235l0 1 0 -1zm0 1l0 1 0 -1zm0 2l0 0 0 0zm0 1l0 0 0 0zm-1 1l0 0 0 0zm0 1l0 1 0 -1zm0 1l0 1 0 -1zm0 1l0 1 0 -1zm0 1l0 1 0 -1zm0 2l0 0 0 0zm0 1l0 0 0 0zm0 1l0 1 0 -1zm0 2l0 0 0 0zm0 1l0 0 0 0zm0 1l0 1 0 -1zm0 1l0 1 0 -1zm0 1l0 1 0 -1zm0 1l0 1 0 -1zm0 1l0 1 0 -1zm0 1l0 1 0 -1 0 0zm0 2l0 0 0 0 0 0zm0 1l0 9 0 -9 0 0zm0 9c-17,364 -295,659 -650,704l0 0c355,-45 633,-340 650,-704l0 0z"/>
    <path class="fil6" d="M3844 3020l-745 0 0 1315c32,0 63,-2 94,-6l0 0c355,-45 633,-340 650,-704l0 0 0 -9 0 0 0 -1 0 -1 0 -1 0 -593 1 0z"/>
    <path class="fil7" d="M3099 3020l0 1768 94 0 0 -459c367,-47 650,-360 650,-739l0 -570 -744 0z"/>
    <path class="fil8" d="M3099 2465c52,0 95,42 95,95 0,52 -43,94 -95,94 -53,0 -95,-42 -95,-94 0,-53 42,-95 95,-95z"/>
    <path class="fil8" d="M2831 2603l-477 0 0 100 477 0c28,0 50,-22 50,-50 0,-27 -22,-50 -50,-50zm0 -187l-477 0 0 100 477 0c28,0 50,-23 50,-50 0,-28 -22,-50 -50,-50zm0 375l-477 0 0 99 477 0c28,0 50,-22 50,-50 0,-27 -22,-49 -50,-49zm50 -512c0,-28 -22,-50 -50,-50l-477 0 0 99 477 0c28,0 50,-22 50,-49z"/>
    <path class="fil8" d="M3366 2603c-27,0 -50,23 -50,50 0,28 23,50 50,50l477 0 0 -100 -477 0 0 0zm0 188c-27,0 -50,22 -50,49 0,28 23,50 50,50l477 0 0 -99 -477 0 0 0zm0 -375c-27,0 -50,22 -50,50 0,27 23,50 50,50l477 0 0 -100 -477 0 0 0zm478 -187l-478 0c-27,0 -50,22 -50,50 0,27 23,49 50,49l478 0 0 -99z"/>
    <path class="fil3" d="M4267 3590c0,254 -82,489 -222,680 -11,-4 -22,-6 -34,-6 -58,0 -106,47 -106,106 0,17 4,32 11,46 -186,180 -431,298 -704,320 -14,-30 -39,-53 -71,-64l0 -1263 1126 0 0 181zm-1211 1082c-30,11 -55,33 -69,61 -264,-29 -501,-149 -681,-327 5,-11 7,-23 7,-36 0,-59 -47,-106 -106,-106 -7,0 -14,1 -21,2 -138,-190 -220,-423 -220,-676l0 -181 1090 0 0 1263zm1302 -1410l-2518 0c-41,0 -74,33 -74,73 0,41 33,74 74,74l26 0 0 181c0,277 91,532 243,740 -5,12 -8,26 -8,40 0,59 48,106 106,106 9,0 17,-1 25,-3 197,197 458,329 750,360 5,14 13,26 22,37l0 935c32,1 63,2 95,2 31,0 63,-1 94,-2l0 -934c9,-11 16,-22 22,-35 305,-24 580,-157 784,-361l12 1c59,0 106,-47 106,-106 0,-9 -1,-18 -4,-26 159,-210 254,-471 254,-754l0 -182c36,-5 64,-35 64,-73 0,-40 -33,-73 -73,-73z"/>
   </g>
  </g>
 </g>
</svg>
