<?xml version="1.0" encoding="UTF-8"?>
<!DOCTYPE svg PUBLIC "-//W3C//DTD SVG 1.1//EN" "http://www.w3.org/Graphics/SVG/1.1/DTD/svg11.dtd">
<!-- Creator: CorelDRAW X7 -->
<svg xmlns="http://www.w3.org/2000/svg" xml:space="preserve" width="14.7581mm" height="14.7581mm" version="1.1" style="shape-rendering:geometricPrecision; text-rendering:geometricPrecision; image-rendering:optimizeQuality; fill-rule:evenodd; clip-rule:evenodd"
viewBox="0 0 12651 12651"
 xmlns:xlink="http://www.w3.org/1999/xlink">
 <defs>
  <style type="text/css">
   <![CDATA[
    .fil0 {fill:white}
    .fil3 {fill:#FBEBB6;fill-rule:nonzero}
    .fil4 {fill:#FBE28A;fill-rule:nonzero}
    .fil5 {fill:#EAA43E;fill-rule:nonzero}
    .fil6 {fill:#E19538;fill-rule:nonzero}
    .fil1 {fill:#38497F;fill-rule:nonzero}
    .fil2 {fill:#312E52;fill-rule:nonzero}
   ]]>
  </style>
 </defs>
 <g id="Camada_x0020_1">
  <metadata id="CorelCorpID_0Corel-Layer"/>
  <g id="_1026038080">
   <circle class="fil0" cx="6326" cy="6326" r="6326"/>
   <circle class="fil0" cx="6350" cy="6369" r="5537"/>
   <g>
    <path class="fil1" d="M6350 837c3055,0 5532,2477 5532,5532 0,3055 -2477,5532 -5532,5532 -3055,0 -5531,-2477 -5531,-5532 0,-3055 2476,-5532 5531,-5532z"/>
    <path class="fil2" d="M6584 11895c2869,-119 5173,-2423 5293,-5291l-2857 -2857 -466 654 -4838 4626 2868 2868z"/>
    <path class="fil3" d="M8710 9135l-4719 0c-224,0 -407,-182 -407,-407l0 -4718c0,-225 182,-407 407,-407l4719 0c224,0 406,182 406,407l0 4718c0,225 -182,407 -406,407z"/>
    <path class="fil4" d="M8710 3603l-2372 0 0 5532 2372 0c224,0 406,-182 406,-407l0 -4718c0,-225 -182,-407 -406,-407z"/>
    <path class="fil5" d="M8418 8716l-4135 0c-154,0 -280,-125 -280,-280l0 -4135c0,-154 126,-279 280,-279l4135 0c154,0 279,125 279,279l0 4135c0,155 -125,280 -279,280z"/>
    <path class="fil6" d="M8418 4022l-2080 0 0 4694 2080 0c154,0 279,-125 279,-280l0 -4135c0,-154 -125,-279 -279,-279z"/>
    <path class="fil1" d="M6369 6890l-1080 0c-72,0 -131,-58 -131,-130 0,-72 59,-130 131,-130l950 0 0 -1490c0,-72 58,-131 130,-131 72,0 130,59 130,131l0 1620c0,72 -58,130 -130,130z"/>
   </g>
  </g>
 </g>
</svg>
