<?xml version="1.0" encoding="UTF-8"?>
<!DOCTYPE svg PUBLIC "-//W3C//DTD SVG 1.1//EN" "http://www.w3.org/Graphics/SVG/1.1/DTD/svg11.dtd">
<!-- Creator: CorelDRAW X7 -->
<svg xmlns="http://www.w3.org/2000/svg" xml:space="preserve" width="14.7581mm" height="14.7581mm" version="1.1" style="shape-rendering:geometricPrecision; text-rendering:geometricPrecision; image-rendering:optimizeQuality; fill-rule:evenodd; clip-rule:evenodd"
viewBox="0 0 17151 17151"
 xmlns:xlink="http://www.w3.org/1999/xlink">
 <defs>
  <style type="text/css">
   <![CDATA[
    .fil1 {fill:#BFA2CE}
    .fil0 {fill:white}
    .fil5 {fill:white;fill-rule:nonzero}
    .fil2 {fill:white;fill-rule:nonzero;fill-opacity:0.400000}
    .fil3 {fill:white;fill-rule:nonzero;fill-opacity:0.600000}
    .fil4 {fill:white;fill-rule:nonzero;fill-opacity:0.800000}
   ]]>
  </style>
 </defs>
 <g id="Camada_x0020_1">
  <metadata id="CorelCorpID_0Corel-Layer"/>
  <g id="_1045931888">
   <circle class="fil0" cx="8575" cy="8575" r="8575"/>
   <circle class="fil1" cx="8609" cy="8634" r="7506"/>
   <path class="fil2" d="M11323 5381c90,31 184,52 285,52 100,0 195,-21 285,-52 348,-119 600,-445 600,-834 0,-489 -396,-885 -885,-885 -489,0 -886,396 -886,885 0,389 252,715 601,834zm-260 4349c-57,0 -112,-6 -166,-19l0 1947c45,17 92,29 143,29 225,0 407,-182 407,-407l0 -1664c-49,30 -100,59 -156,78 -74,24 -150,36 -228,36zm2399 -1450l-682 -2098c-92,-280 -351,-469 -645,-469l-1054 0c-245,0 -459,134 -579,339 268,110 483,330 577,619l682 2098c31,95 42,193 34,290 -4,38 -18,74 -27,111l0 2110c0,225 182,407 407,407 225,0 407,-182 407,-407l0 -3107 116 356c55,170 212,278 382,278 41,0 83,-7 124,-20 159,-52 263,-192 276,-348 5,-52 -1,-106 -18,-159z"/>
   <path class="fil3" d="M9306 5973c90,31 185,51 285,51 100,0 195,-20 285,-51 348,-119 600,-445 600,-834 0,-489 -396,-885 -885,-885 -489,0 -885,396 -885,885 0,389 252,715 600,834zm-233 4421c-57,0 -113,-7 -166,-19l0 1880c37,11 75,23 117,23 224,0 406,-182 406,-406l0 -1580c-42,24 -83,50 -130,65 -74,24 -150,37 -227,37zm1690 -3621c-91,-280 -350,-468 -645,-468l-1054 0c-192,0 -364,86 -489,219 -23,31 -48,62 -75,91 -16,24 -27,52 -40,79 292,102 528,333 628,640l682 2098c31,95 42,194 34,290 -7,75 -25,147 -52,215l0 1935c0,224 182,406 407,406 224,0 406,-182 406,-406l0 -3107 116 355c55,170 213,278 382,278 41,0 83,-6 125,-20 158,-51 263,-192 276,-348 5,-52 -1,-106 -18,-158l-683 -2099z"/>
   <path class="fil4" d="M7315 6637c90,30 185,51 285,51 101,0 195,-21 285,-51 349,-119 601,-446 601,-834 0,-489 -397,-886 -886,-886 -489,0 -885,397 -885,886 0,388 252,715 600,834zm-233 4420c-57,0 -113,-6 -166,-18l0 1879c37,12 75,24 117,24 224,0 407,-182 407,-407l0 -1579c-42,24 -83,50 -131,65 -73,24 -150,36 -227,36zm1690 -3620c-91,-280 -350,-469 -645,-469l-1054 0c-192,0 -363,86 -488,219 -24,32 -49,62 -76,91 -16,25 -27,52 -40,79 292,102 528,334 628,641l683 2098c30,95 42,193 33,290 -6,75 -25,147 -52,214l0 1935c0,225 182,407 407,407 225,0 407,-182 407,-407l0 -3107 115 356c56,170 213,278 383,278 41,0 83,-6 124,-20 158,-52 263,-192 276,-348 5,-52 -1,-106 -18,-159l-683 -2098z"/>
   <path class="fil5" d="M5325 7300c90,31 184,51 285,51 100,0 195,-20 284,-51 349,-119 601,-445 601,-834 0,-489 -396,-885 -885,-885 -489,0 -886,396 -886,885 0,389 252,715 601,834zm1457 800c-92,-280 -351,-468 -645,-468l-1055 0c-294,0 -553,188 -644,468l-683 2099c-13,40 -20,81 -20,121l0 6c0,10 1,21 2,32 13,156 117,296 276,348 41,13 83,20 124,20 170,0 327,-108 382,-278l116 -356 0 3107c0,224 182,407 407,407 225,0 407,-183 407,-407l0 -2431 321 0 0 2431c0,225 182,407 407,407 225,0 407,-182 407,-407l0 -3107 115 356c56,170 213,278 383,278 41,0 83,-7 124,-20 159,-52 263,-192 276,-348 5,-53 -1,-106 -18,-159l-682 -2099z"/>
  </g>
 </g>
</svg>
