<?xml version="1.0" encoding="UTF-8"?>
<!DOCTYPE svg PUBLIC "-//W3C//DTD SVG 1.1//EN" "http://www.w3.org/Graphics/SVG/1.1/DTD/svg11.dtd">
<!-- Creator: CorelDRAW X7 -->
<svg xmlns="http://www.w3.org/2000/svg" xml:space="preserve" width="14.7581mm" height="14.7581mm" version="1.1" style="shape-rendering:geometricPrecision; text-rendering:geometricPrecision; image-rendering:optimizeQuality; fill-rule:evenodd; clip-rule:evenodd"
viewBox="0 0 26615 26615"
 xmlns:xlink="http://www.w3.org/1999/xlink">
 <defs>
  <style type="text/css">
   <![CDATA[
    .fil0 {fill:white}
    .fil2 {fill:#FEFEFE;fill-rule:nonzero}
    .fil1 {fill:#FFD163;fill-rule:nonzero}
    .fil4 {fill:#F48870;fill-rule:nonzero}
    .fil6 {fill:#F15D4C;fill-rule:nonzero}
    .fil3 {fill:#F8B656;fill-rule:nonzero}
    .fil7 {fill:#E7E9ED;fill-rule:nonzero}
    .fil9 {fill:#CED6E1;fill-rule:nonzero}
    .fil8 {fill:#415466;fill-rule:nonzero}
    .fil5 {fill:#3C4857;fill-rule:nonzero}
   ]]>
  </style>
 </defs>
 <g id="Camada_x0020_1">
  <metadata id="CorelCorpID_0Corel-Layer"/>
  <g id="_765688976">
   <circle class="fil0" cx="13308" cy="13308" r="13308"/>
   <circle class="fil0" cx="13359" cy="13398" r="11648"/>
   <g>
    <path class="fil1" d="M13359 1761c6427,0 11638,5210 11638,11637 0,6428 -5211,11638 -11638,11638 -6427,0 -11637,-5210 -11637,-11638 0,-6427 5210,-11637 11637,-11637z"/>
    <path class="fil2" d="M4406 12524c222,68 275,540 117,1052 -158,513 -466,873 -688,805 -223,-69 -275,-540 -118,-1053 158,-512 466,-872 689,-804z"/>
    <path class="fil3" d="M2620 17870c1759,4215 5901,7166 10739,7166 4839,0 8999,-2951 10740,-7166l-21479 0z"/>
    <path class="fil2" d="M22743 15048l-165 -19c-92,-18 -147,-91 -147,-183l165 -1063c18,-91 92,-146 183,-146l165 18c92,18 147,92 147,183l-165 1063c-19,92 -92,165 -183,147z"/>
    <path class="fil4" d="M22449 15359c-110,385 -458,660 -843,660l-12370 147 -183 0c0,0 -3501,110 -4600,-513 -147,-92 -257,-184 -312,-312 0,0 -880,-2016 1026,-3519l1760 -2272c220,-348 2236,-623 4691,-623 2456,0 4472,275 4692,623l1338 2144c128,202 348,330 568,330 898,36 3152,165 4178,568 275,110 458,367 477,641 36,532 -238,1448 -422,2126z"/>
    <path class="fil5" d="M9236 16166l-183 0c0,0 -3501,110 -4600,-513 421,-624 2144,-2749 4123,73 165,220 403,366 660,440z"/>
    <path class="fil5" d="M22266 15726c-165,183 -403,293 -660,293l-3702 37c220,-110 404,-293 532,-532 550,-1063 2529,-2327 3830,202z"/>
    <path class="fil6" d="M16292 9532c-239,-349 -2236,-624 -4674,-624 -2437,0 -4435,275 -4673,624l9347 0z"/>
    <path class="fil2" d="M11362 11987l5278 0c238,0 385,-275 256,-476l-898 -1448c-55,-92 -146,-147 -256,-147l-4380 0c-165,0 -312,147 -312,312l0 1448c0,183 147,311 312,311z"/>
    <path class="fil7" d="M12700 9916l-1338 0c-165,0 -312,147 -312,312l0 1448c0,165 147,311 312,311l3409 0 -2071 -2071z"/>
    <path class="fil2" d="M10482 9916l-3024 0c-92,0 -183,37 -238,110l-1136 1448c-165,202 -19,495 238,495l4160 0c165,0 312,-147 312,-312l0 -1447c0,-165 -129,-294 -312,-294z"/>
    <path class="fil7" d="M7990 9916l-532 0c-92,0 -183,37 -238,110l-1136 1448c-165,202 -19,495 238,495l2694 0 -1026 -2053z"/>
    <path class="fil8" d="M20378 14571c911,0 1650,739 1650,1650 0,911 -739,1649 -1650,1649 -910,0 -1649,-738 -1649,-1649 0,-911 739,-1650 1649,-1650z"/>
    <path class="fil7" d="M20378 15213c557,0 1008,451 1008,1008 0,556 -451,1008 -1008,1008 -556,0 -1007,-452 -1007,-1008 0,-557 451,-1008 1007,-1008z"/>
    <path class="fil9" d="M20378 15561c365,0 660,295 660,660 0,364 -295,659 -660,659 -364,0 -659,-295 -659,-659 0,-365 295,-660 659,-660z"/>
    <path class="fil8" d="M6450 14571c911,0 1650,739 1650,1650 0,911 -739,1649 -1650,1649 -911,0 -1649,-738 -1649,-1649 0,-911 738,-1650 1649,-1650z"/>
    <path class="fil7" d="M6450 15213c557,0 1008,451 1008,1008 0,556 -451,1008 -1008,1008 -557,0 -1008,-452 -1008,-1008 0,-557 451,-1008 1008,-1008z"/>
    <path class="fil9" d="M6450 15561c365,0 660,295 660,660 0,364 -295,659 -660,659 -364,0 -660,-295 -660,-659 0,-365 296,-660 660,-660z"/>
    <path class="fil2" d="M4343 15817c0,0 18,-18 36,-54 19,-37 55,-92 92,-147 92,-128 202,-312 403,-513 183,-202 440,-458 806,-642 184,-91 385,-165 605,-201 220,-37 477,-19 715,55 238,73 477,183 696,348 220,165 422,348 605,568 92,110 183,220 275,330 37,55 92,110 128,165 37,37 92,91 129,128 110,73 220,147 348,183 128,37 256,55 403,55 605,0 1228,0 1869,-18 642,0 1283,0 1925,0 641,0 1282,0 1924,0 641,0 1265,0 1869,18 74,0 147,0 220,0 73,0 128,-18 202,-36 73,-19 128,-37 183,-74 37,-18 55,-36 92,-55 18,-18 55,-36 91,-55 110,-73 202,-164 275,-274 19,-19 37,-55 55,-74l55 -91c37,-55 73,-129 110,-184 330,-476 788,-806 1265,-971 238,-92 476,-110 714,-92 239,19 440,74 624,165 366,184 604,458 769,678 165,220 275,422 348,569 74,128 110,201 110,201 0,0 -36,-73 -110,-201 -73,-129 -201,-312 -366,-532 -183,-220 -422,-458 -770,-623 -348,-165 -806,-183 -1246,-18 -220,91 -421,201 -623,366 -202,165 -385,348 -532,568 -36,55 -73,110 -110,165l-36 110c-19,37 -37,74 -55,92 -92,128 -202,238 -330,330 -37,18 -73,36 -110,73 -37,18 -73,37 -110,55 -73,37 -147,55 -220,92 -73,18 -165,36 -238,36 -74,0 -165,0 -238,0 -605,0 -1228,0 -1870,19 -641,0 -1283,0 -1924,0 -641,0 -1283,0 -1924,0 -642,0 -1265,0 -1870,-19 -73,0 -165,0 -238,-18 -73,-18 -165,-37 -238,-55 -147,-55 -293,-128 -422,-220 -55,-55 -110,-110 -165,-165 -36,-55 -91,-110 -128,-183 -73,-110 -165,-220 -256,-330 -184,-202 -367,-385 -568,-550 -202,-165 -422,-275 -642,-348 -440,-147 -898,-73 -1246,92 -348,165 -605,384 -806,586 -202,202 -330,367 -422,495 -37,55 -73,110 -92,147 -18,36 -36,54 -36,54z"/>
    <path class="fil2" d="M12260 12739l-843 0c-147,0 -257,-110 -257,-257l1375 0 0 0c0,147 -129,257 -275,257z"/>
   </g>
  </g>
 </g>
</svg>
