<?xml version="1.0" encoding="UTF-8"?>
<!DOCTYPE svg PUBLIC "-//W3C//DTD SVG 1.1//EN" "http://www.w3.org/Graphics/SVG/1.1/DTD/svg11.dtd">
<!-- Creator: CorelDRAW X7 -->
<svg xmlns="http://www.w3.org/2000/svg" xml:space="preserve" width="14.7581mm" height="14.7581mm" version="1.1" style="shape-rendering:geometricPrecision; text-rendering:geometricPrecision; image-rendering:optimizeQuality; fill-rule:evenodd; clip-rule:evenodd"
viewBox="0 0 15128 15128"
 xmlns:xlink="http://www.w3.org/1999/xlink">
 <defs>
  <style type="text/css">
   <![CDATA[
    .fil0 {fill:white}
    .fil4 {fill:#735542;fill-rule:nonzero}
    .fil2 {fill:#D46A56;fill-rule:nonzero}
    .fil1 {fill:#E6A52E;fill-rule:nonzero}
    .fil3 {fill:#F6E0C2;fill-rule:nonzero}
   ]]>
  </style>
 </defs>
 <g id="Camada_x0020_1">
  <metadata id="CorelCorpID_0Corel-Layer"/>
  <g id="_772882320">
   <circle class="fil0" cx="7564" cy="7564" r="7564"/>
   <g>
    <path class="fil1" d="M14185 7564c0,3657 -2964,6621 -6621,6621 -3656,0 -6621,-2964 -6621,-6621 0,-3657 2965,-6621 6621,-6621 3657,0 6621,2964 6621,6621z"/>
    <path class="fil2" d="M7114 7807c0,-807 -654,-1461 -1462,-1461 -553,0 -1034,308 -1282,761l1377 2158c763,-48 1367,-682 1367,-1458z"/>
    <path class="fil3" d="M7514 4913c-2182,0 -3737,1132 -3752,1144 -14,10 -29,20 -43,29l651 1021c248,-453 729,-761 1282,-761 808,0 1462,654 1462,1461 0,776 -604,1410 -1367,1458l1239 1942c116,172 308,277 516,281 4,0 8,0 12,0 203,0 394,-97 514,-261l1653 -2384 1339 -1931 528 -761c-58,-20 -115,-48 -168,-85 -16,-11 -1672,-1153 -3866,-1153zm458 5043c-351,0 -635,-284 -635,-635 0,-351 284,-635 635,-635 351,0 635,284 635,635 0,351 -284,635 -635,635zm908 -2310c-553,0 -1001,-448 -1001,-1001 0,-553 448,-1001 1001,-1001 553,0 1001,448 1001,1001 0,553 -448,1001 -1001,1001z"/>
    <path class="fil3" d="M6256 3743c318,-52 654,-87 1005,-98 -358,11 -693,46 -1005,98z"/>
    <path class="fil2" d="M9881 6645c0,553 -448,1001 -1001,1001 -553,0 -1001,-448 -1001,-1001 0,-553 448,-1001 1001,-1001 553,0 1001,448 1001,1001z"/>
    <path class="fil2" d="M8607 9321c0,351 -284,635 -635,635 -351,0 -635,-284 -635,-635 0,-351 284,-635 635,-635 351,0 635,284 635,635z"/>
    <path class="fil4" d="M12115 5027c-79,-56 -1934,-1348 -4487,-1386 -38,0 -76,-1 -114,-1 -40,0 -79,1 -119,1 -7,0 -14,1 -21,1 -33,0 -67,1 -100,2 -4,0 -8,0 -13,1 -351,11 -687,46 -1005,98 -1928,314 -3193,1247 -3256,1294 -281,211 -339,610 -128,892 125,167 316,255 509,255 117,0 233,-32 338,-98 14,-9 29,-19 43,-29 15,-12 1570,-1144 3752,-1144 2194,0 3850,1142 3866,1153 53,37 110,65 168,85 259,85 553,-3 718,-237 204,-287 136,-684 -151,-887z"/>
   </g>
  </g>
 </g>
</svg>
