<?xml version="1.0" encoding="UTF-8"?>
<!DOCTYPE svg PUBLIC "-//W3C//DTD SVG 1.1//EN" "http://www.w3.org/Graphics/SVG/1.1/DTD/svg11.dtd">
<!-- Creator: CorelDRAW X7 -->
<svg xmlns="http://www.w3.org/2000/svg" xml:space="preserve" width="14.7581mm" height="14.7581mm" version="1.1" style="shape-rendering:geometricPrecision; text-rendering:geometricPrecision; image-rendering:optimizeQuality; fill-rule:evenodd; clip-rule:evenodd"
viewBox="0 0 9296 9296"
 xmlns:xlink="http://www.w3.org/1999/xlink">
 <defs>
  <style type="text/css">
   <![CDATA[
    .fil0 {fill:white}
    .fil2 {fill:#9E231D;fill-rule:nonzero}
    .fil1 {fill:#C63C22;fill-rule:nonzero}
    .fil8 {fill:#CE8400;fill-rule:nonzero}
    .fil4 {fill:#D0D5D9;fill-rule:nonzero}
    .fil6 {fill:#D8C49C;fill-rule:nonzero}
    .fil5 {fill:#F0DEB4;fill-rule:nonzero}
    .fil7 {fill:#FFA800;fill-rule:nonzero}
    .fil3 {fill:white;fill-rule:nonzero}
   ]]>
  </style>
 </defs>
 <g id="Camada_x0020_1">
  <metadata id="CorelCorpID_0Corel-Layer"/>
  <g id="_1045932784">
   <circle class="fil0" cx="4648" cy="4648" r="4648"/>
   <g>
    <path class="fil1" d="M8717 4648c0,2247 -1822,4069 -4069,4069 -2247,0 -4068,-1822 -4068,-4069 0,-2247 1821,-4068 4068,-4068 2247,0 4069,1821 4069,4068z"/>
    <path class="fil2" d="M8708 4394l-2648 -2649 -2875 5475 1497 1496c2231,-18 4035,-1832 4035,-4068 0,-85 -3,-170 -9,-254z"/>
    <path class="fil3" d="M6263 3295c250,0 454,-203 454,-454 0,-250 -204,-453 -454,-453 -6,0 -13,0 -19,1 12,-52 19,-105 19,-159 0,-376 -305,-681 -680,-681 -232,0 -436,116 -559,293 -80,-71 -185,-114 -300,-114 -101,0 -194,33 -269,88 -124,-162 -320,-267 -540,-267 -287,0 -532,178 -632,429 -59,-28 -125,-44 -195,-44 -251,0 -454,203 -454,454 0,250 203,453 454,453l3175 454z"/>
    <path class="fil4" d="M6263 2388c-6,0 -13,0 -19,1 12,-51 19,-105 19,-159 0,-376 -305,-681 -680,-681 -232,0 -436,116 -559,293 -80,-71 -185,-114 -300,-114 -25,0 -48,2 -71,6l0 1331 1610 230c250,0 454,-203 454,-454 0,-250 -204,-453 -454,-453z"/>
    <path class="fil5" d="M7108 3744l-878 0 0 -904 -3164 0 0 4076c0,246 199,444 444,444l2276 0c245,0 444,-198 444,-444l0 -912 878 0c139,0 252,-113 252,-252l0 -1756c0,-139 -113,-252 -252,-252zm-67 1686c0,101 -82,184 -184,184l-534 0 0 -1480 534 0c102,0 184,83 184,184l0 1112z"/>
    <path class="fil6" d="M7108 3744l-878 0 0 -904 -1577 0 0 4520 1133 0c245,0 444,-198 444,-444l0 -912 878 0c139,0 252,-113 252,-252l0 -1756c0,-139 -113,-252 -252,-252zm-67 1686c0,101 -82,184 -184,184l-534 0 0 -1480 534 0c102,0 184,83 184,184l0 1112z"/>
    <path class="fil7" d="M3643 7096l2010 0c217,0 392,-175 392,-392l0 -2531 -2794 0 0 2531c0,217 175,392 392,392z"/>
    <path class="fil8" d="M4653 4173l0 2923 1000 0c217,0 392,-175 392,-392l0 -2531 -1392 0z"/>
   </g>
  </g>
 </g>
</svg>
