<?xml version="1.0" encoding="UTF-8"?>
<!DOCTYPE svg PUBLIC "-//W3C//DTD SVG 1.1//EN" "http://www.w3.org/Graphics/SVG/1.1/DTD/svg11.dtd">
<!-- Creator: CorelDRAW X7 -->
<svg xmlns="http://www.w3.org/2000/svg" xml:space="preserve" width="14.7581mm" height="14.7581mm" version="1.1" style="shape-rendering:geometricPrecision; text-rendering:geometricPrecision; image-rendering:optimizeQuality; fill-rule:evenodd; clip-rule:evenodd"
viewBox="0 0 7794 7794"
 xmlns:xlink="http://www.w3.org/1999/xlink">
 <defs>
  <style type="text/css">
   <![CDATA[
    .fil0 {fill:white}
    .fil5 {fill:#414753;fill-rule:nonzero}
    .fil6 {fill:#646B79;fill-rule:nonzero}
    .fil1 {fill:#6EB1E1;fill-rule:nonzero}
    .fil2 {fill:#DEDEDF;fill-rule:nonzero}
    .fil3 {fill:#F0582F;fill-rule:nonzero}
    .fil4 {fill:#FFFFFC;fill-rule:nonzero}
   ]]>
  </style>
 </defs>
 <g id="Camada_x0020_1">
  <metadata id="CorelCorpID_0Corel-Layer"/>
  <g id="_1045925456">
   <circle class="fil0" cx="3897" cy="3897" r="3897"/>
   <g>
    <path class="fil1" d="M7308 3897c0,1884 -1527,3411 -3411,3411 -1884,0 -3411,-1527 -3411,-3411 0,-1884 1527,-3411 3411,-3411 1884,0 3411,1527 3411,3411z"/>
    <polygon class="fil2" points="1712,6359 6086,6359 6086,1985 1712,1985 "/>
    <path class="fil3" d="M1462 1708l0 1008c0,191 155,350 350,350 191,0 350,-155 350,-350l0 -1008 -700 0z"/>
    <path class="fil4" d="M2157 1708l0 1008c0,191 155,350 350,350 191,0 350,-155 350,-350l0 -1008 -700 0z"/>
    <path class="fil3" d="M2852 1708l0 1008c0,191 155,350 350,350 191,0 350,-155 350,-350l0 -1008 -700 0z"/>
    <path class="fil4" d="M3547 1708l0 1008c0,191 155,350 350,350 191,0 350,-155 350,-350l0 -1008 -700 0z"/>
    <path class="fil3" d="M4247 1708l0 1008c0,191 154,350 349,350 191,0 350,-155 350,-350l0 -1008 -699 0z"/>
    <path class="fil3" d="M5636 1708l0 1008c0,191 155,350 350,350 191,0 350,-155 350,-350l0 -1008 -700 0z"/>
    <path class="fil4" d="M4942 1708l0 1008c0,191 154,350 349,350 191,0 350,-155 350,-350l0 -1008 -699 0z"/>
    <polygon class="fil5" points="3057,6359 4742,6359 4742,3679 3057,3679 "/>
    <polygon class="fil6" points="3202,6354 4592,6354 4592,3824 3202,3824 "/>
    <path class="fil5" d="M4424 5091c0,63 -51,114 -114,114 -62,0 -113,-51 -113,-114 0,-62 51,-113 113,-113 63,0 114,51 114,113z"/>
   </g>
  </g>
 </g>
</svg>
