<?xml version="1.0" encoding="UTF-8"?>
<!DOCTYPE svg PUBLIC "-//W3C//DTD SVG 1.1//EN" "http://www.w3.org/Graphics/SVG/1.1/DTD/svg11.dtd">
<!-- Creator: CorelDRAW X7 -->
<svg xmlns="http://www.w3.org/2000/svg" xml:space="preserve" width="14.7581mm" height="14.7581mm" version="1.1" style="shape-rendering:geometricPrecision; text-rendering:geometricPrecision; image-rendering:optimizeQuality; fill-rule:evenodd; clip-rule:evenodd"
viewBox="0 0 5890 5890"
 xmlns:xlink="http://www.w3.org/1999/xlink">
 <defs>
  <style type="text/css">
   <![CDATA[
    .fil0 {fill:white}
    .fil3 {fill:#FEFEFE;fill-rule:nonzero}
    .fil1 {fill:#F48870;fill-rule:nonzero}
    .fil2 {fill:#415466;fill-rule:nonzero}
   ]]>
  </style>
 </defs>
 <g id="Camada_x0020_1">
  <metadata id="CorelCorpID_0Corel-Layer"/>
  <g id="_1045935440">
   <circle class="fil0" cx="2945" cy="2945" r="2945"/>
   <g>
    <path class="fil1" d="M2945 367c1424,0 2578,1154 2578,2578 0,1424 -1154,2578 -2578,2578 -1424,0 -2578,-1154 -2578,-2578 0,-1424 1154,-2578 2578,-2578z"/>
    <path class="fil2" d="M3992 3140l0 0c-36,-301 179,-573 479,-609 37,300 -178,572 -479,609zm37 942c-337,109 -698,-57 -840,-370 199,114 471,142 743,57 267,-85 470,-268 568,-479 65,341 -134,682 -471,792zm-1267 -999c264,-146 597,-53 747,211l0 0c-268,150 -600,53 -747,-211zm1722 -1060c-272,155 -609,301 -983,423 -373,121 -730,195 -1043,231 20,167 57,341 114,516 296,913 1010,1502 1595,1315 585,-191 824,-1084 528,-1997 -57,-175 -130,-337 -211,-488z"/>
    <path class="fil3" d="M2523 2689l0 0c146,-300 507,-426 808,-280 -146,301 -508,426 -808,280zm-528 897c-377,-97 -617,-462 -564,-844 118,227 357,414 658,491 300,77 600,29 815,-109 -142,361 -531,564 -909,462zm-589 -1680c333,20 589,308 569,641l0 0c-333,-20 -589,-308 -569,-641zm2233 36c-345,-20 -747,-81 -1165,-191 -418,-109 -796,-251 -1108,-405 -81,166 -150,349 -203,548 -268,1027 49,2001 706,2171 658,171 1409,-519 1677,-1546 53,-199 85,-390 93,-577z"/>
   </g>
  </g>
 </g>
</svg>
