<?xml version="1.0" encoding="UTF-8"?>
<!DOCTYPE svg PUBLIC "-//W3C//DTD SVG 1.1//EN" "http://www.w3.org/Graphics/SVG/1.1/DTD/svg11.dtd">
<!-- Creator: CorelDRAW X7 -->
<svg xmlns="http://www.w3.org/2000/svg" xml:space="preserve" width="14.7581mm" height="14.7581mm" version="1.1" style="shape-rendering:geometricPrecision; text-rendering:geometricPrecision; image-rendering:optimizeQuality; fill-rule:evenodd; clip-rule:evenodd"
viewBox="0 0 5249 5249"
 xmlns:xlink="http://www.w3.org/1999/xlink">
 <defs>
  <style type="text/css">
   <![CDATA[
    .fil0 {fill:white}
    .fil5 {fill:#4F5565;fill-rule:nonzero}
    .fil1 {fill:#6EB1E1;fill-rule:nonzero}
    .fil2 {fill:#DEDEDF;fill-rule:nonzero}
    .fil6 {fill:#F0582F;fill-rule:nonzero}
    .fil3 {fill:#F1F3F7;fill-rule:nonzero}
    .fil4 {fill:#FCFCFD;fill-rule:nonzero}
   ]]>
  </style>
 </defs>
 <g id="Camada_x0020_1">
  <metadata id="CorelCorpID_0Corel-Layer"/>
  <g id="_1045932304">
   <circle class="fil0" cx="2625" cy="2625" r="2625"/>
   <g>
    <path class="fil1" d="M4922 2625c0,1268 -1029,2297 -2297,2297 -1269,0 -2298,-1029 -2298,-2297 0,-1269 1029,-2298 2298,-2298 1268,0 2297,1029 2297,2298z"/>
    <polygon class="fil2" points="2903,2022 2403,1519 1900,2022 "/>
    <polygon class="fil3" points="3877,2022 3208,1355 2541,2022 "/>
    <polygon class="fil4" points="3584,2915 3422,2836 3741,2170 1624,2170 1624,1993 4025,1993 "/>
    <path class="fil5" d="M3503 3649c0,135 -110,245 -245,245 -136,0 -245,-110 -245,-245 0,-136 109,-246 245,-246 135,0 245,110 245,246z"/>
    <path class="fil3" d="M3379 3649c0,67 -54,121 -121,121 -67,0 -122,-54 -122,-121 0,-67 55,-122 122,-122 67,0 121,55 121,122z"/>
    <path class="fil5" d="M2615 3649c0,135 -110,245 -245,245 -136,0 -246,-110 -246,-245 0,-136 110,-246 246,-246 135,0 245,110 245,246z"/>
    <path class="fil3" d="M2491 3649c0,67 -54,121 -121,121 -68,0 -122,-54 -122,-121 0,-67 54,-122 122,-122 67,0 121,55 121,122z"/>
    <path class="fil5" d="M3348 2436l-1207 0c-50,0 -88,-40 -88,-88 0,-50 40,-88 88,-88l1207 0c50,0 88,41 88,88 0,50 -40,88 -88,88z"/>
    <path class="fil5" d="M3258 2708l-1024 0c-50,0 -88,-41 -88,-88 0,-48 40,-88 88,-88l1024 0c50,0 88,40 88,88 0,47 -41,88 -88,88z"/>
    <path class="fil6" d="M1010 1434c-50,0 -88,40 -88,88 -3,50 38,90 88,90l254 0 0 -178 -254 0z"/>
    <path class="fil4" d="M3536 2786l-1481 0 -612 -1302c-14,-31 -45,-53 -81,-53l-98 0 0 181 41 0 612 1303c14,31 45,52 81,52l1538 0c58,0 103,46 103,103 0,57 -45,102 -103,102l-1526 0c-50,0 -88,41 -88,88 0,50 40,89 88,89l1526 0c155,0 282,-127 282,-282 0,-154 -127,-281 -282,-281z"/>
   </g>
  </g>
 </g>
</svg>
