<?xml version="1.0" encoding="UTF-8"?>
<!DOCTYPE svg PUBLIC "-//W3C//DTD SVG 1.1//EN" "http://www.w3.org/Graphics/SVG/1.1/DTD/svg11.dtd">
<!-- Creator: CorelDRAW X7 -->
<svg xmlns="http://www.w3.org/2000/svg" xml:space="preserve" width="14.7581mm" height="14.7581mm" version="1.1" style="shape-rendering:geometricPrecision; text-rendering:geometricPrecision; image-rendering:optimizeQuality; fill-rule:evenodd; clip-rule:evenodd"
viewBox="0 0 4734 4734"
 xmlns:xlink="http://www.w3.org/1999/xlink">
 <defs>
  <style type="text/css">
   <![CDATA[
    .fil0 {fill:white}
    .fil2 {fill:#503B2C;fill-rule:nonzero}
    .fil1 {fill:#5E4534;fill-rule:nonzero}
    .fil6 {fill:#B25D24;fill-rule:nonzero}
    .fil4 {fill:#C67030;fill-rule:nonzero}
    .fil5 {fill:#D87D39;fill-rule:nonzero}
    .fil3 {fill:#E59A51;fill-rule:nonzero}
   ]]>
  </style>
 </defs>
 <g id="Camada_x0020_1">
  <metadata id="CorelCorpID_0Corel-Layer"/>
  <g id="_1045923344">
   <circle class="fil0" cx="2367" cy="2367" r="2367"/>
   <g>
    <path class="fil1" d="M4439 2367c0,1144 -928,2072 -2072,2072 -1144,0 -2072,-928 -2072,-2072 0,-1144 928,-2072 2072,-2072 1144,0 2072,928 2072,2072z"/>
    <path class="fil2" d="M4433 2209l-694 -694 -2620 1679 1244 1245c1,0 2,0 4,0 1144,0 2072,-928 2072,-2072 0,-53 -2,-106 -6,-158z"/>
    <path class="fil3" d="M3771 1558c173,299 -398,712 -1146,1146 -749,433 -1391,722 -1565,423 -173,-299 189,-1074 937,-1508 749,-433 1601,-361 1774,-61z"/>
    <path class="fil4" d="M2077 2150c48,-7 67,-66 32,-99 -81,-76 -214,-190 -359,-266 -93,71 -179,148 -255,227 113,108 306,179 582,138z"/>
    <path class="fil5" d="M3771 1558c-145,-250 -760,-342 -1395,-114l0 1400c81,-44 164,-91 249,-140 748,-434 1319,-847 1146,-1146z"/>
    <path class="fil4" d="M1596 2544c36,-6 50,-50 24,-75 -70,-65 -193,-170 -321,-224 -50,68 -93,136 -130,203 86,77 228,125 427,96z"/>
    <path class="fil4" d="M2581 1844c49,3 79,-52 51,-91 -60,-82 -156,-205 -271,-304 -109,40 -218,89 -325,148 91,129 266,235 545,247z"/>
    <path class="fil6" d="M2632 1753c-57,-78 -148,-194 -256,-290l0 352c61,15 129,26 205,29 49,3 79,-52 51,-91z"/>
    <path class="fil6" d="M3149 1593c35,6 62,-32 44,-64 -33,-57 -84,-140 -148,-215 -94,3 -193,13 -295,30 52,112 177,216 399,249z"/>
   </g>
  </g>
 </g>
</svg>
