<?xml version="1.0" encoding="UTF-8"?>
<!DOCTYPE svg PUBLIC "-//W3C//DTD SVG 1.1//EN" "http://www.w3.org/Graphics/SVG/1.1/DTD/svg11.dtd">
<!-- Creator: CorelDRAW X7 -->
<svg xmlns="http://www.w3.org/2000/svg" xml:space="preserve" width="14.7581mm" height="14.7581mm" version="1.1" style="shape-rendering:geometricPrecision; text-rendering:geometricPrecision; image-rendering:optimizeQuality; fill-rule:evenodd; clip-rule:evenodd"
viewBox="0 0 3957 3957"
 xmlns:xlink="http://www.w3.org/1999/xlink">
 <defs>
  <style type="text/css">
   <![CDATA[
    .fil0 {fill:white}
    .fil2 {fill:#E2574C;fill-rule:nonzero}
    .fil1 {fill:#F0F0F0;fill-rule:nonzero}
   ]]>
  </style>
 </defs>
 <g id="Camada_x0020_1">
  <metadata id="CorelCorpID_0Corel-Layer"/>
  <g id="_1045932304">
   <circle class="fil0" cx="1979" cy="1979" r="1979"/>
   <g>
    <path class="fil1" d="M1979 247c956,0 1731,775 1731,1731 0,957 -775,1732 -1731,1732 -957,0 -1732,-775 -1732,-1732 0,-956 775,-1731 1732,-1731z"/>
    <path class="fil2" d="M1221 1654l434 0 0 -433c0,-60 49,-108 108,-108l433 0c60,0 108,48 108,108l0 433 432 0c60,0 109,48 109,108l0 433c0,60 -49,109 -109,109l-432 0 0 432c0,60 -48,108 -108,108l-433 0c-59,0 -108,-48 -108,-108l0 -432 -434 0c-60,0 -109,-49 -109,-109l0 -433c0,-60 49,-108 109,-108z"/>
   </g>
  </g>
 </g>
</svg>
