<?xml version="1.0" encoding="UTF-8"?>
<!DOCTYPE svg PUBLIC "-//W3C//DTD SVG 1.1//EN" "http://www.w3.org/Graphics/SVG/1.1/DTD/svg11.dtd">
<!-- Creator: CorelDRAW X7 -->
<svg xmlns="http://www.w3.org/2000/svg" xml:space="preserve" width="3.9659mm" height="3.9472mm" version="1.1" style="shape-rendering:geometricPrecision; text-rendering:geometricPrecision; image-rendering:optimizeQuality; fill-rule:evenodd; clip-rule:evenodd"
viewBox="0 0 286 285"
 xmlns:xlink="http://www.w3.org/1999/xlink">
 <defs>
  <style type="text/css">
   <![CDATA[
    .fil0 {fill:black}
   ]]>
  </style>
 </defs>
 <g id="Camada_x0020_1">
  <metadata id="CorelCorpID_0Corel-Layer"/>
  <path class="fil0" d="M111 92c6,-8 13,-18 21,-25 7,-8 14,-12 17,-21 4,-8 4,-20 5,-29 2,-8 5,-12 10,-15 4,-2 10,-3 16,1 7,3 14,11 17,19 4,9 4,18 2,28 -2,10 -6,22 -10,30 -3,8 -6,13 -8,15 -1,3 -1,3 -1,3 0,0 0,0 8,0 8,0 24,0 39,1 15,0 29,2 39,4 10,3 15,5 18,10 3,5 3,12 1,19 -3,6 -7,12 -10,15 -2,3 -2,3 -2,3 1,1 2,3 4,6 9,10 3,26 -5,36 -1,1 -1,1 0,3 6,14 2,26 -8,36 -2,1 -2,1 -1,2 1,1 2,4 3,8 1,3 1,9 -2,14 -2,5 -8,8 -14,10 -7,1 -14,1 -36,1 -22,0 -58,0 -81,0 -23,0 -32,0 -38,0 -6,-1 -8,-3 -9,-5 -1,-2 -1,-4 -1,-19 0,-14 0,-41 -1,-62 0,-21 0,-35 1,-44 0,-9 1,-12 4,-15 2,-3 6,-6 9,-11 4,-4 8,-10 13,-18zm-105 27l59 0c4,0 7,2 7,6l0 153c0,4 -3,7 -7,7l-59 0c-3,0 -6,-3 -6,-7l0 -153c0,-4 3,-6 6,-6z"/>
 </g>
</svg>
