<?xml version="1.0" encoding="UTF-8"?>
<!DOCTYPE svg PUBLIC "-//W3C//DTD SVG 1.1//EN" "http://www.w3.org/Graphics/SVG/1.1/DTD/svg11.dtd">
<!-- Creator: CorelDRAW X7 -->
<svg xmlns="http://www.w3.org/2000/svg" xml:space="preserve" width="3.9662mm" height="3.9434mm" version="1.1" style="shape-rendering:geometricPrecision; text-rendering:geometricPrecision; image-rendering:optimizeQuality; fill-rule:evenodd; clip-rule:evenodd"
viewBox="0 0 1271 1263"
 xmlns:xlink="http://www.w3.org/1999/xlink">
 <defs>
  <style type="text/css">
   <![CDATA[
    .fil0 {fill:#4080FF}
   ]]>
  </style>
 </defs>
 <g id="Camada_x0020_1">
  <metadata id="CorelCorpID_0Corel-Layer"/>
  <path class="fil0" d="M493 407c26,-35 57,-80 93,-111 31,-35 62,-53 75,-93 18,-36 18,-89 22,-129 9,-35 22,-53 45,-66 17,-9 44,-14 71,4 31,14 62,49 75,84 18,40 18,80 9,125 -9,44 -27,97 -44,133 -14,35 -27,58 -36,66 -4,14 -4,14 -4,14 0,0 0,0 35,0 36,0 107,0 173,4 67,0 129,9 173,18 45,13 67,22 80,44 13,22 13,53 4,85 -13,26 -31,53 -44,66 -9,13 -9,13 -9,13 5,5 9,14 18,27 40,44 13,115 -22,160 -5,4 -5,4 0,13 26,62 9,115 -36,160 -9,4 -9,4 -4,9 4,4 9,17 13,35 5,13 5,40 -9,62 -9,22 -35,36 -62,45 -31,4 -62,4 -160,4 -97,0 -257,0 -359,0 -102,0 -142,0 -169,0 -26,-4 -35,-13 -39,-22 -5,-9 -5,-18 -5,-84 0,-63 0,-182 -4,-276 0,-93 0,-155 4,-195 0,-40 5,-53 18,-66 9,-14 26,-27 40,-49 18,-18 35,-44 57,-80l1 0zm-466 120l261 0c18,0 31,9 31,26l0 679c0,18 -13,31 -31,31l-261 0c-14,0 -27,-13 -27,-31l0 -679c0,-17 13,-26 27,-26z"/>
 </g>
</svg>
