<?xml version="1.0" encoding="UTF-8"?>
<!DOCTYPE svg PUBLIC "-//W3C//DTD SVG 1.1//EN" "http://www.w3.org/Graphics/SVG/1.1/DTD/svg11.dtd">
<!-- Creator: CorelDRAW X7 -->
<svg xmlns="http://www.w3.org/2000/svg" xml:space="preserve" width="14.7581mm" height="14.7581mm" version="1.1" style="shape-rendering:geometricPrecision; text-rendering:geometricPrecision; image-rendering:optimizeQuality; fill-rule:evenodd; clip-rule:evenodd"
viewBox="0 0 3672 3672"
 xmlns:xlink="http://www.w3.org/1999/xlink">
 <defs>
  <style type="text/css">
   <![CDATA[
    .fil0 {fill:white}
    .fil3 {fill:#FEFEFE;fill-rule:nonzero}
    .fil5 {fill:#FFCA31;fill-rule:nonzero}
    .fil7 {fill:#F4825A;fill-rule:nonzero}
    .fil6 {fill:#EAA43E;fill-rule:nonzero}
    .fil8 {fill:#D56041;fill-rule:nonzero}
    .fil4 {fill:#D2D3D4;fill-rule:nonzero}
    .fil2 {fill:#666666;fill-rule:nonzero}
    .fil1 {fill:gray;fill-rule:nonzero}
   ]]>
  </style>
 </defs>
 <g id="Camada_x0020_1">
  <metadata id="CorelCorpID_0Corel-Layer"/>
  <g id="_1349501424">
   <circle class="fil0" cx="1836" cy="1836" r="1836"/>
   <g>
    <path class="fil1" d="M1836 229c888,0 1607,719 1607,1607 0,888 -719,1607 -1607,1607 -888,0 -1607,-719 -1607,-1607 0,-888 719,-1607 1607,-1607z"/>
    <path class="fil2" d="M3431 2037l-506 -524 -18 1 -161 -162 25 497 -1057 0 -497 -497 -159 384 -4 -4 -309 426 1293 1272c726,-90 1302,-666 1393,-1393z"/>
    <polygon class="fil3" points="1157,2006 2515,2006 2515,1666 1157,1666 "/>
    <polygon class="fil4" points="1157,2006 2515,2006 2515,1836 1157,1836 "/>
    <path class="fil5" d="M1157 2345l-170 0c-47,0 -85,-38 -85,-84l0 -850c0,-46 38,-84 85,-84l170 0c47,0 85,38 85,84l0 850c0,46 -38,84 -85,84z"/>
    <path class="fil6" d="M902 1836l0 425c0,46 38,84 85,84l170 0c47,0 85,-38 85,-84l0 -425 -340 0z"/>
    <path class="fil7" d="M849 2176l-64 0c-29,0 -53,-24 -53,-53l0 -574c0,-29 24,-53 53,-53l64 0c29,0 53,24 53,53l0 574c0,29 -24,53 -53,53z"/>
    <path class="fil8" d="M732 1836l0 287c0,29 24,53 53,53l64 0c29,0 53,-24 53,-53l0 -287 -170 0z"/>
    <path class="fil5" d="M2515 1327l170 0c47,0 85,38 85,84l0 850c0,46 -38,84 -85,84l-170 0c-47,0 -85,-38 -85,-84l0 -850c0,-46 38,-84 85,-84z"/>
    <path class="fil6" d="M2430 1836l0 425c0,46 38,84 85,84l170 0c47,0 85,-38 85,-84l0 -425 -340 0z"/>
    <path class="fil7" d="M2823 1496l64 0c29,0 53,24 53,53l0 574c0,29 -24,53 -53,53l-64 0c-29,0 -53,-24 -53,-53l0 -574c0,-29 24,-53 53,-53z"/>
    <path class="fil8" d="M2770 1836l0 287c0,29 24,53 53,53l64 0c29,0 53,-24 53,-53l0 -287 -170 0z"/>
   </g>
  </g>
 </g>
</svg>
