<?xml version="1.0" encoding="UTF-8"?>
<!DOCTYPE svg PUBLIC "-//W3C//DTD SVG 1.1//EN" "http://www.w3.org/Graphics/SVG/1.1/DTD/svg11.dtd">
<!-- Creator: CorelDRAW X7 -->
<svg xmlns="http://www.w3.org/2000/svg" xml:space="preserve" width="14.7581mm" height="14.7581mm" version="1.1" style="shape-rendering:geometricPrecision; text-rendering:geometricPrecision; image-rendering:optimizeQuality; fill-rule:evenodd; clip-rule:evenodd"
viewBox="0 0 3975 3975"
 xmlns:xlink="http://www.w3.org/1999/xlink">
 <defs>
  <style type="text/css">
   <![CDATA[
    .fil3 {fill:#FFCA31}
    .fil0 {fill:white}
    .fil2 {fill:#B2361F;fill-rule:nonzero}
    .fil1 {fill:#C63C22;fill-rule:nonzero}
   ]]>
  </style>
 </defs>
 <g id="Camada_x0020_1">
  <metadata id="CorelCorpID_0Corel-Layer"/>
  <g id="_1349479408">
   <circle class="fil0" cx="1988" cy="1988" r="1988"/>
   <g>
    <path class="fil1" d="M1988 248c961,0 1740,779 1740,1740 0,961 -779,1740 -1740,1740 -961,0 -1740,-779 -1740,-1740 0,-961 779,-1740 1740,-1740z"/>
    <path class="fil2" d="M3674 2418c-200,-203 -398,-394 -598,-595l-2171 99 15 258 1510 1491c609,-160 1088,-642 1244,-1253z"/>
    <g>
     <circle class="fil3" cx="1149" cy="1988" r="298"/>
     <circle class="fil3" cx="1988" cy="1988" r="298"/>
     <circle class="fil3" cx="2827" cy="1988" r="298"/>
    </g>
   </g>
  </g>
 </g>
</svg>
