<?xml version="1.0" encoding="UTF-8"?>
<!DOCTYPE svg PUBLIC "-//W3C//DTD SVG 1.1//EN" "http://www.w3.org/Graphics/SVG/1.1/DTD/svg11.dtd">
<!-- Creator: CorelDRAW X7 -->
<svg xmlns="http://www.w3.org/2000/svg" xml:space="preserve" width="5.0743mm" height="5.0743mm" version="1.1" style="shape-rendering:geometricPrecision; text-rendering:geometricPrecision; image-rendering:optimizeQuality; fill-rule:evenodd; clip-rule:evenodd"
viewBox="0 0 4636 4636"
 xmlns:xlink="http://www.w3.org/1999/xlink">
 <defs>
  <style type="text/css">
   <![CDATA[
    .fil0 {fill:#999999}
   ]]>
  </style>
 </defs>
 <g id="Camada_x0020_1">
  <metadata id="CorelCorpID_0Corel-Layer"/>
  <path class="fil0" d="M2318 4636c1280,0 2318,-1038 2318,-2318 0,-1280 -1038,-2318 -2318,-2318 -1280,0 -2318,1038 -2318,2318 0,1280 1038,2318 2318,2318zm-808 -2575c183,0 332,-149 332,-332 0,-184 -149,-333 -332,-333 -184,0 -333,149 -333,333 0,183 149,332 333,332zm1616 0c184,0 332,-149 332,-332 0,-184 -148,-333 -332,-333 -184,0 -332,149 -332,333 0,183 148,332 332,332zm-808 1541c544,0 1009,-338 1196,-816l-2392 0c187,478 652,816 1196,816zm0 574c1026,0 1858,-832 1858,-1858 0,-1026 -832,-1858 -1858,-1858 -1026,0 -1858,832 -1858,1858 0,1026 832,1858 1858,1858z"/>
 </g>
</svg>
