<?xml version="1.0" encoding="UTF-8"?>
<!DOCTYPE svg PUBLIC "-//W3C//DTD SVG 1.1//EN" "http://www.w3.org/Graphics/SVG/1.1/DTD/svg11.dtd">
<!-- Creator: CorelDRAW X7 -->
<svg xmlns="http://www.w3.org/2000/svg" xml:space="preserve" width="5.0743mm" height="5.0743mm" version="1.1" style="shape-rendering:geometricPrecision; text-rendering:geometricPrecision; image-rendering:optimizeQuality; fill-rule:evenodd; clip-rule:evenodd"
viewBox="0 0 2892 2892"
 xmlns:xlink="http://www.w3.org/1999/xlink">
 <defs>
  <style type="text/css">
   <![CDATA[
    .fil0 {fill:#FFB800}
   ]]>
  </style>
 </defs>
 <g id="Camada_x0020_1">
  <metadata id="CorelCorpID_0Corel-Layer"/>
  <path class="fil0" d="M1446 2892c798,0 1446,-648 1446,-1446 0,-799 -648,-1446 -1446,-1446 -799,0 -1446,647 -1446,1446 0,798 647,1446 1446,1446zm-504 -1606c114,0 207,-93 207,-208 0,-114 -93,-207 -207,-207 -115,0 -208,93 -208,207 0,115 93,208 208,208zm1008 0c115,0 208,-93 208,-208 0,-114 -93,-207 -208,-207 -114,0 -207,93 -207,207 0,115 93,208 207,208zm-504 961c339,0 629,-211 746,-509l-1492 0c117,298 407,509 746,509zm0 358c640,0 1159,-519 1159,-1159 0,-640 -519,-1159 -1159,-1159 -640,0 -1159,519 -1159,1159 0,640 519,1159 1159,1159z"/>
 </g>
</svg>
