<?xml version="1.0" encoding="UTF-8"?>
<!DOCTYPE svg PUBLIC "-//W3C//DTD SVG 1.1//EN" "http://www.w3.org/Graphics/SVG/1.1/DTD/svg11.dtd">
<!-- Creator: CorelDRAW X7 -->
<svg xmlns="http://www.w3.org/2000/svg" xml:space="preserve" width="14.7581mm" height="14.7581mm" version="1.1" style="shape-rendering:geometricPrecision; text-rendering:geometricPrecision; image-rendering:optimizeQuality; fill-rule:evenodd; clip-rule:evenodd"
viewBox="0 0 5473 5473"
 xmlns:xlink="http://www.w3.org/1999/xlink">
 <defs>
  <style type="text/css">
   <![CDATA[
    .fil0 {fill:white}
    .fil2 {fill:#FEFEFE;fill-rule:nonzero}
    .fil4 {fill:#FFDC8B;fill-rule:nonzero}
    .fil1 {fill:#F48870;fill-rule:nonzero}
    .fil6 {fill:#F37562;fill-rule:nonzero}
    .fil5 {fill:#F15D4C;fill-rule:nonzero}
    .fil7 {fill:#F8B656;fill-rule:nonzero}
    .fil3 {fill:#8DD7F7;fill-rule:nonzero}
    .fil8 {fill:#415466;fill-rule:nonzero}
   ]]>
  </style>
 </defs>
 <g id="Camada_x0020_1">
  <metadata id="CorelCorpID_0Corel-Layer"/>
  <g id="_775732288">
   <circle class="fil0" cx="2736" cy="2736" r="2736"/>
   <circle class="fil0" cx="2747" cy="2755" r="2395"/>
   <g>
    <path class="fil1" d="M2747 362c1322,0 2393,1072 2393,2393 0,1322 -1071,2393 -2393,2393 -1322,0 -2393,-1071 -2393,-2393 0,-1321 1071,-2393 2393,-2393z"/>
    <path class="fil2" d="M4473 1383l0 958c0,86 -68,154 -154,154l-264 0 -754 611 173 -611 -380 0c11,-109 4,-177 4,-177l37 151c98,-656 -539,-924 -580,-939l0 0c72,-3 188,57 188,57 -56,-64 -120,-109 -188,-143l0 -57c0,-87 68,-154 154,-154l1610 0c86,-4 154,67 154,150z"/>
    <path class="fil3" d="M942 4323c437,505 1085,825 1805,825 433,0 840,-117 1191,-316 -712,-720 -1899,-731 -1899,-731 0,0 -532,3 -1097,222z"/>
    <path class="fil4" d="M2638 3957l0 0c0,49 -30,313 -584,524l-27 0c-554,-211 -584,-475 -584,-520l0 0c4,-98 27,-196 68,-286 151,169 335,282 528,282 192,0 376,-109 527,-282 45,86 68,188 72,282z"/>
    <polygon class="fil5" points="2336,4481 1741,4481 1873,4813 2208,4813 "/>
    <path class="fil6" d="M2235 5092l-31 -283 -335 0 -19 166c128,49 256,90 385,117z"/>
    <path class="fil2" d="M2638 3954c0,0 26,301 -599,531 0,0 486,26 633,362 7,15 286,-716 -34,-893z"/>
    <path class="fil2" d="M1443 3954c-230,124 -154,527 -90,746 34,22 64,45 98,68 181,-257 588,-283 588,-283 -622,-230 -596,-531 -596,-531z"/>
    <path class="fil7" d="M2600 3746c-158,170 -350,279 -558,279 -207,0 -399,-109 -557,-279 7,-26 18,-52 30,-75 151,169 335,283 527,283 193,0 377,-110 528,-283 11,26 19,53 30,75z"/>
    <path class="fil4" d="M3071 3170c-79,132 -200,211 -290,196 -181,335 -445,588 -739,588 -294,0 -557,-253 -738,-588 -91,11 -211,-64 -290,-196 -95,-155 -98,-328 -8,-381 19,-11 45,-19 72,-15 60,154 143,252 143,252 -91,-482 264,-535 207,-998 0,0 222,497 863,147l-53 90c893,-203 592,852 584,878 102,-128 166,-256 204,-373 15,4 34,8 45,15 94,57 94,226 0,385z"/>
    <path class="fil8" d="M1085 1651c0,0 185,-23 238,109 0,0 -61,-188 0,-279 60,-86 0,-22 0,-22 0,0 -23,120 26,196 0,0 132,-452 882,-336 0,0 -158,-15 -336,136 0,0 528,-234 848,132 0,0 -120,-60 -188,-57 0,0 686,264 580,942l-37 -150c0,0 49,418 -272,825 0,0 321,-1082 -584,-878l49 -94c-641,346 -863,-147 -863,-147 57,463 -298,516 -207,995 0,0 -302,-351 -185,-799l-94 113c0,0 -68,-415 328,-562 0,0 -30,-98 -185,-124z"/>
    <path class="fil8" d="M1323 1481c0,4 -4,4 -4,8 0,-19 4,-26 4,-26 0,0 60,-68 0,18z"/>
    <path class="fil8" d="M1323 1481c0,4 -4,4 -4,8 0,-19 4,-26 4,-26 0,0 60,-68 0,18z"/>
   </g>
  </g>
 </g>
</svg>
