<?xml version="1.0" encoding="UTF-8"?>
<!DOCTYPE svg PUBLIC "-//W3C//DTD SVG 1.1//EN" "http://www.w3.org/Graphics/SVG/1.1/DTD/svg11.dtd">
<!-- Creator: CorelDRAW X7 -->
<svg xmlns="http://www.w3.org/2000/svg" xml:space="preserve" width="14.7581mm" height="14.7581mm" version="1.1" style="shape-rendering:geometricPrecision; text-rendering:geometricPrecision; image-rendering:optimizeQuality; fill-rule:evenodd; clip-rule:evenodd"
viewBox="0 0 7080 7080"
 xmlns:xlink="http://www.w3.org/1999/xlink">
 <defs>
  <style type="text/css">
   <![CDATA[
    .fil0 {fill:white}
    .fil5 {fill:#FEFEFE;fill-rule:nonzero}
    .fil3 {fill:#F37562;fill-rule:nonzero}
    .fil4 {fill:#8DD7F7;fill-rule:nonzero}
    .fil1 {fill:#415466;fill-rule:nonzero}
    .fil2 {fill:#3C4857;fill-rule:nonzero}
   ]]>
  </style>
 </defs>
 <g id="Camada_x0020_1">
  <metadata id="CorelCorpID_0Corel-Layer"/>
  <g id="_1025619120">
   <circle class="fil0" cx="3540" cy="3540" r="3540"/>
   <circle class="fil0" cx="3554" cy="3564" r="3098"/>
   <g>
    <path class="fil1" d="M3554 468c1709,0 3095,1386 3095,3096 0,1710 -1386,3096 -3095,3096 -1710,0 -3096,-1386 -3096,-3096 0,-1710 1386,-3096 3096,-3096z"/>
    <path class="fil2" d="M6128 3130l0 644c0,44 -39,83 -88,73 -34,-5 -59,-34 -64,-68l-63 -659c0,-19 -19,-39 -44,-39 -24,0 -44,20 -44,44l0 1941c0,53 -39,102 -92,112 -59,5 -112,-34 -117,-93l-103 -1019c0,-24 -24,-44 -48,-44 -25,0 -44,20 -44,44l-78 1009c-5,54 -49,98 -107,98l-20 0c-58,0 -107,-49 -107,-107l0 -1941c0,-24 -20,-44 -44,-44 -20,0 -34,10 -39,30 0,-25 24,-49 49,-49 24,0 48,19 48,49l78 794c5,44 35,78 78,83 59,10 108,-34 108,-88l0 -775c0,-219 -88,-419 -234,-565 87,-54 190,-83 302,-88 366,-10 673,288 673,658z"/>
    <path class="fil2" d="M5470 1760c169,0 307,138 307,307 0,170 -138,308 -307,308 -170,0 -308,-138 -308,-308 0,-169 138,-307 308,-307z"/>
    <path class="fil2" d="M1999 3111c0,-10 4,-15 4,-20 -4,5 -4,10 -4,20l4 1935c0,54 -39,102 -92,112 -59,5 -112,-34 -117,-92l-103 -1019c0,-25 -24,-44 -48,-44 -25,0 -44,19 -44,44l-83 1014c-5,53 -49,97 -107,97l-20 0c-58,0 -107,-49 -107,-107l0 -1945c0,-25 -20,-44 -44,-44 -19,0 -39,15 -44,39l-63 658c-5,39 -34,68 -73,68 -44,0 -73,-34 -73,-73l0 -629c0,-360 282,-663 638,-672 137,-5 259,34 366,97 -151,151 -244,361 -244,585l0 761c0,48 39,92 93,92l0 0c48,0 87,-34 87,-83l74 -794z"/>
    <path class="fil2" d="M2096 3116l0 141 -15 -151c0,-20 -14,-34 -34,-39 30,0 49,19 49,49z"/>
    <path class="fil2" d="M1638 1746c169,0 307,137 307,307 0,169 -138,307 -307,307 -170,0 -307,-138 -307,-307 0,-170 137,-307 307,-307z"/>
    <path class="fil3" d="M4090 3062c10,0 19,5 29,10 -5,0 -14,-5 -19,-5 -25,0 -49,19 -49,49l-15 156 0 -156c0,-30 25,-54 54,-54z"/>
    <path class="fil3" d="M5382 3125l0 775c0,54 -49,98 -107,88 -44,-5 -74,-44 -78,-83l-74 -794c0,-25 -24,-49 -48,-49 -30,0 -54,24 -54,54l0 2340c0,63 -49,126 -112,131 -73,10 -132,-44 -141,-112l-122 -1228c-5,-30 -25,-49 -54,-49 -29,0 -54,24 -54,53l-107 1224c-5,63 -63,117 -127,117l-24 0c-68,0 -127,-58 -127,-127l0 -2291 73 795c5,44 39,83 83,92 64,10 112,-39 112,-97l0 -839c0,-258 -112,-487 -292,-648 122,-88 273,-141 434,-146 453,-15 819,346 819,794z"/>
    <path class="fil3" d="M4587 1468c205,0 371,166 371,370 0,205 -166,371 -371,371 -204,0 -370,-166 -370,-371 0,-204 166,-370 370,-370z"/>
    <path class="fil4" d="M2701 3140l0 824c0,53 43,97 97,97l0 0c49,0 93,-39 98,-87l73 -805 0 2287c0,63 -49,126 -112,131 -69,10 -132,-44 -142,-112l-127 -1228c-4,-30 -29,-49 -53,-49 -29,0 -54,19 -54,49l-102 1228c-5,63 -64,117 -127,117l-24 0c-69,0 -127,-58 -127,-127l0 -2349c0,-30 -24,-54 -54,-54 -24,0 -48,19 -48,49l-78 794c-5,49 -44,83 -88,83l0 0c-49,0 -93,-39 -93,-92l0 -756c0,-434 341,-800 770,-809 181,-5 347,48 483,146 -180,161 -292,400 -292,663z"/>
    <path class="fil4" d="M2047 3067c-19,0 -34,10 -44,24 5,-14 20,-29 44,-24 -5,-5 -5,-5 0,0z"/>
    <path class="fil4" d="M3086 3116l0 156 -15 -161c0,-25 -24,-49 -49,-49 -5,0 -14,0 -19,5 10,-5 19,-10 29,-10 29,5 54,29 54,59z"/>
    <path class="fil4" d="M2535 1468c204,0 370,166 370,370 0,205 -166,371 -370,371 -205,0 -371,-166 -371,-371 0,-204 166,-370 371,-370z"/>
    <path class="fil5" d="M3539 2262c-468,15 -838,410 -838,883l0 824c0,53 43,97 97,97l0 0c49,0 93,-39 98,-88l82 -862c5,-30 25,-49 54,-49 29,0 54,24 54,53l0 2550c0,78 63,137 136,137l29 0c74,0 132,-54 137,-127l112 -1336c5,-29 29,-54 59,-54 29,0 58,25 58,54l137 1341c9,73 78,131 151,122 73,-10 122,-74 122,-147l0 -2544c0,-30 24,-54 53,-54 29,0 54,19 54,49l83 863c5,43 39,82 83,92 63,10 112,-39 112,-97l0 -844c14,-487 -385,-877 -873,-863z"/>
    <path class="fil5" d="M3003 3067c-15,10 -25,24 -25,44l-9 58 0 -53c0,-20 14,-39 34,-49z"/>
    <path class="fil5" d="M3563 1326c224,0 405,182 405,405 0,224 -181,405 -405,405 -223,0 -404,-181 -404,-405 0,-223 181,-405 404,-405z"/>
   </g>
  </g>
 </g>
</svg>
