<?xml version="1.0" encoding="UTF-8"?>
<!DOCTYPE svg PUBLIC "-//W3C//DTD SVG 1.1//EN" "http://www.w3.org/Graphics/SVG/1.1/DTD/svg11.dtd">
<!-- Creator: CorelDRAW X7 -->
<svg xmlns="http://www.w3.org/2000/svg" xml:space="preserve" width="14.7581mm" height="14.7581mm" version="1.1" style="shape-rendering:geometricPrecision; text-rendering:geometricPrecision; image-rendering:optimizeQuality; fill-rule:evenodd; clip-rule:evenodd"
viewBox="0 0 8298 8298"
 xmlns:xlink="http://www.w3.org/1999/xlink">
 <defs>
  <style type="text/css">
   <![CDATA[
    .fil0 {fill:white}
    .fil2 {fill:#840202;fill-rule:nonzero}
    .fil1 {fill:#C42014;fill-rule:nonzero}
    .fil4 {fill:#D6EAE0;fill-rule:nonzero}
    .fil3 {fill:#EBFFF6;fill-rule:nonzero}
   ]]>
  </style>
 </defs>
 <g id="Camada_x0020_1">
  <metadata id="CorelCorpID_0Corel-Layer"/>
  <g id="_1045216816">
   <circle class="fil0" cx="4149" cy="4149" r="4149"/>
   <circle class="fil0" cx="4165" cy="4177" r="3632"/>
   <g>
    <path class="fil1" d="M7793 4177c0,2004 -1624,3629 -3628,3629 -2004,0 -3628,-1625 -3628,-3629 0,-2004 1624,-3628 3628,-3628 2004,0 3628,1624 3628,3628z"/>
    <path class="fil2" d="M537 4177c0,2000 1616,3616 3628,3616 2000,0 3616,-1616 3616,-3616l-7244 0z"/>
    <polygon class="fil3" points="4548,5135 3782,5135 3494,1543 4836,1543 "/>
    <polygon class="fil4" points="4848,1519 4548,5135 3806,5135 "/>
    <polygon class="fil3" points="4803,6179 4168,6814 3533,6179 4168,5544 "/>
    <polygon class="fil4" points="4165,5554 4800,6189 4165,6812 "/>
   </g>
  </g>
 </g>
</svg>
