<?xml version="1.0" encoding="UTF-8"?>
<!DOCTYPE svg PUBLIC "-//W3C//DTD SVG 1.1//EN" "http://www.w3.org/Graphics/SVG/1.1/DTD/svg11.dtd">
<!-- Creator: CorelDRAW X7 -->
<svg xmlns="http://www.w3.org/2000/svg" xml:space="preserve" width="14.7581mm" height="14.7581mm" version="1.1" style="shape-rendering:geometricPrecision; text-rendering:geometricPrecision; image-rendering:optimizeQuality; fill-rule:evenodd; clip-rule:evenodd"
viewBox="0 0 10022 10022"
 xmlns:xlink="http://www.w3.org/1999/xlink">
 <defs>
  <style type="text/css">
   <![CDATA[
    .fil0 {fill:white}
    .fil3 {fill:#FFC831;fill-rule:nonzero}
    .fil4 {fill:#EAA43E;fill-rule:nonzero}
    .fil6 {fill:#C94239;fill-rule:nonzero}
    .fil7 {fill:#963133;fill-rule:nonzero}
    .fil5 {fill:#393838;fill-rule:nonzero}
    .fil1 {fill:#38497F;fill-rule:nonzero}
    .fil2 {fill:#312E52;fill-rule:nonzero}
   ]]>
  </style>
 </defs>
 <g id="Camada_x0020_1">
  <metadata id="CorelCorpID_0Corel-Layer"/>
  <g id="_1051832704">
   <circle class="fil0" cx="5011" cy="5011" r="5011"/>
   <circle class="fil0" cx="5031" cy="5045" r="4386"/>
   <g>
    <path class="fil1" d="M5031 663c2420,0 4382,1962 4382,4382 0,2421 -1962,4383 -4382,4383 -2421,0 -4383,-1962 -4383,-4383 0,-2420 1962,-4382 4383,-4382z"/>
    <path class="fil2" d="M3297 6754l2589 2590c1734,-343 3100,-1709 3443,-3443l-2567 -2567 -3465 3420z"/>
    <path class="fil3" d="M5031 2611c1344,0 2434,1090 2434,2434 0,1345 -1090,2435 -2434,2435 -1345,0 -2435,-1090 -2435,-2435 0,-1344 1090,-2434 2435,-2434z"/>
    <path class="fil4" d="M7465 5045c0,-1344 -1090,-2434 -2434,-2434l0 4869c1344,0 2434,-1090 2434,-2435z"/>
    <path class="fil5" d="M4411 4581c-73,0 -133,-60 -133,-133 0,-147 -119,-266 -265,-266 -147,0 -266,119 -266,266 0,73 -60,133 -133,133 -73,0 -133,-60 -133,-133 0,-293 239,-531 532,-531 292,0 531,238 531,531 0,73 -60,133 -133,133z"/>
    <path class="fil5" d="M6447 4581c-73,0 -133,-60 -133,-133 0,-147 -119,-266 -265,-266 -147,0 -266,119 -266,266 0,73 -59,133 -133,133 -73,0 -132,-60 -132,-133 0,-293 238,-531 531,-531 293,0 531,238 531,531 0,73 -59,133 -133,133z"/>
    <path class="fil6" d="M5031 5919c-550,0 -1039,-345 -1190,-839 -19,-62 16,-128 78,-147 62,-20 128,16 147,78 121,395 518,672 965,672 447,0 843,-277 964,-672 19,-62 85,-98 147,-78 63,19 98,85 79,147 -151,494 -641,839 -1190,839z"/>
    <path class="fil7" d="M6142 4933c-62,-20 -128,16 -147,78 -121,395 -517,672 -964,672 -4,0 -7,-1 -10,-1l0 236c3,0 6,1 10,1 549,0 1039,-345 1190,-839 19,-62 -16,-128 -79,-147z"/>
   </g>
  </g>
 </g>
</svg>
